<svg id="Capa_1" enable-background="new 0 0 512 512" height="512" viewBox="0 0 512 512" width="512" xmlns="http://www.w3.org/2000/svg"><g><g><path d="m503.494 258.27-53.529 47.996c-.9.807-1.238 2.07-.862 3.219l22.388 68.327c.566 1.727-.495 3.562-2.273 3.934l-70.394 14.718c-1.186.248-2.112 1.174-2.36 2.36l-14.718 70.394c-.372 1.779-2.207 2.839-3.934 2.273l-68.326-22.389c-1.149-.377-2.412-.038-3.219.862l-47.996 53.529c-1.212 1.351-3.328 1.351-4.54 0l-47.996-53.529c-.807-.9-2.07-1.238-3.219-.862l-68.327 22.388c-1.727.566-3.562-.495-3.934-2.273l-14.718-70.394c-.248-1.186-1.175-2.112-2.36-2.36l-70.394-14.718c-1.779-.372-2.839-2.207-2.273-3.934l22.389-68.326c.377-1.149.038-2.412-.862-3.219l-53.531-47.996c-1.351-1.212-1.351-3.328 0-4.54l53.529-47.996c.9-.807 1.238-2.07.862-3.219l-22.388-68.327c-.566-1.727.495-3.562 2.273-3.934l70.394-14.718c1.186-.248 2.112-1.175 2.36-2.36l14.718-70.394c.372-1.779 2.207-2.839 3.934-2.273l68.326 22.389c1.149.377 2.412.038 3.219-.862l47.997-53.53c1.212-1.351 3.328-1.351 4.54 0l47.996 53.529c.807.9 2.07 1.238 3.219.862l68.327-22.388c1.727-.566 3.562.495 3.934 2.273l14.718 70.394c.248 1.186 1.174 2.112 2.36 2.36l70.394 14.718c1.779.372 2.839 2.207 2.273 3.934l-22.389 68.326c-.377 1.149-.038 2.412.862 3.219l53.529 47.996c1.353 1.213 1.353 3.329.001 4.541z" fill="#fece85"/></g><g><path d="m172.683 54.272-41.049-13.457c.729-.45 1.658-.599 2.557-.31l41.049 13.447c-.759.479-1.688.599-2.557.32z" fill="#fec165"/></g><g><path d="m282.174 439.577 26.444 9.391c-.879-.04-1.748.32-2.348.999l-48.002 53.527c-1.209 1.349-3.327 1.349-4.536 0l-16.364-18.252 41.588-44.805c.81-.9 2.069-1.24 3.218-.86z" fill="#fec165"/></g><g><path d="m373.692 108.587-13.636-62.267 17.752-5.814c1.728-.559 3.566.5 3.936 2.278l14.715 70.39c.1.5.33.949.649 1.319l-21.059-3.546c-1.178-.252-2.107-1.171-2.357-2.36z" fill="#fec165"/></g><g><path d="m449.966 306.27c-.899.799-1.239 2.068-.859 3.217l22.388 68.322c.559 1.728-.5 3.566-2.278 3.936l-70.39 14.715c-1.189.25-2.118 1.179-2.368 2.368l-14.715 70.39c-.37 1.778-2.208 2.837-3.936 2.278l-21.808-7.144c.579-.43 1.009-1.059 1.169-1.828l15.654-81.279c.25-1.189 1.169-2.118 2.358-2.368l61.928-11.718c1.778-.37 2.837-2.208 2.268-3.926l-20.1-62.378c-.38-1.149-.04-2.408.859-3.217l46.034-39.371c1.349-1.209 1.349-3.327 0-4.535l-47.632-47.792c-.899-.809-1.239-2.068-.869-3.217l23.996-77.163c.11-.35.16-.699.15-1.039l27.403 5.734c1.778.37 2.837 2.208 2.278 3.936l-22.388 68.322c-.38 1.149-.04 2.418.859 3.217l53.527 48.002c1.349 1.209 1.349 3.327 0 4.535z" fill="#fec165"/></g><g><circle cx="256" cy="256" fill="#fdb441" r="156.241"/></g><g><path d="m412.244 256c0 86.294-69.95 156.244-156.244 156.244-17.532 0-34.386-2.887-50.12-8.222 10.17 2.088 20.699 3.177 31.488 3.177 86.294 0 156.244-69.95 156.244-156.234 0-68.761-44.416-127.143-106.124-148.032 71.199 14.565 124.756 77.562 124.756 153.067z" fill="#fea613"/></g><g><g><g><circle cx="173.076" cy="274.124" fill="#fb8801" r="21.787"/></g><g><circle cx="338.924" cy="274.124" fill="#fb8801" r="21.787"/></g></g><g><path d="m130.751 336.278c-2.236-3.482-6.872-4.49-10.353-2.255-3.482 2.237-4.491 6.872-2.255 10.353 30.31 47.186 81.845 75.357 137.857 75.357 90.283 0 163.734-73.451 163.734-163.733s-73.451-163.733-163.734-163.733-163.733 73.45-163.733 163.733c0 19.163 3.282 37.936 9.754 55.795 1.411 3.89 5.706 5.9 9.597 4.491 3.89-1.41 5.901-5.707 4.491-9.597-5.878-16.217-8.858-33.271-8.858-50.689 0-82.02 66.728-148.748 148.748-148.748 82.021 0 148.749 66.728 148.749 148.748s-66.727 148.748-148.748 148.748c-50.887 0-97.709-25.596-125.249-68.47z"/><path d="m508.496 248.151-51.369-46.059 21.485-65.57c.933-2.845.608-5.964-.89-8.556-1.498-2.593-4.039-4.432-6.97-5.045l-67.549-14.124-2.21-10.572c-.848-4.051-4.824-6.646-8.867-5.801-4.051.847-6.648 4.816-5.802 8.867l2.807 13.423c.859 4.098 4.063 7.3 8.16 8.156l65.535 13.702-20.842 63.608c-1.302 3.97-.133 8.339 2.979 11.132l49.839 44.688-49.839 44.687c-3.112 2.791-4.282 7.16-2.98 11.131l20.842 63.609-65.536 13.702c-4.1.857-7.303 4.061-8.16 8.161l-13.703 65.535-63.608-20.842c-3.971-1.302-8.343-.132-11.13 2.98l-44.688 49.84-44.687-49.839c-2.79-3.112-7.161-4.282-11.131-2.98l-63.609 20.842-13.702-65.535c-.857-4.101-4.061-7.305-8.161-8.162l-65.535-13.702 20.842-63.608c1.302-3.972.132-8.342-2.98-11.132l-49.84-44.687 49.839-44.687c3.112-2.79 4.282-7.159 2.98-11.131l-20.842-63.609 65.535-13.702c4.101-.857 7.305-4.061 8.162-8.161l13.702-65.535 63.608 20.842c3.975 1.302 8.342.132 11.132-2.98l44.687-49.84 44.688 49.841c2.791 3.112 7.162 4.282 11.13 2.978l63.61-20.842 3.789 18.134c.848 4.051 4.827 6.65 8.867 5.801 4.051-.847 6.648-4.817 5.802-8.867l-4.806-22.992c-.613-2.932-2.451-5.472-5.044-6.971-2.591-1.498-5.711-1.823-8.557-.89l-65.571 21.485-46.059-51.37c-1.997-2.227-4.858-3.504-7.849-3.504s-5.852 1.277-7.849 3.504l-46.059 51.37-65.57-21.485c-2.844-.932-5.964-.608-8.556.89-2.593 1.498-4.431 4.038-5.045 6.969l-14.123 67.549-67.55 14.123c-2.931.614-5.472 2.452-6.97 5.045-1.498 2.592-1.822 5.711-.89 8.556l21.485 65.57-51.37 46.06c-2.226 1.997-3.503 4.858-3.503 7.849s1.277 5.852 3.504 7.849l51.37 46.059-21.485 65.57c-.933 2.845-.608 5.964.89 8.556 1.498 2.593 4.038 4.431 6.97 5.045l67.549 14.123 14.123 67.55c.614 2.931 2.452 5.472 5.045 6.969 2.593 1.498 5.711 1.822 8.556.89l65.57-21.485 46.06 51.37c1.997 2.226 4.857 3.503 7.848 3.503s5.852-1.277 7.849-3.504l46.06-51.37 65.568 21.485c2.847.932 5.966.608 8.558-.89s4.431-4.039 5.043-6.969l14.125-67.549 67.55-14.124c2.931-.613 5.471-2.452 6.969-5.044 1.498-2.593 1.823-5.711.89-8.556l-21.484-65.57 51.367-46.058c2.228-1.997 3.506-4.858 3.506-7.85s-1.279-5.853-3.505-7.849z"/><path d="m210.436 238.161v-18.886c0-4.138-3.355-7.492-7.492-7.492s-7.493 3.354-7.493 7.492v18.886c0 4.138 3.355 7.492 7.493 7.492s7.492-3.354 7.492-7.492z"/><path d="m316.549 238.161v-18.886c0-4.138-3.354-7.492-7.493-7.492s-7.492 3.354-7.492 7.492v18.886c0 4.138 3.354 7.492 7.492 7.492s7.493-3.354 7.493-7.492z"/><path d="m256 337.991c19.033 0 35.877-12.12 41.913-30.159 1.313-3.924-.804-8.17-4.728-9.483-3.92-1.313-8.17.803-9.483 4.728-3.989 11.92-15.122 19.929-27.703 19.929-12.582 0-23.715-8.01-27.702-19.931-1.313-3.924-5.559-6.041-9.483-4.729-3.924 1.313-6.041 5.558-4.729 9.483 6.037 18.041 22.881 30.162 41.915 30.162z"/></g></g></g></svg>