<?xml version="1.0" encoding="UTF-8" standalone="no"?>
<svg
   xmlns:dc="http://purl.org/dc/elements/1.1/"
   xmlns:cc="http://creativecommons.org/ns#"
   xmlns:rdf="http://www.w3.org/1999/02/22-rdf-syntax-ns#"
   xmlns:svg="http://www.w3.org/2000/svg"
   xmlns="http://www.w3.org/2000/svg"
   xmlns:sodipodi="http://sodipodi.sourceforge.net/DTD/sodipodi-0.dtd"
   xmlns:inkscape="http://www.inkscape.org/namespaces/inkscape"
   inkscape:export-ydpi="96"
   inkscape:export-xdpi="96"
   inkscape:export-filename="C:\Users\andre\Documents\Webseitenentwicklung\Udemy\github\Animation-Nation\Art\andreasGZ\sprite.png"
   sodipodi:docname="sprite.svg"
   width="900"
   height="100"
   viewBox="0 0 238.12502 26.458333"
   version="1.1"
   id="svg8"
   inkscape:version="1.0 (4035a4fb49, 2020-05-01)">
  <defs
     id="defs2">
    <inkscape:path-effect
       lpeversion="1"
       is_visible="true"
       id="path-effect890"
       effect="spiro" />
    <inkscape:path-effect
       lpeversion="1"
       is_visible="true"
       id="path-effect869"
       effect="spiro" />
    <inkscape:path-effect
       lpeversion="1"
       is_visible="true"
       id="path-effect834"
       effect="spiro" />
  </defs>
  <sodipodi:namedview
     inkscape:window-maximized="1"
     inkscape:window-y="-9"
     inkscape:window-x="-9"
     inkscape:window-height="1001"
     inkscape:window-width="1920"
     id="base"
     pagecolor="#ffffff"
     bordercolor="#666666"
     borderopacity="1.0"
     inkscape:pageopacity="0.0"
     inkscape:pageshadow="2"
     inkscape:zoom="0.70710678"
     inkscape:cx="506.31096"
     inkscape:cy="-215.04999"
     inkscape:document-units="mm"
     inkscape:current-layer="layer1"
     inkscape:document-rotation="0"
     showgrid="false"
     units="px"
     inkscape:pagecheckerboard="true"
     borderlayer="true"
     objecttolerance="4"
     guidetolerance="4" />
  <metadata
     id="metadata5">
    <rdf:RDF>
      <cc:Work
         rdf:about="">
        <dc:format>image/svg+xml</dc:format>
        <dc:type
           rdf:resource="http://purl.org/dc/dcmitype/StillImage" />
        <dc:title />
        <cc:license
           rdf:resource="http://artlibre.org/licence/lal" />
      </cc:Work>
      <cc:License
         rdf:about="http://artlibre.org/licence/lal">
        <cc:permits
           rdf:resource="http://creativecommons.org/ns#Reproduction" />
        <cc:permits
           rdf:resource="http://creativecommons.org/ns#Distribution" />
        <cc:permits
           rdf:resource="http://creativecommons.org/ns#DerivativeWorks" />
        <cc:requires
           rdf:resource="http://creativecommons.org/ns#ShareAlike" />
        <cc:requires
           rdf:resource="http://creativecommons.org/ns#Notice" />
        <cc:requires
           rdf:resource="http://creativecommons.org/ns#Attribution" />
      </cc:License>
    </rdf:RDF>
  </metadata>
  <g
     inkscape:label="Ebene 1"
     inkscape:groupmode="layer"
     id="layer1">
    <path
       sodipodi:nodetypes="cccccc"
       id="path830"
       d="m 5.953125,25.112536 c 4.400527,-3.176699 4.69793,-13.222273 4.683652,-23.7896193 l 5.552409,0.040805 C 15.241939,15.00286 17.283226,21.483263 20.505208,25.135417 14.595567,23.924079 10.266047,24.508873 5.953125,25.112525 Z"
       style="fill:#602e1c;fill-opacity:1;stroke-width:0.2;stroke-linecap:square;paint-order:markers fill stroke" />
    <g
       style="stroke-width:1.40931"
       transform="matrix(0.71219627,0,0,0.70695065,-1.3828308,-11.937405)"
       id="g863">
      <path
         style="fill:#822c19;fill-opacity:1;stroke-width:0.281861;stroke-linecap:square;paint-order:markers fill stroke"
         d="m 57.1689,30.427083 c 0.161025,-4.915028 0.05285,-7.822432 -0.850448,-11.670015 l -2.031622,0.236235 c 3.330757,4.281538 2.128585,8.128696 1.181175,12.37872 z"
         id="path859"
         sodipodi:nodetypes="ccccc" />
      <path
         style="fill:#dd1313;fill-opacity:1;stroke-width:0.281861;stroke-linecap:square;paint-order:markers fill stroke"
         d="m 56.39387,29.266012 c -13.671031,-6.90449 -17.354575,15.245745 -2.672696,22.717912 1.522443,0.592725 2.308705,-0.3789 4.243127,-0.571455 1.7304,-0.172246 2.065353,1.775327 4.042228,0.705089 C 78.263466,40.389973 70.2318,21.629737 56.39387,29.266012 Z"
         id="path857"
         sodipodi:nodetypes="ccscc" />
    </g>
    <path
       sodipodi:nodetypes="ccscscscc"
       id="path865"
       d="m 55.702443,9.590471 c 4.652611,-3.5115213 6.153453,1.229032 6.153453,1.229032 0,0 0.412732,-5.0478114 6.228493,-4.0821431 5.815763,0.9656684 3.339373,5.8817981 3.339373,5.8817981 0,0 5.965846,-6.0573741 6.603704,2.238595 0.637858,8.29597 -11.331354,1.185139 -11.331354,1.185139 0,0 0.572069,5.858456 -6.266016,3.028687 -5.515595,-2.282489 -1.876052,-5.003917 -1.876052,-5.003917 -4.312625,3.983888 -5.637047,-2.206768 -2.851601,-4.477191 z"
       style="fill:#e7f5fc;fill-opacity:1;stroke-width:0.2;stroke-linecap:square;paint-order:markers fill stroke" />
    <g
       style="stroke-width:3.75709"
       transform="matrix(-0.27814861,0,0,0.25469459,125.81694,8.794145)"
       id="g880">
      <path
         style="fill:#ffffff;fill-opacity:1;stroke-width:0.75142;stroke-linecap:square;paint-order:markers fill stroke"
         d="M 89.252645,18.251735 C 126.49957,17.112816 151.28411,6.7306253 125.2512,0.79188311 151.222,11.490093 107.93732,15.25925 89.252645,18.251735 Z"
         id="path871"
         sodipodi:nodetypes="ccc" />
      <path
         sodipodi:nodetypes="ccc"
         id="path873"
         d="M 81.357389,18.887205 C 133.67113,24.881193 182.90512,1.6097332 142.73353,9.4896977 174.26628,5.5746179 129.25539,20.659463 81.357389,18.887205 Z"
         style="fill:#ffffff;fill-opacity:1;stroke-width:0.75142;stroke-linecap:square;paint-order:markers fill stroke" />
      <path
         sodipodi:nodetypes="ccc"
         id="path875"
         d="M 98.561539,22.564693 C 159.15709,14.315697 157.75531,33.291387 126.91261,34.034311 159.50629,28.788271 147.53335,18.27299 98.561539,22.564693 Z"
         style="fill:#ffffff;fill-opacity:1;stroke-width:0.75142;stroke-linecap:square;paint-order:markers fill stroke" />
    </g>
    <path
       id="path882"
       d="m 112.3477,7.7041122 c 0,0 -1.86785,-1.6602509 0.97453,-2.6400711 2.84238,-0.9798201 2.89652,1.1703409 2.89652,1.1703409 0,0 -0.0541,-1.0070375 0.78504,-0.7620824 0.83918,0.2449549 0.37899,0.6804306 0.37899,0.6804306 0,0 2.38218,-2.7761572 3.89812,-2.0685092 1.51593,0.7076478 0.75797,2.6945055 0.75797,2.6945055 0,0 0.73089,-1.0886891 1.59714,-0.7348652 0.86626,0.3538239 0.40606,1.2792098 0.40606,1.2792098 0,0 5.22457,-4.3003221 6.68637,0.7892996 1.46179,5.0896213 -4.22297,6.3688313 -4.22297,6.3688313 0,0 1.81371,0.544344 0.64968,1.905206 -1.16402,1.360861 -1.51593,0 -1.51593,0 0,0 -0.37899,7.920214 -6.74051,5.715618 -6.36152,-2.204595 -5.44113,-6.069442 -5.44113,-6.069442 0,0 -1.05574,1.850772 -1.86785,0.816517 -0.81211,-1.034254 0.62262,-1.823555 0.62262,-1.823555 0,0 -6.74051,2.095727 -4.65609,-2.259029 2.08441,-4.3547569 4.81851,-3.2388504 4.81851,-3.2388504 0,0 -2.21977,-0.5715617 -1.48887,-1.524165 0.7309,-0.9526028 1.4618,-0.2993894 1.4618,-0.2993894 z"
       style="fill:#78ff92;fill-opacity:1;stroke-width:0.2;stroke-linecap:square;paint-order:markers fill stroke" />
    <path
       sodipodi:nodetypes="cscscscsccccsc"
       style="fill:#78ff92;fill-opacity:1;stroke-width:0.2;stroke-linecap:square;paint-order:markers fill stroke"
       d="m 138.59054,17.416378 c 0,0 -1.90971,1.666886 0.99636,2.650621 2.90607,0.983735 2.96141,-1.175018 2.96141,-1.175018 0,0 -0.0553,1.011061 0.80263,0.765128 0.85798,-0.245934 0.38749,-0.683149 0.38749,-0.683149 0,0 2.43556,2.78725 3.98545,2.076774 1.5499,-0.710475 0.77496,-2.705273 0.77496,-2.705273 0,0 0.74726,1.093039 1.63292,0.737803 0.88568,-0.355238 0.41517,-1.284322 0.41517,-1.284322 0,0 5.34162,4.317506 6.83618,-0.792454 1.26948,-19.8340707 -25.38155,-9.5441485 -23.69137,-4.672745 2.13111,4.372159 4.92647,3.251793 4.92647,3.251793 0,0 -2.26951,0.573846 -1.52223,1.530255 0.74727,0.95641 1.49456,0.300587 1.49456,0.300587 z"
       id="path884" />
    <path
       sodipodi:nodetypes="cccccccccccccc"
       id="path892"
       d="m 170.3285,18.232191 c -0.42818,-0.64215 -1.98883,-0.425255 -4.46515,-0.02405 1.36837,-0.630632 2.88267,-0.892086 4.46515,-0.721591 -0.71993,-1.202289 -2.38383,-1.819374 -4.96392,-1.443182 1.94213,-0.683813 3.79023,-0.977188 5.10641,0.938068 0.90806,-2.389706 -1.98906,-5.820921 -3.15885,-8.7793527 1.50111,2.9043997 4.26668,5.4768057 4.25139,8.7793527 0.1613,-2.288741 0.52753,-4.0932 1.06879,-5.484089 -0.26685,1.784481 -0.57466,3.582794 -0.47502,5.243559 1.43116,-4.015673 3.7504,-3.814122 6.43645,-3.944696 -4.06353,0.389672 -4.69052,1.321106 -6.15145,4.473863 1.67038,-1.674284 3.54421,-0.705339 4.4889,0.04811 -0.19855,0.184619 -1.87932,-2.301852 -4.5364,0.938068 -0.41686,-0.27289 -1.52562,-0.127358 -2.0663,-0.02405 z"
       style="fill:#00d128;fill-opacity:1;stroke-width:0.2;stroke-linecap:square;paint-order:markers fill stroke" />
    <g
       style="stroke-width:0.749147"
       transform="matrix(1.2944219,0.26249302,-0.25652749,1.3245236,-51.870492,-54.530546)"
       id="g932">
      <g
         style="stroke-width:0.749147"
         id="g920"
         transform="rotate(6.5851503,193.82608,16.516694)">
        <path
           sodipodi:nodetypes="cccc"
           id="path916"
           d="m 200.45495,16.602604 v 0.529167 c 2.41079,-0.127886 4.10807,-0.295098 0.99218,-0.727604 -0.31743,-0.01362 -0.59418,-0.271348 -0.99218,0.198437 z"
           style="fill:#020223;fill-opacity:1;stroke-width:0.149829;stroke-linecap:square;paint-order:markers fill stroke" />
        <path
           sodipodi:nodetypes="cccccc"
           id="path914"
           d="m 193.82608,16.516668 c 1.84064,1.531073 3.89796,-0.910441 6.00048,-4.18047 0.30996,1.055052 0.70015,4.260053 0.62839,4.266406 l 0.99218,-0.198437 c 0.0766,-6.052593 -1.18504,-6.9766237 -5.68854,-2.248958 z"
           style="fill:#060771;fill-opacity:1;stroke-width:0.149829;stroke-linecap:square;paint-order:markers fill stroke" />
      </g>
      <g
         style="stroke-width:0.749147"
         id="g912"
         transform="rotate(9.3950663,192.76932,11.479869)">
        <rect
           transform="rotate(-12.521726)"
           y="49.969227"
           x="188.89317"
           height="2.029578"
           width="0.4009043"
           id="rect904"
           style="fill:#231f02;fill-opacity:1;stroke-width:0.149829;stroke-linecap:square;paint-order:markers fill stroke" />
        <path
           sodipodi:nodetypes="ccc"
           id="path898"
           d="m 194.63412,16.276599 c -9.17302,-9.979786 -2.52152,-5.845466 1.85245,-2.407544 z"
           style="fill:#ccf223;fill-opacity:1;stroke-width:0.149829;stroke-linecap:square;paint-order:markers fill stroke" />
        <ellipse
           ry="1.9711127"
           rx="1.9209996"
           cy="9.1205721"
           cx="190.57986"
           id="path894"
           style="fill:#fcf6cc;fill-opacity:1;stroke-width:0.149829;stroke-linecap:square;paint-order:markers fill stroke" />
        <path
           sodipodi:nodetypes="cccc"
           id="path896"
           d="m 188.77581,9.922381 3.72506,-1.169304 c 4.69764,-1.3821538 2.44575,-1.6816619 -0.10022,-0.9688521 -1.71292,-2.3227135 -4.64399,-0.6655476 -3.62484,2.1381561 z"
           style="fill:#070e78;fill-opacity:1;stroke-width:0.149829;stroke-linecap:square;paint-order:markers fill stroke" />
        <path
           sodipodi:nodetypes="ccccc"
           id="path900"
           d="m 191.84654,11.362909 3.16555,0.118115 0.49609,-1.9371283 0.77958,-0.1181175 c -0.57251,3.9127748 -1.33067,3.0022798 -4.44122,1.9371308 z"
           style="fill:#ccf223;fill-opacity:1;stroke-width:0.149829;stroke-linecap:square;paint-order:markers fill stroke" />
        <path
           sodipodi:nodetypes="cccccc"
           id="path902"
           d="m 195.50818,9.5438957 c -0.38466,-0.6742371 -0.59234,-1.2972759 0.0749,-0.3801014 l 0.26367,-0.1691721 -0.0388,-0.4796351 c 0.29279,0.1661897 0.71272,0.3356264 0.47988,0.910791 -0.13865,0.121988 -0.48797,0.2609325 -0.77965,0.1181176 z"
           style="fill:#fcf6cc;fill-opacity:1;stroke-width:0.149829;stroke-linecap:square;paint-order:markers fill stroke" />
      </g>
    </g>
    <rect
       style="fill:#a7eeff;stroke-width:0.2;stroke-linecap:square;paint-order:markers fill stroke;fill-opacity:1"
       id="rect861"
       width="26.458334"
       height="26.458334"
       x="211.66667"
       y="0" />
    <path
       style="fill:#33ff9b;fill-opacity:1;stroke-width:0.2;stroke-linecap:square;paint-order:markers fill stroke"
       d="m 211.66667,26.458333 c 1.36791,-7.874726 18.98942,-13.764717 26.45833,0 z"
       id="path863"
       sodipodi:nodetypes="ccc" />
  </g>
</svg>
