<?xml version="1.0" encoding="UTF-8"?>
<svg id="Laag_1" data-name="Laag 1" xmlns="http://www.w3.org/2000/svg" xmlns:xlink="http://www.w3.org/1999/xlink" viewBox="0 0 582.36 220.93">
  <defs>
    <style>
      .cls-1 {
        fill: #65907d;
      }

      .cls-2 {
        fill: #65a77d;
      }

      .cls-3 {
        fill: #e4ba79;
      }

      .cls-4 {
        fill: #b96e88;
      }

      .cls-5 {
        fill: url(#Naamloos_verloop_22);
        fill-rule: evenodd;
      }

      .cls-6 {
        fill: #f49d8a;
      }

      .cls-7 {
        fill: #b67e6d;
      }

      .cls-8 {
        fill: #cf746c;
      }

      .cls-9 {
        fill: #b7c6af;
      }

      .cls-10 {
        fill: #95aba7;
      }

      .cls-11 {
        fill: #f8dea7;
      }

      .cls-12 {
        fill: #dcc89a;
      }

      .cls-13 {
        fill: #fcd083;
      }

      .cls-14 {
        fill: #d99a6d;
      }

      .cls-15 {
        fill: #f67f6f;
      }

      .cls-16 {
        fill: #a05c79;
      }

      .cls-17 {
        fill: #dc867b;
      }
    </style>
    <linearGradient id="Naamloos_verloop_22" data-name="Naamloos verloop 22" x1="289.85" y1="46.95" x2="289.85" y2="225.14" gradientUnits="userSpaceOnUse">
      <stop offset="0" stop-color="#fbb78a"/>
      <stop offset=".29" stop-color="#f8b488"/>
      <stop offset=".5" stop-color="#efaa83"/>
      <stop offset=".69" stop-color="#df9b7a"/>
      <stop offset=".86" stop-color="#ca856d"/>
      <stop offset="1" stop-color="#b26c5f"/>
    </linearGradient>
  </defs>
  <path class="cls-5" d="M12.06,220.93h52.93l11.46,3.41,24.17-3.41h107.85l40.96,4.05,8.54-4.05h34.62l5.16,2.65,15.32-2.65h48.18l27.71,3.96-1.19-3.26,11.61-.71h66.61l12.67,4.2,27.7-4.2h65.11l-35.36-34.25-35.49-5.97-10.57-25.09-23.64-20.15-7.48-18.8-55.84-14.09-14.95-21.7-35.83-6.17-18.33-17.62-28.33-10.13-52.5,6.61-13.66,16.01-43.33,6.17-8.33,22.9-36.35,13.94-15.4,25.38-61.26,11.62-9.38,25.74-17.29,13.46-13.67,16.39-22.39,15.77ZM8.24,220.93"/>
  <g>
    <path class="cls-6" d="M115.3,145.25c6.7-6.76,11.01-12.51,13.61-22.03.6-2.19,2.16-6.93.86-9.18-.65-.49-1.16-.74-1.93-.82-2.42-.26-5.19.72-7.29,1.43-8.59,2.92-16.16,7.01-22.57,12.89-.3-4.03-.54-8.81-2.84-12.67-.66-1.12-1.71-2.44-3.03-2.84-.82-.25-1.58-.07-2.21.3-5.29,3.07-8.29,16.65-8.87,22.56-.24.97-.51,2.22-1.53,2.63-.32.13-.48-.06-.79-.22-1.11-1.81-.75-2.36-.98-4.21-.65-4.52-4.33-11.46-8.13-14.81-1.13-1-2.5-1.92-3.97-2-1.37-.08-2.51.56-3.32,1.44-3.65,3.92-4.69,14.39-3.75,20.11.49,2.99,1.34,5.97,2.17,8.95-2.06,1.41-4.32,3.01-4.38,5.81-.04,1.94,1.12,3.82,2.56,5.36,4.09,4.37,10.09,6.69,14.67,10.46,1.43-1.28,5.22-1.16,2.32,2.08,2.59,4.02,8.29,14.08,12.31,16.39,1.53.88,3.29,1.28,4.84.88,2.77-.7,3.8-3.33,4.88-5.58,7.06,2.44,21.01,5.6,27.66,3.91.91-.23,1.61-.48,1.93-1.37.48-1.35-.22-3.3-.88-4.68-3.41-7.13-11.57-11.3-18.39-14.67,8.27-3.66,19.81-5.39,26.67-10.81,1.02-.81,2.3-2.03,2.11-3.54-.1-.84-.69-1.59-1.39-2.16-4.86-3.95-14.92-3.78-20.34-3.61Z"/>
    <path class="cls-17" d="M108.62,135.55c-1.75,1.26-28.41,27.48-30.16,28.74-1.73,1.24-3.29,2.71-4.87,4.12-4.28,4.31-16.13,15.97-15.63,22.43l.99.42c2.54-1.35,6.55-8.93,8.64-11.6,2.51-3.21,5.29-6.42,8.32-9.17,2.9-3.24,30.62-31.02,32.71-34.94Z"/>
  </g>
  <g>
    <path class="cls-15" d="M252.86,35.19c3.92-8.88,5.93-15.92,4.95-25.93-.23-2.3-.46-7.39-2.52-9.06-.8-.23-1.37-.28-2.13-.08-2.4.63-4.68,2.57-6.42,4.02-7.12,5.9-12.85,12.55-16.81,20.48-1.75-3.72-3.72-8.19-7.32-11.04-1.04-.82-2.52-1.7-3.92-1.6-.87.06-1.53.51-2,1.09-3.92,4.85-1.84,18.87-.25,24.71.13,1.01.32,2.3-.5,3.06-.26.24-.48.11-.83.07-1.72-1.32-1.58-1.98-2.47-3.65-2.27-4.07-8.29-9.34-13.13-11.15-1.44-.54-3.08-.92-4.51-.46-1.34.43-2.18,1.45-2.64,2.58-2.05,5.06.77,15.41,3.74,20.51,1.56,2.67,3.45,5.2,5.32,7.74-1.45,2.09-3.02,4.44-2.06,7.13.67,1.87,2.45,3.23,4.39,4.18,5.48,2.67,12.04,2.7,17.78,4.63.9-1.74,4.55-3,2.97,1.14,3.93,2.88,13.02,10.39,17.68,11.13,1.78.28,3.6.02,4.93-.92,2.38-1.67,2.41-4.55,2.62-7.09,7.61-.24,22.05-2.31,27.77-6.33.78-.55,1.36-1.04,1.34-2.01-.03-1.46-1.41-3.07-2.54-4.14-5.84-5.55-15.13-6.55-22.85-7.28,6.54-6.49,16.91-12.33,21.47-19.99.68-1.14,1.45-2.77.72-4.14-.4-.76-1.23-1.26-2.11-1.55-6.06-2-15.59,1.82-20.69,3.96Z"/>
    <path class="cls-8" d="M242.97,28.39c-1.21,1.83-17.06,36.51-18.28,38.34-1.2,1.81-2.15,3.78-3.14,5.69-2.51,5.66-9.55,21.07-6.73,27.04l1.1.04c1.93-2.21,2.99-10.89,4.01-14.19,1.23-3.97,2.71-8.04,4.59-11.76,1.58-4.14,17.89-40.69,18.45-45.17Z"/>
  </g>
  <g>
    <path class="cls-11" d="M543.03,163.64c3.21.84,2.63,2.66-.52,2.05-1.58,4.45-4.44,8.67-7.59,11.96-2.97,3.11-9,8.86-13.66,8.5-.81-.06-1.6-.44-2.1-1.15-1.34-1.88-.87-4.23-.65-6.32-3.54,2.49-7.07,4.62-11.19,5.97-2.97.97-7.23,2.27-10.22.47-1.05-.64-1.98-1.69-2.32-2.94-.58-2.18.43-4.48,1.4-6.27-1,.12-2,.25-3.01.29-9.71.38-20.84-7.08-27.93-13.85-1.31-1.25-2.82-2.7-2.96-4.63.56-2.04,2.37-3.4,3.86-4.69,6.78-5.91,15.48-9.64,24.54-8.49l-.18-.41c-.28-.62-.58-1.24-.78-1.89-.49-1.58-.82-3.75-.05-5.24.58-1.12,1.64-1.67,2.8-1.91,6.94-1.39,16.68,3.61,22.43,7.69-.37-2.05-.84-4.34.14-6.22.43-.82,1.14-1.36,2.01-1.55,2.87-.63,7.32,2.44,9.68,4.1,8.48,5.94,14.02,14.2,16.29,24.55Z"/>
    <path class="cls-12" d="M543.03,163.64c3.21.84,12.55,3.42,14.17,6.4.23.42-.03.68-.17,1.08l-.65.52c-1.49-.37-3.21-1.72-4.62-2.48-2.88-1.55-6.09-2.85-9.25-3.47-2.53-.99-5.56-1.44-8.2-1.96-16.84-3.29-40.68-3.54-47.1-4.99,10.99-.44,38.89.68,55.82,4.9Z"/>
  </g>
  <g>
    <path class="cls-4" d="M14.1,186.56c-3.31-1.55-2.32-3.4.98-2.11,2.59-4.5,6.53-8.5,10.6-11.43,3.83-2.77,11.5-7.79,16.48-6.47.86.23,1.64.8,2.05,1.67,1.08,2.3.1,4.75-.56,6.97,4.33-1.98,8.58-3.59,13.3-4.22,3.41-.46,8.28-1.02,11.16,1.53,1.01.9,1.81,2.23,1.92,3.64.19,2.47-1.36,4.76-2.77,6.51,1.11.06,2.22.13,3.31.29,10.58,1.52,21.14,11.82,27.47,20.57,1.17,1.61,2.51,3.49,2.28,5.61-1.02,2.1-3.25,3.21-5.11,4.31-8.52,5.04-18.67,7.35-28.25,4.29l.11.47c.18.72.38,1.46.46,2.2.22,1.81.14,4.23-1,5.68-.85,1.1-2.11,1.48-3.41,1.5-7.79.12-17.34-7.24-22.74-12.8-.01,2.3.05,4.87-1.39,6.71-.63.8-1.5,1.24-2.48,1.28-3.24.11-7.43-4.1-9.66-6.37-7.99-8.12-12.34-18.16-12.74-29.82Z"/>
    <path class="cls-16" d="M14.1,186.56c-3.31-1.55-12.9-6.21-14.05-9.76-.16-.5.16-.73.4-1.13l.8-.43c1.54.7,3.13,2.5,4.51,3.61,2.81,2.26,6.02,4.3,9.32,5.6,2.54,1.58,5.73,2.67,8.48,3.76,17.57,6.92,43.32,11.95,49.98,14.8-11.98-1.71-41.95-8.49-59.44-16.44Z"/>
  </g>
  <g>
    <path class="cls-14" d="M256.52,46.54l.24.29c2.14-1.72,4.26-3.06,6.61-3.97,9.18-3.56,19.05.08,25.83,4.94,11.67,8.35,18.76,22.95,23.68,38.27.99,3.07,2.44,6.45,2.68,9.9-.15.29-.33.7-.53.96-1.76,2.25-6.97,2.49-9.08,2.69-16.37,1.57-33.49-2.72-43.42-16.02-7.2-9.64-9.02-20.23-7.11-34.71"/>
    <path class="cls-7" d="M293.67,83.84v-.02s-.32-.24-.32-.24c-2.55-1.88-5.51-3.19-8.11-5.01-1.13-.78-2.24-1.6-3.32-2.44-1.09-.85-2.15-1.72-3.2-2.63-1.04-.91-2.07-1.84-3.07-2.81-1-.97-1.98-1.96-2.93-2.98-.95-1.02-1.89-2.07-2.79-3.15-.91-1.08-1.79-2.19-2.65-3.32-.86-1.13-1.69-2.29-2.5-3.48-.81-1.19-1.62-2.34-2.44-3.61-.64-.81-3.2-4.68-3.95-5.51-2.18-3.03-10.96-11.94-15.17-12.17-.44.11-.55.53-.8.95l-.23,1.59c.97,1.04,2.86,1.71,4.12,2.39,2.55,1.39,6.26,4.34,8.41,6.69,1.92,1.92,5.08,6.3,6.7,8.73h0c.75,1.27,2.32,3.56,3,4.49,6.91,9.46,14.06,15.83,24.15,20.58,1.46.69,3,1.25,4.43,1.98l.32-.34-.28.35c.29-.08.4-.16.66-.06Z"/>
  </g>
  <g>
    <path class="cls-11" d="M231.59,94.25l.27.26c1.94-1.88,3.9-3.38,6.12-4.48,8.68-4.32,18.68-1.64,25.77,2.51,12.19,7.13,20.46,20.81,26.66,35.38,1.24,2.92,2.97,6.1,3.52,9.46-.12.3-.26.72-.43.99-1.53,2.36-6.61,3.07-8.65,3.46-15.9,3.02-33.07.36-44.01-11.78-7.93-8.8-10.66-19.02-10.1-33.39"/>
    <path class="cls-12" d="M271.37,127.46v-.02s-.34-.21-.34-.21c-2.67-1.61-5.69-2.63-8.41-4.18-1.18-.67-2.34-1.36-3.48-2.09-1.14-.73-2.27-1.49-3.37-2.29-1.11-.79-2.19-1.62-3.26-2.48-1.07-.86-2.12-1.74-3.15-2.66-1.03-.92-2.04-1.86-3.02-2.84-.99-.98-1.95-1.98-2.9-3.01-.94-1.03-1.87-2.09-2.76-3.18-.9-1.09-1.8-2.15-2.72-3.32-.7-.74-3.56-4.3-4.37-5.04-2.41-2.77-11.82-10.72-15.97-10.56-.42.15-.49.57-.7,1l-.08,1.58c1.04.93,2.96,1.42,4.25,1.97,2.63,1.13,6.53,3.69,8.85,5.8,2.06,1.71,5.55,5.72,7.36,7.96h0c.85,1.17,2.59,3.28,3.34,4.13,7.63,8.65,15.21,14.25,25.53,18,1.49.54,3.06.95,4.53,1.54l.29-.36-.24.37c.28-.11.38-.2.64-.12Z"/>
  </g>
  <g>
    <path class="cls-13" d="M185.84,117.65c2.59-2.05,1.34-3.48-1.29-1.66-3.21-3.43-7.5-6.15-11.69-7.9-3.95-1.65-11.74-4.5-15.85-2.32-.71.38-1.28,1.04-1.46,1.89-.48,2.25.89,4.2,1.93,6.03-4.23-.86-8.3-1.4-12.59-.99-3.1.29-7.51.8-9.52,3.64-.71,1-1.14,2.33-.95,3.61.34,2.22,2.18,3.91,3.78,5.17-.96.28-1.93.57-2.86.94-9.01,3.52-16.2,14.76-19.99,23.77-.7,1.66-1.5,3.59-.86,5.41,1.33,1.64,3.52,2.16,5.39,2.75,8.54,2.69,17.97,2.64,25.79-2.02v.44c-.01.68-.03,1.36.04,2.04.18,1.64.75,3.75,2.04,4.8.98.79,2.16.88,3.32.63,6.89-1.49,13.8-9.94,17.42-15.95.48,2.02.96,4.3,2.61,5.63.72.58,1.58.79,2.45.61,2.88-.57,5.71-5.14,7.21-7.6,5.37-8.8,7.15-18.55,5.1-28.9Z"/>
    <path class="cls-3" d="M185.84,117.65c2.59-2.05,10.1-8.12,10.38-11.49.04-.47-.3-.61-.59-.92l-.8-.21c-1.22.94-2.24,2.85-3.23,4.11-2.01,2.57-4.43,5.03-7.06,6.85-1.92,1.92-4.5,3.53-6.71,5.06-14.07,9.71-35.73,19.43-41.02,23.31,10.21-3.97,35.24-16.1,49.02-26.7Z"/>
  </g>
  <g>
    <path class="cls-11" d="M196.52,173.95c5.83-6.54,10.87-10.82,19.47-13.75,1.98-.67,6.24-2.38,8.39-1.31.49.57.75,1.02.86,1.72.37,2.21-.37,4.81-.91,6.78-2.19,8.06-5.53,15.25-10.57,21.47,3.72.05,8.12,0,11.81,1.9,1.06.55,2.34,1.44,2.78,2.63.28.74.15,1.45-.15,2.05-2.53,5.04-14.83,8.56-20.23,9.43-.87.27-2.01.59-2.33,1.55-.1.3.08.43.25.71,1.72.92,2.21.56,3.92.67,4.2.35,10.77,3.33,14.07,6.63.98.98,1.9,2.19,2.06,3.53.15,1.26-.38,2.33-1.14,3.13-3.4,3.58-12.96,5.12-18.27,4.58-2.78-.28-5.57-.9-8.35-1.49-1.18,1.97-2.52,4.14-5.09,4.35-1.78.15-3.57-.81-5.08-2.05-4.25-3.51-6.72-8.89-10.44-12.89,1.09-1.38.77-4.86-2.04-2.01-3.84-2.16-13.41-6.83-15.75-10.39-.9-1.36-1.36-2.95-1.09-4.4.49-2.58,2.84-3.68,4.85-4.8-2.64-6.35-6.33-18.99-5.16-25.2.16-.85.35-1.51,1.15-1.85,1.21-.52,3.05.02,4.35.54,6.74,2.73,11.03,10,14.52,16.07,2.9-7.81,3.83-18.51,8.43-25.12.68-.98,1.74-2.23,3.14-2.14.78.05,1.5.54,2.06,1.15,3.9,4.24,4.32,13.5,4.47,18.49Z"/>
    <path class="cls-12" d="M205.8,179.55c-1.06,1.68-23.65,27.66-24.71,29.34-1.04,1.66-2.3,3.18-3.51,4.7-3.72,4.18-13.76,15.72-19.73,15.63l-.44-.89c1.1-2.41,7.84-6.52,10.17-8.59,2.81-2.49,5.6-5.23,7.96-8.17,2.81-2.85,26.78-29.9,30.26-32.03Z"/>
  </g>
  <g>
    <path class="cls-9" d="M467.93,186.53c1.14-8.33,1.12-14.68-2.1-22.78-.74-1.86-2.15-6.04-4.27-6.94-.72,0-1.21.09-1.8.44-1.84,1.1-3.28,3.27-4.38,4.88-4.51,6.62-7.68,13.53-9.08,21.09-2.35-2.68-5.06-5.93-8.74-7.43-1.06-.43-2.5-.81-3.65-.39-.71.26-1.15.79-1.4,1.39-2.1,4.98,3,16.15,5.73,20.64.35.81.82,1.84.32,2.67-.16.26-.37.21-.67.26-1.74-.68-1.79-1.27-2.93-2.45-2.87-2.85-9.14-5.79-13.61-6.14-1.33-.1-2.78-.02-3.86.7-1.01.68-1.47,1.73-1.58,2.78-.5,4.71,4.34,12.65,8.04,16.18,1.94,1.85,4.12,3.5,6.29,5.16-.7,2.09-1.45,4.42,0,6.43,1,1.39,2.82,2.1,4.66,2.43,5.21.91,10.67-.64,15.92-.41.33-1.66,3.07-3.59,2.74.24,3.96,1.46,13.34,5.53,17.4,5.02,1.55-.19,3-.85,3.88-1.95,1.58-1.97.92-4.37.48-6.53,6.28-2.03,17.8-7.21,21.61-11.94.52-.64.88-1.19.63-2-.38-1.21-1.91-2.21-3.11-2.84-6.19-3.22-14.17-1.82-20.77-.58,3.89-6.98,11.12-14.33,13.08-21.8.29-1.11.54-2.66-.39-3.62-.52-.54-1.33-.76-2.13-.79-5.53-.21-12.54,5.26-16.28,8.26Z"/>
    <path class="cls-10" d="M458.06,183.24c-.57,1.82-5.45,34.49-6.02,36.31-.56,1.8-.88,3.66-1.25,5.49-.73,5.32-2.9,19.84.88,24.13l.92-.23c1.08-2.3-.12-9.79-.07-12.77.07-3.6.33-7.34,1-10.9.32-3.82,5.13-38.17,4.52-42.04Z"/>
  </g>
  <g>
    <path class="cls-6" d="M410.14,222.4c2.69,1.28,3.34-.3.82-1.71,1.49-3.96,1.97-8.51,1.71-12.59-.24-3.85-1.05-11.27-4.45-13.72-.59-.42-1.35-.62-2.11-.43-2.01.51-3.04,2.4-4.1,3.96-.99-3.75-2.18-7.26-4.22-10.56-1.48-2.39-3.64-5.74-6.74-6.23-1.09-.17-2.34.01-3.29.68-1.66,1.16-2.29,3.32-2.66,5.11-.61-.66-1.23-1.33-1.9-1.94-6.44-5.87-18.38-7.19-27.16-6.65-1.62.1-3.49.22-4.71,1.47-.79,1.73-.34,3.7-.07,5.45,1.24,7.97,5.04,15.56,11.92,20l-.36.17c-.55.26-1.11.52-1.63.85-1.25.8-2.73,2.1-3.06,3.57-.25,1.11.16,2.09.82,2.93,3.95,4.96,13.53,7.17,19.82,7.69-1.44,1.2-3.09,2.49-3.5,4.35-.18.81,0,1.59.48,2.22,1.6,2.09,6.43,2.56,9.01,2.79,9.25.82,17.82-1.63,25.36-7.42Z"/>
    <path class="cls-17" d="M410.14,222.4c2.69,1.28,10.59,4.91,13.41,3.8.4-.16.38-.48.5-.84l-.14-.73c-1.24-.61-3.2-.67-4.61-.97-2.87-.6-5.83-1.56-8.34-2.97-2.31-.78-4.65-2.22-6.76-3.39-13.45-7.48-29.94-21.08-35.18-23.8,7.28,6.65,27.06,22.01,41.11,28.9Z"/>
  </g>
  <g>
    <path class="cls-15" d="M360.13,131.93c2.14-2.33.74-3.48-1.47-1.37-3.55-2.75-8.02-4.66-12.23-5.68-3.98-.96-11.76-2.46-15.31.22-.61.47-1.05,1.17-1.09,2-.11,2.2,1.48,3.83,2.74,5.39-4.12-.17-8.04-.06-12.03.98-2.88.75-6.96,1.9-8.43,4.89-.52,1.05-.72,2.38-.34,3.55.66,2.04,2.65,3.36,4.35,4.3-.86.41-1.73.83-2.56,1.32-7.97,4.69-13.04,16.4-15.24,25.47-.41,1.67-.87,3.61.01,5.23,1.5,1.34,3.65,1.5,5.5,1.77,8.47,1.24,17.36-.24,24.02-5.83l.06.42c.09.64.18,1.29.35,1.91.42,1.52,1.28,3.43,2.66,4.22,1.04.6,2.17.5,3.22.09,6.27-2.45,11.51-11.48,14.01-17.7.76,1.84,1.56,3.91,3.31,4.91.77.44,1.61.5,2.4.21,2.63-.97,4.61-5.72,5.65-8.26,3.73-9.12,3.93-18.59.42-28.05Z"/>
    <path class="cls-8" d="M360.13,131.93c2.14-2.33,8.29-9.2,8.05-12.42-.03-.45-.37-.53-.69-.77l-.78-.08c-1.01,1.07-1.68,3.03-2.42,4.37-1.51,2.73-3.41,5.42-5.62,7.53-1.52,2.1-3.71,4.02-5.56,5.79-11.8,11.3-30.76,23.77-35.16,28.23,9.03-5.3,30.8-20.56,42.19-32.65Z"/>
  </g>
  <g>
    <path class="cls-4" d="M180.22,126.85l.26.23c1.66-1.83,3.36-3.31,5.32-4.44,7.66-4.44,16.94-2.58,23.64.79,11.53,5.8,19.87,17.78,26.37,30.71,1.3,2.59,3.06,5.39,3.76,8.42-.09.28-.19.67-.34.93-1.25,2.24-5.85,3.18-7.69,3.66-14.33,3.68-30.14,2.25-40.81-8.18-7.74-7.56-10.83-16.72-11.15-29.86"/>
    <path class="cls-16" d="M218.43,154.82v-.02s-.32-.17-.32-.17c-2.53-1.31-5.34-2.06-7.91-3.32-1.11-.54-2.21-1.11-3.29-1.71-1.08-.6-2.15-1.23-3.21-1.89-1.05-.66-2.09-1.35-3.12-2.07-1.02-.72-2.03-1.47-3.02-2.24-.99-.78-1.97-1.58-2.92-2.41-.96-.83-1.9-1.69-2.82-2.58-.92-.89-1.82-1.8-2.71-2.74-.88-.94-1.76-1.85-2.67-2.87-.68-.63-3.5-3.71-4.28-4.34-2.36-2.38-11.4-9.09-15.18-8.7-.38.16-.41.54-.58.95l.02,1.44c1.01.79,2.78,1.12,3.99,1.55,2.46.88,6.17,2.99,8.41,4.78,1.97,1.44,5.39,4.89,7.17,6.83h0c.84,1.02,2.56,2.84,3.29,3.57,7.46,7.44,14.7,12.11,24.32,14.92,1.39.41,2.84.69,4.22,1.14l.24-.34-.2.35c.25-.11.33-.2.57-.14Z"/>
  </g>
  <g>
    <path class="cls-13" d="M298.32,213.45l.28-.22c1.6,2,3.26,3.65,5.21,4.96,7.63,5.11,17.36,3.8,24.52.77,12.32-5.23,21.75-17.07,29.35-30.02,1.52-2.59,3.53-5.37,4.46-8.46-.07-.29-.16-.71-.29-.98-1.15-2.4-5.84-3.69-7.71-4.3-14.58-4.76-31.04-4.34-42.79,5.74-8.52,7.31-12.33,16.58-13.54,30.15"/>
    <path class="cls-3" d="M339.74,187.06v.02s-.35.16-.35.16c-2.71,1.19-5.67,1.78-8.41,2.91-1.19.48-2.36,1-3.52,1.55-1.16.55-2.31,1.13-3.45,1.74-1.14.61-2.26,1.26-3.37,1.93-1.11.68-2.2,1.38-3.28,2.12-1.08.74-2.14,1.5-3.19,2.3-1.05.8-2.08,1.62-3.09,2.48-1.01.86-2.01,1.74-2.98,2.66-.98.91-1.95,1.8-2.96,2.79-.75.61-3.87,3.61-4.72,4.21-2.6,2.31-12.41,8.64-16.29,7.99-.38-.19-.39-.59-.54-1.03l.12-1.49c1.09-.75,2.96-.98,4.23-1.34,2.6-.74,6.58-2.68,9.02-4.38,2.14-1.36,5.91-4.7,7.88-6.59h0c.94-1,2.84-2.77,3.64-3.48,8.22-7.21,16.02-11.55,26.17-13.82,1.47-.33,2.99-.52,4.44-.9l.22.37-.18-.38c.25.13.33.23.59.19Z"/>
  </g>
  <g>
    <path class="cls-2" d="M226.21,192.16c-2.77-1.89-1.61-3.43,1.2-1.78,3.01-3.71,7.17-6.76,11.29-8.83,3.88-1.95,11.58-5.39,15.9-3.47.75.33,1.37.96,1.61,1.81.64,2.25-.61,4.32-1.53,6.24,4.22-1.17,8.31-2,12.69-1.89,3.17.08,7.67.28,9.91,3.02.79.96,1.32,2.29,1.21,3.59-.18,2.27-1.93,4.12-3.46,5.5.99.22,1.99.44,2.97.75,9.38,2.93,17.46,13.82,21.93,22.68.82,1.63,1.77,3.53,1.25,5.42-1.23,1.75-3.42,2.44-5.27,3.16-8.47,3.33-18.03,3.94-26.28-.23l.03.45c.06.68.13,1.38.1,2.07-.07,1.67-.49,3.86-1.73,5.01-.94.87-2.13,1.04-3.32.87-7.09-1.03-14.68-9.1-18.78-14.94-.35,2.08-.67,4.43-2.24,5.89-.69.64-1.54.91-2.44.8-2.95-.37-6.15-4.8-7.84-7.19-6.06-8.54-8.55-18.29-7.21-28.93Z"/>
    <path class="cls-1" d="M226.21,192.16c-2.77-1.89-10.81-7.52-11.33-10.91-.07-.48.26-.64.53-.97l.79-.27c1.3.86,2.48,2.73,3.57,3.94,2.22,2.46,4.84,4.79,7.64,6.44,2.08,1.81,4.81,3.26,7.15,4.65,14.94,8.85,37.58,17.18,43.21,20.74-10.62-3.31-36.85-13.84-51.56-23.61Z"/>
  </g>
  <g>
    <path class="cls-2" d="M174.49,80.56c-5.11-6.39-8.26-11.7-9.6-20.08-.31-1.93-1.21-6.12.11-7.92.6-.36,1.06-.53,1.72-.53,2.09,0,4.37,1.09,6.1,1.9,7.07,3.28,13.17,7.47,18.11,13.09.63-3.41,1.28-7.48,3.6-10.57.67-.89,1.69-1.93,2.85-2.15.73-.14,1.36.09,1.86.46,4.24,3.11,5.55,14.99,5.51,20.1.11.85.23,1.94,1.07,2.39.26.14.41,0,.69-.12,1.12-1.44.86-1.95,1.23-3.51.98-3.81,4.75-9.39,8.31-11.91,1.06-.75,2.31-1.41,3.58-1.34,1.18.06,2.09.71,2.71,1.54,2.76,3.69,2.68,12.73,1.35,17.53-.7,2.51-1.7,4.98-2.68,7.45,1.63,1.39,3.42,2.97,3.21,5.37-.14,1.66-1.31,3.16-2.68,4.35-3.9,3.36-9.24,4.79-13.5,7.59-1.1-1.22-4.35-1.47-2.17,1.56-2.58,3.19-8.38,11.27-12.03,12.87-1.39.61-2.93.79-4.22.31-2.3-.85-2.94-3.19-3.66-5.22-6.26,1.44-18.47,2.85-24,.8-.75-.28-1.33-.56-1.52-1.35-.29-1.2.49-2.8,1.18-3.92,3.57-5.78,10.93-8.59,17.06-10.84-6.73-3.89-16.44-6.42-21.8-11.69-.8-.78-1.78-1.95-1.48-3.22.17-.71.73-1.29,1.39-1.72,4.51-2.93,13.1-1.86,17.72-1.22Z"/>
    <path class="cls-1" d="M181.09,72.89c1.38,1.24,21.75,26.1,23.14,27.33,1.37,1.22,2.56,2.62,3.78,3.97,3.26,4.08,12.31,15.13,11.3,20.6l-.89.27c-2.05-1.39-4.78-8.24-6.31-10.71-1.85-2.97-3.93-5.97-6.27-8.6-2.18-3.03-23.32-29.33-24.74-32.87Z"/>
  </g>
  <g>
    <path class="cls-4" d="M454.53,130.44c-4.67,6.48-8.81,10.85-16.24,14.41-1.71.82-5.38,2.81-7.38,2.09-.48-.45-.75-.83-.91-1.44-.52-1.93-.07-4.33.25-6.15,1.29-7.43,3.67-14.21,7.65-20.32-3.32.37-7.25.9-10.7-.39-.99-.37-2.2-1.02-2.7-2.04-.31-.63-.26-1.27-.04-1.84,1.84-4.77,12.53-9.27,17.28-10.64.76-.34,1.74-.75,1.95-1.64.06-.28-.11-.38-.28-.61-1.61-.63-2.02-.25-3.56-.16-3.77.16-9.89-1.78-13.11-4.36-.96-.77-1.88-1.74-2.13-2.92-.24-1.11.14-2.12.75-2.92,2.74-3.57,11.15-6,15.93-6.1,2.51-.05,5.04.18,7.58.41.89-1.89,1.91-3.97,4.19-4.45,1.58-.33,3.26.33,4.7,1.27,4.08,2.66,6.74,7.19,10.39,10.34-.86,1.36-.28,4.42,1.99,1.57,3.61,1.5,12.54,4.61,14.93,7.52.91,1.11,1.46,2.48,1.33,3.8-.22,2.36-2.23,3.6-3.93,4.82,2.89,5.37,7.23,16.24,6.7,21.91-.07.77-.19,1.38-.88,1.78-1.04.6-2.72.32-3.93,0-6.24-1.69-10.68-7.69-14.3-12.73-1.94,7.28-1.88,16.93-5.44,23.33-.53.95-1.37,2.18-2.62,2.25-.7.04-1.38-.32-1.94-.8-3.84-3.35-4.98-11.56-5.53-16Z"/>
    <path class="cls-16" d="M445.77,126.47c.8-1.62,18.82-27.28,19.62-28.9.79-1.6,1.79-3.09,2.74-4.58,2.97-4.14,10.98-15.54,16.31-16.12l.47.74c-.78,2.27-6.46,6.68-8.37,8.79-2.3,2.53-4.57,5.28-6.43,8.16-2.27,2.85-21.43,29.62-24.36,31.91Z"/>
  </g>
  <g>
    <path class="cls-14" d="M139.01,198.65c6.61,5.72,10.96,10.68,14.01,19.21.7,1.96,2.47,6.19,1.44,8.34-.56.5-1.01.76-1.71.89-2.2.41-4.8-.29-6.77-.8-8.07-2.06-15.29-5.28-21.58-10.21,0,3.71.12,8.1-1.71,11.8-.53,1.07-1.4,2.35-2.58,2.82-.74.29-1.44.17-2.04-.12-5.06-2.44-8.76-14.66-9.71-20.03-.29-.87-.62-1.99-1.59-2.3-.3-.1-.43.09-.7.26-.89,1.73-.52,2.22-.6,3.92-.28,4.19-3.16,10.8-6.4,14.14-.96.99-2.16,1.93-3.49,2.11-1.25.17-2.33-.34-3.14-1.08-3.62-3.33-5.31-12.85-4.85-18.15.24-2.78.81-5.57,1.36-8.35-1.98-1.15-4.17-2.45-4.42-5.01-.18-1.78.75-3.58,1.97-5.09,3.44-4.29,8.76-6.84,12.7-10.62,1.4,1.07,4.86.69,1.98-2.07,2.09-3.86,6.6-13.48,10.12-15.87,1.34-.91,2.92-1.4,4.37-1.15,2.58.45,3.72,2.78,4.86,4.76,6.29-2.73,18.84-6.61,25.05-5.54.85.15,1.51.32,1.87,1.12.54,1.2.03,3.04-.48,4.35-2.62,6.77-9.8,11.16-15.8,14.73,7.83,2.77,18.52,3.53,25.18,8.02.99.67,2.25,1.7,2.18,3.09-.04.78-.52,1.5-1.12,2.08-4.17,3.96-13.4,4.52-18.37,4.74Z"/>
    <path class="cls-7" d="M133.57,208c-1.69-1.03-27.95-23.16-29.65-24.19-1.67-1.01-3.2-2.25-4.75-3.43-4.23-3.64-15.89-13.48-15.9-19.43l.88-.46c2.42,1.05,6.63,7.72,8.73,10.01,2.53,2.76,5.3,5.5,8.27,7.81,2.88,2.76,30.23,26.25,32.42,29.68Z"/>
  </g>
  <g>
    <path class="cls-9" d="M355.2,29.05c3.16-1.25,2.35-3.03-.78-2.02-2.14-4.33-5.57-8.28-9.17-11.25-3.4-2.8-10.23-7.92-14.93-6.99-.81.16-1.57.64-2,1.43-1.14,2.08-.37,4.41.11,6.51-3.91-2.1-7.76-3.84-12.11-4.71-3.14-.63-7.63-1.44-10.46.76-.99.77-1.81,1.96-2,3.27-.33,2.29.99,4.5,2.19,6.21-1.03,0-2.07-.01-3.1.07-9.92.79-20.35,9.73-26.75,17.48-1.18,1.43-2.54,3.09-2.45,5.07.82,2.01,2.83,3.17,4.49,4.31,7.62,5.19,16.92,7.94,26,5.67l-.13.43c-.21.66-.44,1.33-.56,2.02-.31,1.67-.38,3.92.59,5.34.73,1.07,1.87,1.5,3.08,1.6,7.23.58,16.54-5.7,21.89-10.54-.13,2.14-.33,4.52.9,6.32.54.78,1.32,1.24,2.23,1.33,3,.3,7.15-3.37,9.36-5.34,7.9-7.08,12.55-16.15,13.61-26.96Z"/>
    <path class="cls-10" d="M355.2,29.05c3.16-1.25,12.36-5,13.64-8.23.18-.45-.11-.69-.31-1.08l-.72-.45c-1.48.56-3.06,2.14-4.4,3.09-2.75,1.93-5.85,3.64-8.99,4.65-2.46,1.32-5.48,2.14-8.11,2.99-16.74,5.39-40.97,8.53-47.33,10.79,11.23-.88,39.49-5.4,56.22-11.75Z"/>
  </g>
  <g>
    <path class="cls-6" d="M356.61,114l-.36-.02c.07-2.56-.13-4.9-.78-7.15-2.53-8.83-10.8-14.12-18.24-16.43-12.79-3.97-27.65-1.02-41.82,3.96-2.84,1-6.17,1.82-8.88,3.59-.13.27-.34.64-.42.94-.68,2.58,2.08,6.59,3.11,8.27,8.06,13.06,20.91,23.38,36.4,23.27,11.23-.08,20.13-4.7,29.83-14.28"/>
    <path class="cls-17" d="M307.92,107.39h.01s.37.09.37.09c2.84.84,5.48,2.3,8.3,3.21,1.22.4,2.45.76,3.69,1.1,1.24.33,2.49.63,3.76.9,1.26.27,2.54.5,3.82.7,1.28.2,2.57.37,3.87.5,1.3.13,2.61.23,3.92.3,1.31.07,2.64.1,3.96.1,1.33,0,2.66-.03,4-.1,1.34-.07,2.65-.11,4.06-.22.96.02,5.29-.26,6.32-.16,3.48-.09,15.06,1.42,17.61,4.43.17.39-.08.7-.25,1.13l-1.05,1.06c-1.32-.14-2.89-1.17-4.1-1.71-2.47-1.12-6.76-2.21-9.72-2.48-2.51-.34-7.55-.23-10.28-.06h0c-1.36.16-3.96.28-5.03.3-10.93.19-19.7-1.53-28.93-6.36-1.34-.7-2.62-1.53-3.97-2.18l.07-.43-.1.41c-.1-.26-.11-.39-.33-.52Z"/>
  </g>
  <g>
    <path class="cls-15" d="M566.24,195.73l-.33.16c-1.22-2.37-2.58-4.39-4.3-6.11-6.74-6.76-16.92-7.42-24.84-5.79-13.63,2.81-25.66,12.96-36.04,24.61-2.08,2.33-4.7,4.76-6.27,7.72.01.32.01.75.09,1.06.68,2.69,5.2,4.95,6.99,5.96,13.89,7.83,30.76,10.76,44.79,2.88,10.18-5.71,15.95-14.38,19.96-27.97"/>
    <path class="cls-8" d="M518.64,214.18v-.02s.39-.09.39-.09c3-.66,6.14-.66,9.16-1.25,1.31-.25,2.61-.54,3.91-.86,1.3-.32,2.59-.68,3.87-1.07,1.28-.39,2.56-.82,3.82-1.28,1.27-.46,2.53-.96,3.77-1.49,1.25-.53,2.49-1.1,3.72-1.7,1.23-.6,2.45-1.23,3.65-1.9,1.21-.67,2.4-1.37,3.58-2.1,1.18-.73,2.35-1.44,3.59-2.24.88-.47,4.68-2.89,5.67-3.32,3.12-1.82,14.41-6.28,18.24-4.82.35.27.28.68.34,1.16l-.42,1.5c-1.27.54-3.21.39-4.59.5-2.81.22-7.26,1.39-10.09,2.62-2.46.95-6.98,3.59-9.38,5.11h0c-1.16.83-3.46,2.25-4.42,2.8-9.85,5.67-18.69,8.5-29.5,8.74-1.56.04-3.15-.08-4.71.01l-.15-.42.11.42c-.23-.19-.29-.3-.56-.31Z"/>
  </g>
  <g>
    <path class="cls-2" d="M450.73,146.66l-.3.17c-1.29-2.17-2.68-4-4.4-5.54-6.74-6.02-16.4-6.07-23.79-4.08-12.72,3.42-23.52,13.68-32.68,25.26-1.84,2.32-4.17,4.76-5.5,7.64.03.3.06.71.15,1,.79,2.5,5.19,4.39,6.93,5.24,13.56,6.63,29.66,8.45,42.48.23,9.3-5.97,14.27-14.48,17.3-27.54"/>
    <path class="cls-1" d="M406.78,166.75v-.02s.36-.1.36-.1c2.8-.79,5.76-.96,8.59-1.69,1.22-.31,2.44-.65,3.64-1.03,1.21-.38,2.41-.79,3.6-1.23,1.19-.44,2.37-.92,3.54-1.42,1.17-.51,2.33-1.05,3.48-1.62,1.15-.57,2.29-1.18,3.42-1.81,1.13-.64,2.24-1.3,3.35-2,1.1-.7,2.19-1.43,3.27-2.18,1.08-.76,2.14-1.49,3.26-2.32.81-.49,4.26-2.99,5.17-3.46,2.85-1.9,13.27-6.73,16.96-5.57.35.24.3.63.39,1.07l-.32,1.44c-1.17.58-3.01.55-4.31.73-2.64.37-6.78,1.72-9.39,3.04-2.27,1.03-6.4,3.78-8.58,5.35h0c-1.05.85-3.14,2.31-4.02,2.9-8.99,5.9-17.18,9.07-27.39,9.91-1.48.12-2.98.1-4.45.27l-.17-.39.13.39c-.22-.16-.29-.27-.55-.26Z"/>
  </g>
  <g>
    <path class="cls-9" d="M232.38,143.24l.35.22c1.61-2.5,3.33-4.6,5.42-6.33,8.2-6.8,19.58-6.45,28.2-3.79,14.84,4.57,27.12,17.12,37.42,31.16,2.06,2.81,4.71,5.78,6.15,9.24-.05.35-.1.83-.22,1.17-1.04,2.91-6.3,4.94-8.39,5.87-16.26,7.22-35.3,8.69-50.05-1.55-10.7-7.43-16.19-17.67-19.2-33.19"/>
    <path class="cls-10" d="M283.3,168.79v-.02s-.42-.14-.42-.14c-3.26-1.05-6.75-1.38-10.04-2.36-1.43-.42-2.84-.87-4.25-1.37-1.41-.49-2.8-1.03-4.18-1.6-1.38-.57-2.75-1.18-4.11-1.83-1.36-.65-2.7-1.33-4.03-2.06-1.33-.72-2.65-1.48-3.95-2.28-1.3-.8-2.59-1.63-3.86-2.5-1.27-.87-2.52-1.77-3.76-2.71-1.24-.94-2.46-1.84-3.75-2.87-.93-.61-4.89-3.71-5.94-4.29-3.27-2.36-15.34-8.5-19.75-7.29-.42.27-.38.73-.5,1.25l.31,1.71c1.35.73,3.53.78,5.04,1.04,3.09.55,7.92,2.31,10.93,3.99,2.63,1.32,7.38,4.72,9.87,6.67h0c1.2,1.04,3.6,2.86,4.62,3.58,10.33,7.34,19.85,11.42,31.84,12.84,1.73.21,3.51.25,5.23.51l.22-.45-.17.46c.27-.18.36-.3.65-.28Z"/>
  </g>
  <g>
    <path class="cls-13" d="M369.48,47.32c-4.11-7.91-8.01-13.4-15.75-18.44-1.78-1.16-5.56-3.91-7.94-3.39-.62.44-.99.82-1.28,1.48-.92,2.08-.84,4.83-.81,6.91.14,8.5,1.62,16.42,5.03,23.82-3.68-.88-8.01-2.03-12.12-1.09-1.19.27-2.66.83-3.4,1.89-.46.66-.51,1.39-.37,2.06,1.23,5.6,12.48,12.16,17.58,14.37.79.49,1.83,1.09,1.91,2.12.02.32-.19.41-.42.64-1.93.47-2.32,0-4.04-.33-4.22-.71-11.46.58-15.54,3.01-1.21.72-2.42,1.68-2.92,2.97-.46,1.2-.21,2.4.33,3.37,2.45,4.38,11.49,8.3,16.86,9.09,2.81.42,5.71.51,8.61.63.67,2.24,1.45,4.71,3.93,5.57,1.72.59,3.73.1,5.52-.75,5.07-2.4,8.85-7.08,13.53-10.09-.73-1.64.46-4.98,2.52-1.47,4.32-1.16,14.93-3.37,18.14-6.29,1.22-1.12,2.08-2.57,2.17-4.06.17-2.67-1.88-4.34-3.58-5.95,4.2-5.6,11.01-17.13,11.41-23.55.05-.87.03-1.57-.67-2.12-1.07-.82-3.01-.75-4.43-.55-7.33,1-13.39,7.09-18.34,12.2-.9-8.42.87-19.21-2.01-26.88-.43-1.14-1.16-2.63-2.56-2.89-.78-.15-1.61.16-2.32.62-4.91,3.2-7.64,12.23-9.04,17.11Z"/>
    <path class="cls-3" d="M358.92,50.52c.62,1.92,16.38,33.2,17,35.12.61,1.9,1.47,3.71,2.28,5.52,2.62,5.05,9.63,18.95,15.53,20.36l.66-.76c-.47-2.65-6.09-8.4-7.87-11.02-2.14-3.16-4.21-6.56-5.8-10.05-2.06-3.51-18.91-36.19-21.8-39.17Z"/>
  </g>
  <g>
    <path class="cls-14" d="M415.72,94.41c2.17-2.19,3.36-.88,1.4,1.37,2.85,3.33,4.91,7.59,6.1,11.65,1.12,3.83,2.95,11.35.5,14.93-.42.62-1.1,1.08-1.9,1.16-2.14.21-3.8-1.26-5.38-2.41.35,4,.43,7.83-.39,11.77-.6,2.84-1.53,6.87-4.37,8.44-1,.55-2.28.81-3.44.5-2.02-.54-3.4-2.43-4.39-4.04-.36.86-.73,1.73-1.17,2.55-4.2,7.98-15.37,13.47-24.11,16.04-1.61.47-3.48,1.01-5.1.23-1.38-1.4-1.63-3.49-1.98-5.28-1.61-8.2-.57-16.92,4.56-23.68l-.41-.04c-.63-.06-1.26-.11-1.88-.25-1.5-.34-3.4-1.08-4.24-2.39-.63-.99-.59-2.09-.23-3.14,2.1-6.23,10.65-11.75,16.59-14.47-1.82-.66-3.88-1.34-4.94-3-.46-.73-.56-1.54-.31-2.33.82-2.61,5.35-4.76,7.79-5.89,8.71-4.06,17.93-4.69,27.31-1.72Z"/>
    <path class="cls-7" d="M415.72,94.41c2.17-2.19,8.58-8.51,11.72-8.42.44.01.54.34.79.64l.12.76c-.99,1.03-2.87,1.78-4.14,2.57-2.59,1.6-5.12,3.58-7.08,5.83-1.97,1.58-3.74,3.8-5.38,5.69-10.46,12.02-21.73,31.08-25.87,35.57,4.74-9.04,18.59-30.96,29.85-42.63Z"/>
  </g>
</svg>