<?xml version="1.0" encoding="UTF-8"?>
<svg id="Laag_1" data-name="Laag 1" xmlns="http://www.w3.org/2000/svg" viewBox="0 0 180.66 162.55">
  <defs>
    <style>
      .cls-1 {
        fill: #e4ba79;
      }

      .cls-2 {
        fill: #fcd083;
      }
    </style>
  </defs>
  <path class="cls-2" d="M160.03,34.51c5.49-6.07,1.84-9.04-3.85-3.52-9.25-7.05-20.85-11.91-31.8-14.47-10.32-2.41-30.52-6.15-39.65.87-1.58,1.22-2.7,3.06-2.79,5.21-.23,5.69,3.91,9.9,7.19,13.92-10.67-.35-20.83,0-31.14,2.77-7.45,2-18,5.06-21.74,12.82-1.31,2.73-1.81,6.17-.82,9.19,1.74,5.28,6.93,8.65,11.35,11.06-2.23,1.09-4.47,2.19-6.6,3.46C19.65,88.13,6.73,118.55,1.21,142.1c-1.02,4.33-2.18,9.38.13,13.56,3.92,3.45,9.48,3.82,14.29,4.49,21.96,3.05,44.95-.96,62.11-15.56l.18,1.08c.26,1.65.49,3.34.95,4.95,1.12,3.92,3.37,8.86,6.97,10.88,2.72,1.53,5.64,1.25,8.35.16,16.2-6.48,29.58-29.95,35.93-46.12,2.01,4.74,4.11,10.1,8.68,12.66,1.99,1.12,4.17,1.27,6.23.49,6.79-2.57,11.82-14.9,14.47-21.52,9.48-23.7,9.8-48.22.54-72.65Z"/>
  <path class="cls-1" d="M160.03,34.51c5.49-6.07,21.3-23.99,20.61-32.32-.1-1.17-.97-1.38-1.81-1.99l-2.03-.2c-2.58,2.79-4.3,7.88-6.2,11.36-3.86,7.1-8.73,14.11-14.42,19.62-3.89,5.47-9.53,10.48-14.29,15.11-30.34,29.5-79.21,62.17-90.51,73.81,23.27-13.9,79.36-53.84,108.64-85.4Z"/>
</svg>