<?xml version="1.0" encoding="UTF-8"?>
<svg id="Laag_1" data-name="Laag 1" xmlns="http://www.w3.org/2000/svg" viewBox="0 0 195.13 182.98">
  <defs>
    <style>
      .cls-1 {
        fill: #b67e6d;
      }

      .cls-2 {
        fill: #d99a6d;
      }
    </style>
  </defs>
  <path class="cls-2" d="M144.56,99.39c17.16,14.83,28.43,27.7,36.35,49.83,1.82,5.09,6.41,16.06,3.72,21.64-1.45,1.29-2.62,1.97-4.42,2.31-5.7,1.06-12.46-.76-17.57-2.07-20.94-5.35-39.67-13.68-55.97-26.48.02,9.62.32,21.02-4.44,30.62-1.37,2.77-3.62,6.1-6.69,7.3-1.91.75-3.74.45-5.3-.31-13.13-6.33-22.73-38.02-25.2-51.96-.74-2.25-1.62-5.17-4.12-5.97-.78-.25-1.12.23-1.83.68-2.31,4.49-1.36,5.75-1.56,10.18-.73,10.87-8.18,28.01-16.59,36.67-2.5,2.58-5.59,5.01-9.06,5.47-3.25.43-6.05-.88-8.15-2.81-9.4-8.64-13.77-33.32-12.58-47.07.62-7.2,2.1-14.44,3.52-21.66-5.14-2.97-10.81-6.35-11.47-13-.46-4.61,1.95-9.28,5.1-13.21,8.91-11.13,22.73-17.74,32.93-27.54,3.63,2.77,12.6,1.79,5.13-5.37,5.42-10.02,17.12-34.96,26.24-41.17,3.48-2.37,7.58-3.63,11.33-2.99,6.7,1.16,9.64,7.2,12.62,12.35C112.87,7.75,145.42-2.31,161.54.48c2.19.38,3.92.84,4.84,2.91,1.39,3.12.08,7.89-1.23,11.29-6.79,17.55-25.42,28.95-40.99,38.2,20.31,7.18,48.04,9.16,65.32,20.8,2.57,1.73,5.83,4.41,5.66,8.03-.09,2.01-1.34,3.9-2.91,5.38-10.81,10.27-34.75,11.71-47.66,12.31Z"/>
  <path class="cls-1" d="M130.44,123.64c-4.39-2.67-72.51-60.08-76.9-62.74-4.34-2.63-8.31-5.83-12.31-8.89C30.27,42.56,0,17.04,0,1.61L2.27.42c6.28,2.74,17.19,20.02,22.63,25.96,6.56,7.16,13.75,14.28,21.45,20.26,7.47,7.16,78.42,68.08,84.09,76.99Z"/>
</svg>