<?xml version="1.0" encoding="UTF-8"?>
<svg id="Laag_1" data-name="Laag 1" xmlns="http://www.w3.org/2000/svg" viewBox="0 0 188.02 157.88">
  <defs>
    <style>
      .cls-1 {
        fill: #65907d;
      }

      .cls-2 {
        fill: #65a77d;
      }
    </style>
  </defs>
  <path class="cls-2" d="M22.25,33.6c-5.79-5.78-2.3-8.93,3.66-3.71,8.88-7.52,20.21-12.96,31.01-16.08,10.18-2.94,30.16-7.71,39.64-1.16,1.64,1.13,2.85,2.92,3.05,5.06.53,5.67-3.39,10.08-6.47,14.27,10.64-.9,20.81-1.07,31.24,1.17,7.55,1.61,18.23,4.12,22.37,11.69,1.45,2.66,2.13,6.07,1.29,9.14-1.46,5.36-6.48,9-10.77,11.63,2.28.97,4.57,1.95,6.77,3.12,21.16,11.23,35.62,40.95,42.34,64.18,1.24,4.28,2.66,9.25.56,13.55-3.74,3.65-9.27,4.3-14.04,5.21-21.78,4.18-44.94,1.35-62.83-12.35l-.12,1.09c-.17,1.66-.31,3.36-.69,4.99-.92,3.97-2.91,9.02-6.4,11.22-2.63,1.67-5.57,1.53-8.33.59-16.51-5.64-31.08-28.39-38.26-44.21-1.76,4.84-3.59,10.3-8.02,13.09-1.93,1.22-4.1,1.48-6.2.81-6.91-2.22-12.57-14.27-15.56-20.74-10.69-23.18-12.27-47.65-4.27-72.53Z"/>
  <path class="cls-1" d="M22.25,33.6C16.46,27.82-.26,10.73,0,2.38.04,1.21.9.96,1.71.3l2.02-.3c2.72,2.65,4.7,7.65,6.77,11.03,4.22,6.89,9.44,13.64,15.41,18.86,4.17,5.26,10.05,9.97,15.04,14.35,31.81,27.9,82.3,58.02,94.18,69.06-23.96-12.69-82.03-49.69-112.88-79.7Z"/>
</svg>