<?xml version="1.0" encoding="UTF-8"?>
<svg id="Laag_1" data-name="Laag 1" xmlns="http://www.w3.org/2000/svg" viewBox="0 0 192.26 189.03">
  <defs>
    <style>
      .cls-1 {
        fill: #f49d8a;
      }

      .cls-2 {
        fill: #dc867b;
      }
    </style>
  </defs>
  <path class="cls-1" d="M140.44,79.42c15.97-16.11,26.22-29.8,32.41-52.47,1.42-5.21,5.15-16.51,2.05-21.87-1.54-1.17-2.76-1.76-4.59-1.96-5.76-.62-12.36,1.72-17.36,3.41-20.46,6.95-38.5,16.69-53.77,30.7-.72-9.59-1.3-20.98-6.78-30.19-1.58-2.66-4.08-5.81-7.23-6.77-1.96-.6-3.76-.16-5.26.71-12.61,7.32-19.75,39.66-21.13,53.75-.57,2.3-1.21,5.28-3.64,6.27-.75.31-1.13-.15-1.87-.53-2.65-4.3-1.8-5.63-2.34-10.03-1.56-10.78-10.31-27.29-19.36-35.29-2.69-2.38-5.96-4.56-9.46-4.76-3.27-.18-5.97,1.34-7.91,3.43C5.48,23.16,3.02,48.1,5.27,61.72c1.17,7.13,3.2,14.23,5.17,21.33C5.54,86.4.15,90.21,0,96.89c-.1,4.63,2.66,9.1,6.1,12.78,9.74,10.41,24.03,15.94,34.95,24.92,3.4-3.04,12.43-2.76,5.52,4.96,6.18,9.57,19.76,33.54,29.33,39.04,3.65,2.1,7.83,3.04,11.52,2.11,6.6-1.67,9.06-7.92,11.63-13.28,16.82,5.81,50.05,13.34,65.9,9.33,2.16-.55,3.84-1.14,4.6-3.27,1.15-3.21-.53-7.87-2.1-11.16-8.11-16.98-27.56-26.91-43.81-34.94,19.7-8.72,47.19-12.83,63.52-25.75,2.43-1.92,5.47-4.84,5.02-8.44-.25-2-1.64-3.79-3.31-5.14-11.57-9.41-35.54-9.01-48.46-8.61Z"/>
  <path class="cls-2" d="M124.5,56.32c-4.17,2.99-67.68,65.47-71.85,68.46-4.13,2.96-7.84,6.45-11.59,9.81-10.2,10.26-38.42,38.04-37.24,53.43l2.36,1c6.05-3.21,15.6-21.28,20.57-27.63,5.99-7.64,12.61-15.29,19.83-21.85,6.9-7.71,72.95-73.91,77.92-83.23Z"/>
</svg>