<?xml version="1.0" encoding="UTF-8"?>
<svg id="Laag_1" data-name="Laag 1" xmlns="http://www.w3.org/2000/svg" viewBox="0 0 237.15 122.68">
  <defs>
    <style>
      .cls-1 {
        fill: #b67e6d;
      }

      .cls-2 {
        fill: #d99a6d;
      }
    </style>
  </defs>
  <path class="cls-2" d="M43.08,38.37l.91.35c2.68-6.52,5.79-12.16,9.93-17.11C70.13,2.23,96.83-1.83,118.09.66c36.58,4.29,70.64,28.3,100.68,56.63,6.02,5.68,13.47,11.47,18.31,18.91.03.83.13,1.99,0,2.82-1.18,7.24-12.57,14.24-17.05,17.31-34.84,23.84-78.63,35.44-117.45,17.88-28.14-12.73-45.36-34.27-59.05-69.19"/>
  <path class="cls-1" d="M172.84,76.1v-.05s-1.05-.14-1.05-.14c-8.07-1.05-16.34-.33-24.45-1.19-3.51-.36-7.01-.81-10.5-1.37-3.49-.55-6.98-1.2-10.45-1.93-3.47-.74-6.93-1.57-10.38-2.5-3.45-.93-6.88-1.95-10.29-3.06-3.42-1.11-6.81-2.32-10.19-3.62-3.38-1.3-6.74-2.69-10.07-4.17-3.34-1.48-6.65-3.05-9.93-4.72-3.29-1.66-6.54-3.25-9.97-5.08-2.44-1.02-13-6.55-15.71-7.47-8.65-4.1-39.44-13.24-49.2-8.52-.86.8-.58,1.86-.63,3.13l1.46,3.85c3.46,1.13,8.56.29,12.22.27,7.45-.05,19.46,1.99,27.21,4.61,6.7,1.94,19.24,7.85,25.9,11.31h0c3.26,1.92,9.63,5.13,12.31,6.38,27.26,12.69,51.23,18.13,79.8,16.29,4.13-.27,8.3-.93,12.42-1.05l.31-1.15-.19,1.14c.55-.54.7-.86,1.4-.95Z"/>
</svg>