<?xml version="1.0" encoding="UTF-8"?>
<svg id="Laag_1" data-name="Laag 1" xmlns="http://www.w3.org/2000/svg" viewBox="0 0 228.64 128.7">
  <defs>
    <style>
      .cls-1 {
        fill: #65907d;
      }

      .cls-2 {
        fill: #65a77d;
      }
    </style>
  </defs>
  <path class="cls-2" d="M186.45,29.69l-.85.48c-3.59-6.06-7.49-11.19-12.31-15.49C154.44-2.14,127.44-2.28,106.76,3.27,71.19,12.83,40.98,41.53,15.37,73.92,10.23,80.41,3.7,87.22,0,95.29c.09.83.16,1.99.41,2.79,2.22,6.99,14.5,12.27,19.39,14.65,37.93,18.53,82.94,23.64,118.8.63,26-16.68,39.9-40.49,48.37-77.03"/>
  <path class="cls-1" d="M63.55,85.86v-.05s1.01-.29,1.01-.29c7.83-2.21,16.12-2.69,24.02-4.73,3.42-.87,6.81-1.82,10.19-2.88,3.38-1.05,6.73-2.2,10.06-3.43,3.33-1.24,6.63-2.56,9.91-3.98,3.28-1.42,6.52-2.93,9.74-4.53,3.22-1.6,6.4-3.29,9.56-5.06,3.15-1.78,6.27-3.64,9.36-5.59,3.09-1.95,6.13-3.99,9.14-6.11,3.01-2.12,6-4.16,9.13-6.48,2.27-1.37,11.91-8.36,14.46-9.67,7.96-5.31,37.1-18.83,47.44-15.57.97.66.84,1.76,1.08,3l-.89,4.02c-3.26,1.62-8.43,1.53-12.05,2.04-7.38,1.03-18.97,4.8-26.25,8.51-6.35,2.89-17.9,10.56-23.98,14.95h0c-2.94,2.37-8.78,6.47-11.25,8.1-25.13,16.51-48.05,25.37-76.59,27.7-4.13.34-8.35.29-12.45.77l-.47-1.1.36,1.1c-.62-.46-.82-.75-1.52-.73Z"/>
</svg>