<?xml version="1.0" encoding="UTF-8"?>
<svg id="Laag_1" data-name="Laag 1" xmlns="http://www.w3.org/2000/svg" viewBox="0 0 224.8 137.2">
  <defs>
    <style>
      .cls-1 {
        fill: #b96e88;
      }

      .cls-2 {
        fill: #a05c79;
      }
    </style>
  </defs>
  <path class="cls-1" d="M31.59,45.34c-7.41-3.48-5.19-7.63,2.19-4.73,5.81-10.08,14.64-19.03,23.75-25.62C66.11,8.78,83.3-2.47,94.44.49c1.93.51,3.67,1.78,4.58,3.73,2.41,5.16.22,10.64-1.26,15.61,9.71-4.44,19.22-8.04,29.79-9.47,7.65-1.03,18.55-2.28,25,3.43,2.27,2.01,4.05,4.99,4.3,8.16.44,5.54-3.06,10.66-6.2,14.58,2.48.15,4.96.29,7.43.65,23.71,3.41,47.36,26.49,61.55,46.08,2.61,3.61,5.63,7.81,5.11,12.56-2.28,4.7-7.27,7.18-11.45,9.65-19.08,11.29-41.84,16.46-63.3,9.62l.25,1.06c.4,1.62.84,3.27,1.04,4.93.48,4.05.31,9.47-2.23,12.73-1.92,2.46-4.72,3.32-7.64,3.37-17.44.27-38.84-16.21-50.95-28.67-.03,5.15.11,10.91-3.12,15.03-1.41,1.8-3.36,2.78-5.56,2.86-7.25.25-16.66-9.18-21.65-14.26-17.9-18.2-27.66-40.7-28.54-66.81Z"/>
  <path class="cls-2" d="M31.59,45.34C24.18,41.85,2.67,31.43.1,23.48c-.36-1.12.37-1.64.9-2.54l1.8-.96c3.46,1.57,7.01,5.61,10.1,8.09,6.3,5.06,13.5,9.64,20.88,12.54,5.7,3.54,12.83,5.99,19.01,8.42,39.37,15.5,97.07,26.77,111.99,33.15-26.84-3.84-94-19.03-133.19-36.84Z"/>
</svg>