<?xml version="1.0" encoding="UTF-8"?>
<svg id="Laag_1" data-name="Laag 1" xmlns="http://www.w3.org/2000/svg" viewBox="0 0 225.77 130.45">
  <defs>
    <style>
      .cls-1 {
        fill: #b7c6af;
      }

      .cls-2 {
        fill: #95aba7;
      }
    </style>
  </defs>
  <path class="cls-1" d="M41.83,27.71l.83.51c3.81-5.93,7.9-10.91,12.86-15.03C74.98-2.93,101.97-2.1,122.43,4.2c35.2,10.84,64.35,40.63,88.77,73.92,4.9,6.68,11.17,13.72,14.58,21.92-.12.83-.23,1.98-.51,2.78-2.47,6.9-14.94,11.73-19.91,13.94-38.58,17.14-83.75,20.61-118.74-3.69-25.37-17.62-38.41-41.92-45.54-78.73"/>
  <path class="cls-2" d="M162.61,88.31v-.05s-1-.33-1-.33c-7.74-2.49-16.01-3.28-23.83-5.6-3.38-.99-6.74-2.07-10.08-3.24-3.34-1.17-6.64-2.44-9.93-3.79-3.28-1.36-6.53-2.8-9.76-4.34-3.22-1.54-6.41-3.16-9.57-4.88-3.16-1.71-6.28-3.52-9.37-5.41-3.09-1.89-6.14-3.86-9.15-5.93-3.01-2.06-5.98-4.21-8.92-6.44-2.93-2.23-5.84-4.38-8.89-6.81-2.21-1.45-11.6-8.79-14.1-10.19C40.26,25.72,11.63,11.15,1.19,14.03.2,14.66.28,15.75,0,16.99l.74,4.05c3.2,1.74,8.37,1.84,11.97,2.48,7.34,1.3,18.78,5.48,25.92,9.46,6.24,3.12,17.5,11.21,23.42,15.81h0c2.86,2.47,8.54,6.79,10.95,8.5,24.52,17.41,47.1,27.1,75.53,30.47,4.11.49,8.33.59,12.41,1.22l.51-1.08-.4,1.09c.64-.43.85-.72,1.55-.68Z"/>
</svg>