<?xml version="1.0" encoding="UTF-8"?>
<svg id="Laag_1" data-name="Laag 1" xmlns="http://www.w3.org/2000/svg" viewBox="0 0 191.75 195.45">
  <defs>
    <style>
      .cls-1 {
        fill: #e4ba79;
      }

      .cls-2 {
        fill: #fcd083;
      }
    </style>
  </defs>
  <path class="cls-2" d="M52.6,117.47c-14.97,17.04-24.38,31.32-29.2,54.33-1.11,5.29-4.15,16.79-.73,21.95,1.61,1.08,2.86,1.59,4.7,1.68,5.79.27,12.24-2.46,17.13-4.45,20.01-8.16,37.43-18.98,51.83-33.87,1.3,9.53,2.56,20.87,8.58,29.73,1.74,2.56,4.42,5.55,7.62,6.32,1.99.48,3.76-.07,5.21-1.03,12.15-8.07,17.33-40.77,17.87-54.92.43-2.33.9-5.35,3.26-6.47.73-.35,1.14.08,1.9.42,2.9,4.13,2.13,5.51,2.94,9.87,2.2,10.67,11.93,26.63,21.44,34.06,2.83,2.21,6.22,4.2,9.72,4.18,3.28-.02,5.88-1.7,7.69-3.9,8.13-9.85,9.08-34.89,6.03-48.35-1.6-7.05-4.05-14.02-6.44-20.98,4.69-3.65,9.84-7.77,9.59-14.45-.18-4.63-3.2-8.92-6.86-12.39-10.35-9.81-24.94-14.47-36.39-22.78-3.21,3.24-12.24,3.5-5.81-4.61-6.74-9.18-21.74-32.29-31.62-37.2-3.77-1.87-8-2.56-11.63-1.41-6.48,2.06-8.57,8.45-10.81,13.96-17.14-4.79-50.76-10.31-66.34-5.35-2.12.68-3.76,1.37-4.4,3.54-.95,3.28,1,7.83,2.76,11.01,9.12,16.46,29.13,25.2,45.83,32.25-19.14,9.89-46.34,15.64-61.86,29.52-2.31,2.06-5.17,5.16-4.51,8.73.37,1.98,1.86,3.68,3.61,4.94,12.12,8.7,36.02,6.86,48.89,5.68Z"/>
  <path class="cls-1" d="M69.9,139.57c3.98-3.24,63.62-69.42,67.61-72.65,3.94-3.2,7.44-6.91,10.98-10.49,9.57-10.86,36.06-40.28,33.96-55.57l-2.42-.86c-5.85,3.57-14.3,22.18-18.88,28.81-5.52,7.99-11.67,16.02-18.48,23-6.43,8.11-68.38,78.16-72.78,87.76Z"/>
</svg>