<?xml version="1.0" encoding="UTF-8"?>
<svg id="Laag_1" data-name="Laag 1" xmlns="http://www.w3.org/2000/svg" viewBox="0 0 210.5 144.03">
  <defs>
    <style>
      .cls-1 {
        fill: #f8dea7;
      }

      .cls-2 {
        fill: #dcc89a;
      }
    </style>
  </defs>
  <path class="cls-1" d="M27.6,35.57c-6.75-4.63-3.9-8.36,2.92-4.32,7.36-9.02,17.51-16.44,27.55-21.47,9.47-4.75,28.24-13.09,38.76-8.38,1.82.81,3.34,2.35,3.92,4.42,1.55,5.48-1.5,10.53-3.75,15.21,10.29-2.83,20.26-4.85,30.93-4.56,7.71.21,18.68.73,24.12,7.41,1.91,2.35,3.2,5.58,2.94,8.75-.46,5.54-4.73,10.03-8.46,13.4,2.42.54,4.85,1.09,7.23,1.83,22.85,7.18,42.49,33.76,53.35,55.37,2,3.98,4.3,8.61,3.03,13.22-3.01,4.27-8.33,5.92-12.85,7.69-20.65,8.08-43.94,9.53-64.03-.67l.08,1.09c.13,1.67.31,3.36.23,5.03-.17,4.07-1.22,9.4-4.24,12.2-2.29,2.12-5.19,2.52-8.08,2.1-17.26-2.53-35.74-22.24-45.69-36.49-.85,5.08-1.65,10.78-5.49,14.33-1.68,1.55-3.76,2.2-5.95,1.93-7.2-.92-14.97-11.73-19.08-17.55-14.74-20.84-20.76-44.61-17.44-70.53Z"/>
  <path class="cls-2" d="M27.6,35.57C20.85,30.94,1.29,17.19.03,8.94c-.18-1.16.63-1.56,1.3-2.36l1.93-.66c3.16,2.11,6.02,6.66,8.67,9.61,5.4,6,11.78,11.68,18.59,15.73,5.06,4.41,11.7,7.97,17.41,11.37,36.37,21.62,91.51,42.02,105.21,50.71-25.87-8.1-89.72-33.88-125.54-57.75Z"/>
</svg>