<?xml version="1.0" encoding="UTF-8"?>
<svg id="Laag_1" data-name="Laag 1" xmlns="http://www.w3.org/2000/svg" viewBox="0 0 190.15 192.19">
  <defs>
    <style>
      .cls-1 {
        fill: #b7c6af;
      }

      .cls-2 {
        fill: #95aba7;
      }
    </style>
  </defs>
  <path class="cls-1" d="M78.56,52.03c-16.34-15.72-30.19-25.78-52.95-31.63-5.23-1.35-16.58-4.91-21.89-1.72-1.15,1.56-1.72,2.79-1.89,4.62-.53,5.77,1.9,12.33,3.67,17.31,7.25,20.36,17.26,38.25,31.49,53.31-9.58.86-20.96,1.61-30.08,7.22-2.63,1.62-5.74,4.16-6.66,7.33-.57,1.97-.11,3.76.79,5.25,7.51,12.5,39.95,19.15,54.05,20.33,2.31.53,5.3,1.14,6.32,3.55.32.75-.13,1.13-.51,1.88-4.26,2.71-5.6,1.88-9.99,2.49-10.76,1.72-27.14,10.72-35,19.88-2.34,2.72-4.48,6.03-4.62,9.53-.13,3.28,1.43,5.95,3.55,7.86,9.47,8.56,34.44,10.65,48.03,8.21,7.12-1.28,14.18-3.41,21.25-5.49,3.43,4.85,7.32,10.19,14,10.23,4.63.03,9.06-2.79,12.69-6.29,10.26-9.9,15.58-24.26,24.4-35.32-3.09-3.36-2.94-12.38,4.87-5.6,9.48-6.32,33.24-20.25,38.6-29.9,2.04-3.68,2.92-7.88,1.94-11.55-1.77-6.57-8.06-8.94-13.46-11.43,5.56-16.91,12.6-50.24,8.35-66.03-.58-2.15-1.2-3.82-3.34-4.55-3.23-1.1-7.86.64-11.13,2.26-16.85,8.36-26.5,27.96-34.29,44.32-9.01-19.57-13.53-47-26.69-63.14-1.96-2.4-4.92-5.4-8.51-4.9-2,.28-3.76,1.7-5.09,3.39-9.24,11.71-8.48,35.67-7.89,48.58Z"/>
  <path class="cls-2" d="M55.71,68.3c3.06,4.13,66.47,66.7,69.52,70.83,3.02,4.09,6.57,7.74,9.98,11.45,10.41,10.05,38.61,37.85,53.97,36.44l.97-2.37c-3.3-6.01-21.51-15.28-27.93-20.16-7.73-5.88-15.48-12.38-22.14-19.5-7.81-6.79-74.98-71.85-84.37-76.68Z"/>
</svg>