<?xml version="1.0" encoding="UTF-8"?>
<svg id="Laag_1" data-name="Laag 1" xmlns="http://www.w3.org/2000/svg" viewBox="0 0 185.88 192.25">
  <defs>
    <style>
      .cls-1 {
        fill: #cf746c;
      }

      .cls-2 {
        fill: #f67f6f;
      }
    </style>
  </defs>
  <path class="cls-2" d="M104.29,141.03c15.47,16.58,28.76,27.36,51.17,34.43,5.15,1.63,16.29,5.79,21.77,2.9,1.23-1.5,1.87-2.69,2.14-4.51.84-5.73-1.23-12.42-2.74-17.48-6.14-20.72-15.18-39.12-28.58-54.93,9.61-.35,21.02-.48,30.43-5.6,2.72-1.48,5.96-3.85,7.04-6.96.68-1.93.31-3.75-.51-5.29-6.82-12.88-38.86-21.28-52.88-23.21-2.28-.65-5.23-1.42-6.12-3.89-.28-.77.19-1.13.61-1.85,4.4-2.48,5.69-1.58,10.11-1.95,10.83-1.14,27.68-9.24,36.02-17.97,2.48-2.59,4.79-5.78,5.12-9.26.31-3.26-1.11-6.02-3.12-8.04-8.99-9.06-33.82-12.49-47.51-10.78-7.17.9-14.35,2.64-21.51,4.34C102.57,5.97,98.97.42,92.31.02c-4.62-.28-9.2,2.3-13.01,5.6-10.78,9.33-16.86,23.39-26.27,33.96,2.91,3.52,2.27,12.52-5.17,5.33-9.8,5.8-34.29,18.44-40.15,27.78-2.24,3.57-3.34,7.71-2.55,11.43,1.41,6.66,7.56,9.36,12.82,12.14-6.46,16.58-15.28,49.49-11.89,65.49.46,2.18.99,3.88,3.09,4.73,3.17,1.27,7.89-.22,11.23-1.66,17.28-7.45,27.96-26.49,36.62-42.41,7.95,20.02,10.98,47.66,23.26,64.48,1.82,2.5,4.63,5.66,8.24,5.35,2.01-.17,3.85-1.49,5.27-3.11,9.85-11.2,10.39-35.17,10.49-48.09Z"/>
  <path class="cls-1" d="M127.99,126.01c-2.83-4.28-62.79-70.18-65.61-74.47-2.79-4.24-6.14-8.08-9.35-11.97C43.17,28.98,16.52-.29,1.09.29L0,2.61c2.97,6.17,20.66,16.42,26.8,21.63,7.41,6.28,14.79,13.19,21.06,20.67,7.44,7.2,71.01,75.78,80.13,81.1Z"/>
</svg>