<?xml version="1.0" encoding="UTF-8"?>
<svg id="Laag_1" data-name="Laag 1" xmlns="http://www.w3.org/2000/svg" viewBox="0 0 217.73 135.01">
  <defs>
    <style>
      .cls-1 {
        fill: #b96e88;
      }

      .cls-2 {
        fill: #a05c79;
      }
    </style>
  </defs>
  <path class="cls-1" d="M40.74,23.27l.79.58c4.31-5.57,8.81-10.18,14.12-13.86,20.77-14.38,47.59-11.21,67.43-3.16,34.13,13.85,60.59,46.04,82.03,81.33,4.3,7.07,9.95,14.64,12.63,23.1-.19.81-.4,1.95-.75,2.72-3.06,6.66-15.9,10.39-21.04,12.16-39.92,13.73-85.22,13.28-117.98-13.95-23.75-19.75-34.63-45.09-38.55-82.38"/>
  <path class="cls-2" d="M155.82,94.1v-.05s-.96-.41-.96-.41c-7.5-3.15-15.66-4.65-23.25-7.64-3.29-1.28-6.54-2.65-9.76-4.1-3.22-1.46-6.41-3-9.56-4.64-3.15-1.64-6.27-3.36-9.34-5.17-3.08-1.81-6.11-3.71-9.11-5.69-3-1.98-5.95-4.05-8.86-6.2-2.91-2.15-5.78-4.38-8.6-6.7-2.82-2.31-5.6-4.71-8.33-7.18-2.73-2.47-5.44-4.87-8.26-7.55-2.08-1.64-10.79-9.76-13.17-11.37C39.36,21.15,12.1,4.16,1.44,6.12c-1.04.54-1.05,1.64-1.44,2.85l.39,4.1c3.04,2.01,8.18,2.56,11.71,3.5,7.2,1.93,18.23,7.09,25.01,11.67,5.95,3.65,16.46,12.68,21.97,17.78h0c2.63,2.71,7.92,7.5,10.17,9.42,22.92,19.47,44.58,31.08,72.61,36.9,4.06.84,8.25,1.31,12.26,2.29l.6-1.03-.49,1.05c.68-.38.91-.65,1.6-.54Z"/>
</svg>