<?xml version="1.0" encoding="UTF-8"?>
<svg id="Laag_1" data-name="Laag 1" xmlns="http://www.w3.org/2000/svg" viewBox="0 0 208.01 141.48">
  <defs>
    <style>
      .cls-1 {
        fill: #f49d8a;
      }

      .cls-2 {
        fill: #dc867b;
      }
    </style>
  </defs>
  <path class="cls-1" d="M168.67,20.54l-.73.65c-4.78-5.18-9.66-9.38-15.27-12.58-21.95-12.52-48.39-7.03-67.45,2.72C52.42,28.09,28.86,62.47,10.57,99.48c-3.67,7.42-8.63,15.45-10.57,24.11.26.79.57,1.91.99,2.65,3.62,6.37,16.74,8.97,22.02,10.28,40.96,10.21,86.05,5.82,116.32-24.16,21.94-21.74,30.58-47.93,31.24-85.42"/>
  <path class="cls-2" d="M60.19,101.11v-.05s.92-.49.92-.49c7.2-3.79,15.2-6,22.5-9.63,3.16-1.56,6.28-3.21,9.37-4.94,3.08-1.73,6.12-3.55,9.12-5.45,3-1.9,5.95-3.89,8.86-5.96,2.91-2.07,5.77-4.22,8.58-6.46,2.81-2.23,5.58-4.55,8.29-6.94,2.71-2.39,5.38-4.87,7.99-7.42,2.61-2.55,5.17-5.18,7.67-7.88,2.5-2.7,5-5.32,7.58-8.24,1.93-1.81,9.9-10.66,12.13-12.47C169.86,18.31,195.54-.99,206.33.04c1.08.45,1.19,1.54,1.68,2.71l-.03,4.12c-2.85,2.27-7.92,3.26-11.36,4.51-7,2.55-17.55,8.65-23.9,13.8-5.61,4.15-15.3,14.06-20.34,19.63h0c-2.38,2.93-7.24,8.16-9.32,10.27-21.14,21.39-41.7,34.84-69.12,43.07-3.97,1.19-8.1,2.02-12.01,3.34l-.69-.97.58,1c-.71-.32-.96-.57-1.64-.4Z"/>
</svg>