<?xml version="1.0" encoding="UTF-8"?>
<svg id="Laag_1" data-name="Laag 1" xmlns="http://www.w3.org/2000/svg" viewBox="0 0 191.82 155.18">
  <defs>
    <style>
      .cls-1 {
        fill: #b67e6d;
      }

      .cls-2 {
        fill: #d99a6d;
      }
    </style>
  </defs>
  <path class="cls-2" d="M23.11,33.07c-5.95-5.62-2.55-8.87,3.55-3.82,8.67-7.77,19.84-13.52,30.55-16.94,10.1-3.22,29.93-8.55,39.59-2.27,1.67,1.09,2.93,2.84,3.19,4.98.68,5.66-3.11,10.17-6.07,14.44,10.61-1.19,20.77-1.64,31.26.29,7.59,1.4,18.34,3.62,22.68,11.06,1.53,2.62,2.3,6,1.55,9.1-1.31,5.4-6.23,9.18-10.44,11.92,2.31.91,4.63,1.82,6.86,2.93,21.46,10.64,36.74,39.94,44.11,62.97,1.36,4.24,2.91,9.17.94,13.53-3.63,3.75-9.15,4.56-13.89,5.6-21.65,4.78-44.89,2.6-63.15-10.6l-.09,1.09c-.13,1.67-.22,3.36-.55,5.01-.8,4-2.66,9.1-6.09,11.4-2.59,1.74-5.52,1.69-8.31.82-16.66-5.18-31.85-27.51-39.47-43.13-1.63,4.88-3.3,10.4-7.65,13.31-1.9,1.27-4.06,1.59-6.17.98-6.97-2.02-12.96-13.91-16.13-20.3-11.33-22.87-13.59-47.29-6.29-72.38Z"/>
  <path class="cls-1" d="M23.11,33.07C17.15,27.45-.03,10.84,0,2.48,0,1.31.86,1.04,1.65.36l2.01-.36c2.8,2.57,4.91,7.51,7.08,10.84,4.41,6.77,9.82,13.37,15.93,18.42,4.31,5.14,10.33,9.69,15.44,13.93,32.58,27,83.88,55.7,96.07,66.41-24.3-12.02-83.38-47.39-115.06-76.53Z"/>
</svg>