<?xml version="1.0" encoding="UTF-8"?>
<svg id="Laag_1" data-name="Laag 1" xmlns="http://www.w3.org/2000/svg" viewBox="0 0 224.81 137.19">
  <defs>
    <style>
      .cls-1 {
        fill: #b7c6af;
      }

      .cls-2 {
        fill: #95aba7;
      }
    </style>
  </defs>
  <path class="cls-1" d="M193.22,45.35c7.41-3.48,5.19-7.63-2.19-4.73-5.81-10.08-14.64-19.04-23.74-25.62-8.59-6.21-25.77-17.46-36.91-14.51-1.93.51-3.67,1.78-4.58,3.73-2.41,5.16-.22,10.64,1.26,15.61-9.71-4.44-19.22-8.04-29.79-9.47-7.65-1.03-18.55-2.29-25,3.43-2.27,2.01-4.06,4.99-4.31,8.16-.44,5.54,3.05,10.66,6.2,14.58-2.48.14-4.96.29-7.43.65-23.71,3.41-47.37,26.48-61.56,46.07-2.61,3.61-5.63,7.81-5.11,12.56,2.28,4.7,7.27,7.18,11.44,9.65,19.08,11.3,41.84,16.47,63.3,9.63l-.25,1.06c-.4,1.62-.84,3.27-1.04,4.93-.48,4.05-.31,9.47,2.23,12.73,1.92,2.46,4.72,3.33,7.64,3.37,17.44.28,38.85-16.2,50.96-28.67.02,5.15-.11,10.91,3.12,15.03,1.41,1.8,3.36,2.78,5.56,2.86,7.25.25,16.66-9.17,21.66-14.26,17.9-18.2,27.67-40.69,28.55-66.81Z"/>
  <path class="cls-2" d="M193.22,45.35c7.41-3.48,28.92-13.91,31.49-21.85.36-1.12-.37-1.64-.9-2.54l-1.8-.96c-3.46,1.57-7.01,5.61-10.1,8.09-6.3,5.06-13.5,9.64-20.88,12.53-5.7,3.54-12.83,5.99-19.01,8.42-39.38,15.49-97.07,26.76-111.99,33.13,26.84-3.84,94-19.01,133.19-36.82Z"/>
</svg>