<?xml version="1.0" encoding="UTF-8"?>
<svg id="Laag_1" data-name="Laag 1" xmlns="http://www.w3.org/2000/svg" viewBox="0 0 183.94 193.87">
  <defs>
    <style>
      .cls-1 {
        fill: #f8dea7;
      }

      .cls-2 {
        fill: #dcc89a;
      }
    </style>
  </defs>
  <path class="cls-1" d="M101.16,50.84c15.09-16.92,28.14-28,50.38-35.58,5.12-1.74,16.16-6.16,21.7-3.39,1.26,1.47,1.93,2.65,2.24,4.46.97,5.71-.96,12.44-2.34,17.54-5.68,20.85-14.3,39.45-27.34,55.56,9.62.13,21.02,0,30.55,4.91,2.75,1.42,6.04,3.71,7.2,6.8.72,1.92.39,3.74-.39,5.3-6.53,13.03-38.37,22.14-52.35,24.39-2.26.71-5.2,1.54-6.03,4.02-.26.77.22,1.12.65,1.84,4.46,2.38,5.73,1.45,10.15,1.72,10.86.89,27.88,8.62,36.41,17.16,2.54,2.54,4.92,5.67,5.33,9.15.38,3.26-.97,6.04-2.94,8.11-8.79,9.26-33.53,13.25-47.26,11.85-7.19-.73-14.4-2.32-21.6-3.85-3.05,5.09-6.52,10.71-13.18,11.27-4.61.38-9.25-2.1-13.13-5.31-10.99-9.09-17.38-23-27.02-33.36,2.83-3.58,1.99-12.57-5.29-5.21-9.93-5.58-34.69-17.66-40.76-26.87-2.32-3.52-3.51-7.63-2.81-11.37,1.26-6.69,7.35-9.53,12.55-12.43C9.04,81.11-.52,48.4,2.52,32.33c.41-2.19.9-3.9,2.98-4.79,3.14-1.35,7.89.04,11.27,1.41,17.44,7.06,28.55,25.86,37.57,41.58,7.49-20.2,9.91-47.89,21.8-64.99C77.9,3,80.63-.22,84.25.01c2.01.12,3.88,1.4,5.34,2.99,10.1,10.97,11.17,34.92,11.57,47.84Z"/>
  <path class="cls-2" d="M125.19,65.33c-2.73,4.35-61.19,71.57-63.92,75.92-2.7,4.3-5.96,8.22-9.08,12.17-9.62,10.81-35.61,40.68-51.04,40.45l-1.15-2.29c2.83-6.24,20.28-16.88,26.31-22.23,7.26-6.45,14.49-13.52,20.59-21.13,7.28-7.36,69.29-77.35,78.29-82.88Z"/>
</svg>