<?xml version="1.0" encoding="UTF-8"?>
<svg id="Laag_1" data-name="Laag 1" xmlns="http://www.w3.org/2000/svg" viewBox="0 0 191.87 202.4">
  <defs>
    <style>
      .cls-1 {
        fill: #65907d;
      }

      .cls-2 {
        fill: #65a77d;
      }
    </style>
  </defs>
  <path class="cls-2" d="M53.1,79.06c-14.15-17.72-22.88-32.44-26.62-55.64-.86-5.34-3.36-16.96.3-21.96C28.45.46,29.72,0,31.56,0c5.79,0,12.11,3.03,16.9,5.25,19.6,9.09,36.49,20.72,50.18,36.28,1.74-9.46,3.53-20.72,9.97-29.29,1.86-2.47,4.68-5.34,7.91-5.96,2.01-.39,3.76.24,5.16,1.27,11.75,8.63,15.39,41.54,15.26,55.7.32,2.35.64,5.38,2.95,6.62.72.38,1.14-.03,1.92-.33,3.09-3.99,2.39-5.4,3.4-9.72,2.7-10.55,13.17-26.03,23.02-33.02,2.93-2.08,6.41-3.9,9.91-3.72,3.27.17,5.79,1.97,7.5,4.26,7.66,10.22,7.43,35.28,3.75,48.58-1.93,6.97-4.71,13.81-7.42,20.65,4.51,3.86,9.47,8.23,8.9,14.88-.4,4.61-3.62,8.76-7.44,12.05-10.8,9.31-25.6,13.28-37.42,21.04-3.06-3.39-12.06-4.07-6.02,4.34-7.16,8.85-23.23,31.23-33.33,35.67-3.86,1.69-8.11,2.18-11.68.86-6.38-2.36-8.16-8.85-10.15-14.45-17.35,3.98-51.19,7.91-66.52,2.22-2.09-.78-3.7-1.54-4.23-3.74-.8-3.32,1.37-7.77,3.28-10.87,9.88-16.01,30.28-23.81,47.29-30.05-18.65-10.78-45.55-17.8-60.4-32.4-2.21-2.17-4.92-5.4-4.09-8.93.46-1.96,2.03-3.59,3.84-4.76,12.51-8.12,36.3-5.15,49.11-3.38Z"/>
  <path class="cls-1" d="M71.41,57.8c3.83,3.42,60.28,72.34,64.12,75.75,3.79,3.38,7.1,7.25,10.48,11,9.05,11.29,34.13,41.93,31.31,57.1l-2.45.75c-5.68-3.84-13.24-22.83-17.5-29.67-5.14-8.24-10.9-16.55-17.38-23.84-6.04-8.41-64.63-81.29-68.57-91.09Z"/>
</svg>