<?xml version="1.0" encoding="UTF-8"?>
<svg id="Laag_1" data-name="Laag 1" xmlns="http://www.w3.org/2000/svg" viewBox="0 0 188.38 201.69">
  <defs>
    <style>
      .cls-1 {
        fill: #b96e88;
      }

      .cls-2 {
        fill: #a05c79;
      }
    </style>
  </defs>
  <path class="cls-1" d="M88.23,152.97c-13.18,18.45-24.95,30.87-46.26,40.8-4.9,2.28-15.4,7.86-21.21,5.71-1.41-1.32-2.2-2.42-2.7-4.19-1.58-5.58-.39-12.47.44-17.69,3.4-21.34,9.96-40.76,21.19-58.18-9.57.9-20.9,2.26-30.9-1.59-2.89-1.11-6.41-3.04-7.89-5.98-.92-1.83-.79-3.68-.19-5.31,5.09-13.66,35.76-26.15,49.41-29.89,2.17-.95,5-2.09,5.56-4.65.17-.8-.34-1.09-.84-1.76-4.69-1.89-5.85-.82-10.28-.62-10.89.28-28.64-5.56-38.05-13.13-2.8-2.25-5.5-5.1-6.28-8.52-.73-3.2.32-6.11,2.05-8.38,7.74-10.15,31.91-16.78,45.71-16.87,7.23-.05,14.57.75,21.89,1.5,2.49-5.39,5.33-11.35,11.89-12.62,4.55-.88,9.42,1.09,13.63,3.86,11.9,7.85,19.76,21,30.46,30.25-2.43,3.87-.62,12.71,5.82,4.61,10.47,4.47,36.39,13.82,43.42,22.32,2.68,3.25,4.32,7.21,4.02,11-.53,6.78-6.28,10.26-11.13,13.71,8.57,15.6,21.59,47.08,20.3,63.39-.18,2.22-.48,3.98-2.45,5.09-2.97,1.68-7.85.81-11.35-.19-18.1-5.14-31.17-22.63-41.83-37.29-5.27,20.89-4.69,48.68-14.67,66.96-1.48,2.72-3.85,6.21-7.47,6.37-2.01.09-4.01-.98-5.63-2.4-11.23-9.82-14.87-33.52-16.66-46.32Z"/>
  <path class="cls-2" d="M62.78,141.16c2.25-4.62,53.12-77.75,55.37-82.37,2.22-4.57,5.04-8.82,7.72-13.08,8.4-11.79,31.02-44.28,46.38-45.71l1.39,2.16c-2.14,6.51-18.35,18.97-23.76,24.94-6.53,7.19-12.95,15.01-18.19,23.23-6.44,8.1-60.55,84.37-68.9,90.84Z"/>
</svg>