<?xml version="1.0" encoding="UTF-8"?>
<svg id="Laag_1" data-name="Laag 1" xmlns="http://www.w3.org/2000/svg" viewBox="0 0 224.07 137.7">
  <defs>
    <style>
      .cls-1 {
        fill: #cf746c;
      }

      .cls-2 {
        fill: #f67f6f;
      }
    </style>
  </defs>
  <path class="cls-2" d="M192.71,44.75c7.37-3.56,5.11-7.68-2.23-4.71-5.91-10.02-14.83-18.89-24-25.38-8.65-6.12-25.95-17.2-37.06-14.13-1.92.53-3.65,1.82-4.55,3.78-2.36,5.19-.11,10.64,1.42,15.6-9.75-4.35-19.3-7.85-29.89-9.17-7.66-.96-18.57-2.1-24.97,3.68-2.25,2.03-4,5.03-4.22,8.2-.38,5.55,3.16,10.63,6.35,14.52-2.47.17-4.96.34-7.42.72-23.67,3.65-47.1,26.96-61.08,46.69-2.58,3.63-5.55,7.86-4.98,12.61,2.33,4.67,7.34,7.11,11.54,9.54,19.19,11.1,42,16.05,63.4,8.99l-.24,1.07c-.38,1.63-.81,3.27-.99,4.94-.44,4.05-.21,9.47,2.36,12.7,1.94,2.44,4.75,3.28,7.68,3.29,17.45.1,38.68-16.6,50.66-29.18.08,5.15,0,10.91,3.27,15,1.42,1.78,3.39,2.75,5.59,2.8,7.25.18,16.56-9.34,21.51-14.48,17.71-18.38,27.25-40.97,27.87-67.09Z"/>
  <path class="cls-1" d="M192.71,44.75c7.37-3.56,28.77-14.2,31.27-22.17.35-1.12-.38-1.64-.93-2.53l-1.81-.95c-3.44,1.61-6.96,5.68-10.02,8.19-6.25,5.12-13.4,9.78-20.75,12.75-5.66,3.6-12.77,6.12-18.93,8.61-39.22,15.89-96.8,27.74-111.65,34.27,26.8-4.11,93.8-19.97,132.81-38.17Z"/>
</svg>