<?xml version="1.0" encoding="UTF-8"?>
<svg id="Laag_1" data-name="Laag 1" xmlns="http://www.w3.org/2000/svg" viewBox="0 0 223.59 131.73">
  <defs>
    <style>
      .cls-1 {
        fill: #e4ba79;
      }

      .cls-2 {
        fill: #fcd083;
      }
    </style>
  </defs>
  <path class="cls-2" d="M182.05,26.37l-.82.53c-3.96-5.83-8.17-10.71-13.24-14.7C148.14-3.42,121.18-1.9,100.88,4.92,65.97,16.65,37.59,47.16,14.02,81.07c-4.72,6.8-10.82,14-14.02,22.28.14.82.28,1.97.58,2.76,2.64,6.84,15.23,11.35,20.25,13.43,39,16.15,84.24,18.48,118.61-6.7,24.92-18.25,37.33-42.88,43.53-79.86"/>
  <path class="cls-1" d="M62.85,90.01v-.05s.99-.35.99-.35c7.68-2.69,15.92-3.68,23.68-6.2,3.36-1.07,6.69-2.24,9.99-3.5,3.3-1.26,6.58-2.61,9.83-4.04,3.25-1.44,6.46-2.97,9.64-4.59,3.18-1.62,6.33-3.32,9.44-5.12,3.11-1.79,6.19-3.68,9.23-5.64,3.04-1.97,6.04-4.02,9-6.16,2.96-2.14,5.88-4.36,8.75-6.66,2.87-2.3,5.73-4.52,8.71-7.03,2.18-1.5,11.37-9.08,13.84-10.54,7.62-5.79,35.87-21.08,46.39-18.47,1.01.6.95,1.7,1.26,2.93l-.64,4.07c-3.16,1.82-8.32,2.05-11.9,2.78-7.3,1.48-18.63,5.96-25.67,10.11-6.16,3.28-17.21,11.65-23.02,16.4h0c-2.79,2.55-8.37,7-10.73,8.78-24.07,18.03-46.4,28.29-74.73,32.38-4.1.59-8.31.8-12.37,1.53l-.54-1.06.42,1.07c-.65-.42-.87-.7-1.57-.64Z"/>
</svg>