<?xml version="1.0" encoding="UTF-8"?>
<svg id="Laag_1" data-name="Laag 1" xmlns="http://www.w3.org/2000/svg" viewBox="0 0 232.65 126.07">
  <defs>
    <style>
      .cls-1 {
        fill: #cf746c;
      }

      .cls-2 {
        fill: #f67f6f;
      }
    </style>
  </defs>
  <path class="cls-2" d="M190,33.06l-.88.43c-3.23-6.26-6.82-11.61-11.38-16.18C159.91-.6,132.96-2.34,112,1.99,75.93,9.43,44.08,36.31,16.6,67.13c-5.51,6.18-12.43,12.59-16.6,20.43.04.83.04,1.99.25,2.81,1.8,7.11,13.76,13.1,18.49,15.77,36.77,20.73,81.41,28.49,118.55,7.63,26.93-15.12,42.22-38.07,52.83-74.04"/>
  <path class="cls-1" d="M64,81.89v-.05s1.03-.23,1.03-.23c7.95-1.74,16.25-1.74,24.25-3.3,3.46-.66,6.91-1.42,10.34-2.27,3.43-.85,6.85-1.8,10.24-2.83,3.4-1.04,6.77-2.17,10.12-3.39,3.35-1.22,6.68-2.54,9.99-3.94,3.31-1.41,6.59-2.9,9.84-4.49,3.25-1.59,6.48-3.26,9.67-5.03,3.19-1.76,6.36-3.62,9.49-5.56,3.13-1.94,6.23-3.8,9.49-5.93,2.34-1.23,12.38-7.65,15.01-8.8,8.26-4.83,38.15-16.61,48.27-12.75.93.72.73,1.8.9,3.06l-1.12,3.96c-3.35,1.43-8.5,1.04-12.15,1.33-7.43.59-19.22,3.67-26.7,6.95-6.51,2.51-18.49,9.49-24.82,13.51h0c-3.08,2.19-9.15,5.94-11.71,7.42-26.06,15-49.47,22.5-78.09,23.14-4.14.09-8.35-.21-12.47.03l-.41-1.12.29,1.12c-.6-.49-.77-.8-1.48-.82Z"/>
</svg>