<?xml version="1.0" encoding="UTF-8"?>
<svg id="Laag_1" data-name="Laag 1" xmlns="http://www.w3.org/2000/svg" viewBox="0 0 201.03 149.64">
  <defs>
    <style>
      .cls-1 {
        fill: #f8dea7;
      }

      .cls-2 {
        fill: #dcc89a;
      }
    </style>
  </defs>
  <path class="cls-1" d="M38.48,22.61l.69.69c5.06-4.9,10.18-8.82,15.96-11.69,22.62-11.25,48.71-4.27,67.19,6.54,31.79,18.6,53.36,54.25,69.52,92.25,3.24,7.62,7.74,15.91,9.19,24.67-.3.78-.68,1.88-1.13,2.59-3.98,6.16-17.23,8.01-22.57,9.02-41.47,7.87-86.24.93-114.76-30.72-20.68-22.95-27.81-49.59-26.34-87.06"/>
  <path class="cls-2" d="M142.21,109.21v-.05s-.89-.55-.89-.55c-6.97-4.2-14.84-6.85-21.92-10.89-3.07-1.74-6.09-3.56-9.07-5.46-2.98-1.9-5.91-3.89-8.8-5.96-2.88-2.07-5.72-4.22-8.51-6.45-2.79-2.23-5.52-4.54-8.2-6.93-2.68-2.39-5.31-4.86-7.88-7.4-2.57-2.55-5.09-5.17-7.55-7.86-2.46-2.69-4.87-5.46-7.21-8.3-2.35-2.84-4.69-5.6-7.1-8.66-1.82-1.92-9.28-11.21-11.4-13.14C37.41,20.32,12.87-.41,2.04,0,.93.39.76,1.48.21,2.62l-.21,4.11c2.72,2.42,7.72,3.7,11.08,5.15,6.85,2.94,17.03,9.63,23.07,15.13,5.36,4.47,14.48,14.91,19.19,20.75h0c2.21,3.06,6.76,8.56,8.72,10.78,19.89,22.56,39.66,37.15,66.57,46.92,3.89,1.41,7.97,2.48,11.8,4.02l.74-.93-.63.97c.72-.28.99-.51,1.66-.3Z"/>
</svg>