<?xml version="1.0" encoding="UTF-8"?>
<svg id="Laag_1" data-name="Laag 1" xmlns="http://www.w3.org/2000/svg" xmlns:xlink="http://www.w3.org/1999/xlink" viewBox="0 0 432.75 164.08">
  <defs>
    <style>
      .cls-1 {
        fill: #65907d;
      }

      .cls-2 {
        fill: #65a77d;
      }

      .cls-3 {
        fill: #e4ba79;
      }

      .cls-4 {
        fill: #b96e88;
      }

      .cls-5 {
        fill: url(#Naamloos_verloop_22);
        fill-rule: evenodd;
      }

      .cls-6 {
        fill: #f49d8a;
      }

      .cls-7 {
        fill: #b67e6d;
      }

      .cls-8 {
        fill: #cf746c;
      }

      .cls-9 {
        fill: #b7c6af;
      }

      .cls-10 {
        fill: #95aba7;
      }

      .cls-11 {
        fill: #f8dea7;
      }

      .cls-12 {
        fill: #dcc89a;
      }

      .cls-13 {
        fill: #fcd083;
      }

      .cls-14 {
        fill: #d99a6d;
      }

      .cls-15 {
        fill: #f67f6f;
      }

      .cls-16 {
        fill: #a05c79;
      }

      .cls-17 {
        fill: #dc867b;
      }
    </style>
    <linearGradient id="Naamloos_verloop_22" data-name="Naamloos verloop 22" x1="209.86" y1="34.75" x2="209.86" y2="167.2" gradientUnits="userSpaceOnUse">
      <stop offset="0" stop-color="#fbb78a"/>
      <stop offset=".29" stop-color="#f8b488"/>
      <stop offset=".5" stop-color="#efaa83"/>
      <stop offset=".69" stop-color="#df9b7a"/>
      <stop offset=".86" stop-color="#ca856d"/>
      <stop offset="1" stop-color="#b26c5f"/>
    </linearGradient>
  </defs>
  <path class="cls-5" d="M4.87,164.08h41.49l8.38,2.54,17.67-2.54h78.85l29.94,3.01,6.25-3.01h25.31l3.77,1.97,11.2-1.97h35.23l20.26,2.95-.87-2.42,8.49-.52h48.7l9.26,3.13,20.25-3.13,45.81-.03-24.06-25.43-25.95-4.44-7.73-18.65-17.29-14.98-5.47-13.98-40.82-10.48-10.93-16.13-26.2-4.58-13.4-13.1-20.72-7.53-38.38,4.91-9.98,11.9-31.68,4.58-6.09,17.03-26.57,10.36-11.26,18.86-44.79,8.64-6.86,19.13-12.64,10-9.99,12.18-19.15,11.72ZM4.87,164.08"/>
  <g>
    <path class="cls-11" d="M154.19,15.88l.29.29c2.15-2.08,4.32-3.74,6.77-4.96,9.6-4.78,20.67-1.81,28.51,2.77,13.49,7.89,22.64,23.02,29.5,39.14,1.38,3.23,3.29,6.75,3.9,10.47-.13.33-.29.8-.48,1.1-1.69,2.61-7.31,3.4-9.58,3.83-17.6,3.34-36.59.39-48.69-13.04-8.77-9.74-11.8-21.04-11.18-36.94"/>
    <path class="cls-12" d="M198.21,52.62v-.02s-.38-.23-.38-.23c-2.96-1.78-6.29-2.91-9.3-4.62-1.3-.74-2.58-1.51-3.85-2.32-1.26-.81-2.51-1.65-3.73-2.53-1.22-.88-2.43-1.79-3.61-2.74-1.18-.95-2.34-1.93-3.48-2.94-1.14-1.01-2.25-2.06-3.35-3.14-1.09-1.08-2.16-2.19-3.21-3.34-1.04-1.14-2.06-2.32-3.06-3.52-1-1.21-1.99-2.37-3.01-3.67-.77-.81-3.94-4.76-4.84-5.58-2.66-3.06-13.08-11.86-17.67-11.68-.47.16-.54.63-.78,1.11l-.09,1.75c1.15,1.03,3.28,1.57,4.7,2.18,2.91,1.25,7.23,4.09,9.79,6.42,2.28,1.89,6.14,6.33,8.14,8.8h0c.94,1.3,2.87,3.63,3.7,4.57,8.44,9.57,16.83,15.76,28.25,19.91,1.65.6,3.38,1.05,5.01,1.71l.32-.4-.27.41c.31-.12.42-.22.71-.13Z"/>
  </g>
  <g>
    <path class="cls-13" d="M123.29,87.96c2.59-2.05,1.34-3.48-1.29-1.66-3.21-3.43-7.5-6.15-11.69-7.9-3.95-1.65-11.74-4.5-15.85-2.32-.71.38-1.28,1.04-1.46,1.89-.48,2.25.89,4.2,1.93,6.03-4.23-.86-8.3-1.4-12.59-.99-3.1.29-7.51.8-9.52,3.64-.71,1-1.14,2.33-.95,3.61.34,2.22,2.18,3.91,3.78,5.17-.96.28-1.93.57-2.86.94-9.01,3.52-16.2,14.76-19.99,23.77-.7,1.66-1.5,3.59-.86,5.41,1.33,1.64,3.52,2.16,5.39,2.75,8.54,2.69,17.97,2.64,25.79-2.02v.44c-.01.68-.03,1.36.04,2.04.18,1.64.75,3.75,2.04,4.8.98.79,2.16.88,3.32.63,6.89-1.49,13.8-9.94,17.42-15.95.48,2.02.96,4.3,2.61,5.63.72.58,1.58.79,2.45.61,2.88-.57,5.71-5.14,7.21-7.6,5.37-8.8,7.15-18.55,5.1-28.9Z"/>
    <path class="cls-3" d="M123.29,87.96c2.59-2.05,10.1-8.12,10.38-11.49.04-.47-.3-.61-.59-.92l-.8-.21c-1.22.94-2.24,2.85-3.23,4.11-2.01,2.57-4.43,5.03-7.06,6.85-1.92,1.92-4.5,3.53-6.71,5.06-14.07,9.71-35.73,19.43-41.02,23.31,10.21-3.97,35.24-16.1,49.02-26.7Z"/>
  </g>
  <g>
    <path class="cls-11" d="M107.52,121.34c5.83-6.54,10.87-10.82,19.47-13.75,1.98-.67,6.24-2.38,8.39-1.31.49.57.75,1.02.86,1.72.37,2.21-.37,4.81-.91,6.78-2.19,8.06-5.53,15.25-10.57,21.47,3.72.05,8.12,0,11.81,1.9,1.06.55,2.34,1.44,2.78,2.63.28.74.15,1.45-.15,2.05-2.53,5.04-14.83,8.56-20.23,9.43-.87.27-2.01.59-2.33,1.55-.1.3.08.43.25.71,1.72.92,2.21.56,3.92.67,4.2.35,10.77,3.33,14.07,6.63.98.98,1.9,2.19,2.06,3.53.15,1.26-.38,2.33-1.14,3.13-3.4,3.58-12.96,5.12-18.27,4.58-2.78-.28-5.57-.9-8.35-1.49-1.18,1.97-2.52,4.14-5.09,4.35-1.78.15-3.57-.81-5.08-2.05-4.25-3.51-6.72-8.89-10.44-12.89,1.09-1.38.77-4.86-2.04-2.01-3.84-2.16-13.41-6.83-15.75-10.39-.9-1.36-1.36-2.95-1.09-4.4.49-2.58,2.84-3.68,4.85-4.8-2.64-6.35-6.33-18.99-5.16-25.2.16-.85.35-1.51,1.15-1.85,1.21-.52,3.05.02,4.35.54,6.74,2.73,11.03,10,14.52,16.07,2.9-7.81,3.83-18.51,8.43-25.12.68-.98,1.74-2.23,3.14-2.14.78.05,1.5.54,2.06,1.15,3.9,4.24,4.32,13.5,4.47,18.49Z"/>
    <path class="cls-12" d="M116.81,126.94c-1.06,1.68-23.65,27.66-24.71,29.34-1.04,1.66-2.3,3.18-3.51,4.7-3.72,4.18-13.76,15.72-19.73,15.63l-.44-.89c1.1-2.41,7.84-6.52,10.17-8.59,2.81-2.49,5.6-5.23,7.96-8.17,2.81-2.85,26.78-29.9,30.26-32.03Z"/>
  </g>
  <g>
    <path class="cls-9" d="M338.46,127.41c1.24-9.09,1.22-16.01-2.29-24.85-.81-2.03-2.35-6.59-4.66-7.57-.78,0-1.32.1-1.96.48-2.01,1.2-3.58,3.56-4.78,5.33-4.93,7.23-8.38,14.77-9.91,23.01-2.57-2.92-5.53-6.47-9.54-8.11-1.16-.47-2.73-.88-3.98-.43-.78.28-1.25.86-1.53,1.51-2.29,5.44,3.27,17.63,6.25,22.52.38.88.89,2,.35,2.91-.17.28-.4.23-.74.28-1.9-.75-1.95-1.38-3.2-2.67-3.13-3.11-9.98-6.31-14.85-6.7-1.45-.11-3.04-.03-4.21.76-1.1.74-1.6,1.89-1.72,3.03-.54,5.14,4.73,13.8,8.77,17.66,2.12,2.02,4.5,3.82,6.86,5.64-.77,2.28-1.58,4.82,0,7.02,1.09,1.52,3.07,2.29,5.08,2.65,5.68.99,11.65-.69,17.36-.45.36-1.81,3.35-3.92,2.99.26,4.33,1.59,14.55,6.03,18.98,5.48,1.69-.21,3.27-.92,4.24-2.12,1.73-2.14,1-4.77.53-7.13,6.85-2.21,19.43-7.87,23.57-13.02.56-.7.96-1.3.69-2.18-.41-1.32-2.09-2.42-3.39-3.1-6.75-3.51-15.46-1.99-22.66-.63,4.25-7.61,12.13-15.63,14.27-23.78.32-1.21.59-2.9-.43-3.95-.57-.59-1.45-.82-2.32-.86-6.03-.23-13.68,5.74-17.76,9.01Z"/>
    <path class="cls-10" d="M327.69,123.82c-.62,1.98-5.94,37.63-6.57,39.62-.62,1.96-.96,3.99-1.36,5.99-.8,5.8-3.16,21.65.96,26.33l1.01-.25c1.18-2.51-.14-10.68-.07-13.94.08-3.93.35-8.01,1.09-11.89.35-4.17,5.6-41.65,4.94-45.87Z"/>
  </g>
  <g>
    <path class="cls-6" d="M285.44,165.93c2.58,1.22,3.2-.29.79-1.64,1.43-3.8,1.89-8.16,1.64-12.07-.23-3.69-1.01-10.81-4.27-13.16-.57-.41-1.29-.59-2.02-.41-1.93.49-2.91,2.3-3.93,3.8-.95-3.6-2.09-6.96-4.05-10.12-1.42-2.29-3.5-5.5-6.46-5.97-1.04-.16-2.24.01-3.15.65-1.59,1.11-2.19,3.18-2.55,4.9-.59-.63-1.18-1.27-1.82-1.86-6.17-5.63-17.63-6.89-26.05-6.37-1.55.1-3.35.21-4.52,1.41-.76,1.66-.32,3.55-.06,5.22,1.18,7.64,4.83,14.92,11.43,19.19l-.34.17c-.53.25-1.07.5-1.56.81-1.2.77-2.62,2.02-2.94,3.42-.24,1.06.15,2.01.79,2.81,3.79,4.76,12.97,6.87,19.01,7.37-1.38,1.15-2.96,2.39-3.36,4.17-.17.78,0,1.52.46,2.13,1.54,2.01,6.16,2.45,8.64,2.67,8.87.79,17.09-1.56,24.32-7.11Z"/>
    <path class="cls-17" d="M285.44,165.93c2.58,1.22,10.15,4.71,12.86,3.64.38-.15.36-.46.48-.81l-.14-.7c-1.19-.58-3.06-.65-4.42-.93-2.76-.58-5.59-1.5-8-2.85-2.22-.75-4.46-2.13-6.48-3.26-12.9-7.17-28.72-20.22-33.74-22.83,6.98,6.38,25.95,21.11,39.43,27.72Z"/>
  </g>
  <g>
    <path class="cls-15" d="M174.02,65.63c3.51-.36,3.2-2.36-.21-2.24-.92-4.93-3.23-9.84-5.99-13.82-2.61-3.76-7.99-10.79-12.94-11.19-.86-.07-1.75.2-2.4.86-1.72,1.75-1.61,4.3-1.72,6.53-3.31-3.2-6.67-6.02-10.77-8.12-2.96-1.52-7.22-3.59-10.66-2.18-1.21.49-2.36,1.45-2.92,2.7-.97,2.19-.28,4.77.43,6.82-1.03-.3-2.06-.59-3.11-.8-10.13-2.01-23.06,3.99-31.64,9.93-1.58,1.09-3.41,2.37-3.88,4.38.26,2.24,1.93,3.96,3.27,5.57,6.15,7.33,14.67,12.69,24.38,12.98l-.26.4c-.39.6-.81,1.21-1.13,1.86-.78,1.58-1.48,3.81-.92,5.5.43,1.28,1.44,2.03,2.63,2.47,7.06,2.61,18.13-1.03,24.84-4.37-.73,2.1-1.61,4.42-.88,6.56.31.93.97,1.61,1.85,1.96,2.91,1.14,8.09-1.35,10.85-2.7,9.89-4.84,17.08-12.6,21.18-23.09Z"/>
    <path class="cls-8" d="M174.02,65.63c3.51-.36,13.76-1.52,15.94-4.38.31-.4.09-.72,0-1.16l-.59-.65c-1.63.14-3.66,1.28-5.27,1.84-3.29,1.16-6.87,1.99-10.29,2.11-2.83.62-6.08.6-8.94.7-18.24.67-43.33-3.01-50.31-2.55,11.47,2.28,40.97,5.72,59.46,4.09Z"/>
  </g>
  <g>
    <path class="cls-4" d="M122.05,84.26l.3.26c1.91-2.1,3.87-3.81,6.13-5.12,8.82-5.11,19.5-2.97,27.22.91,13.28,6.67,22.88,20.47,30.36,35.36,1.5,2.98,3.53,6.21,4.33,9.7-.1.32-.22.77-.39,1.07-1.44,2.58-6.73,3.67-8.85,4.21-16.5,4.23-34.7,2.59-46.99-9.42-8.91-8.71-12.47-19.25-12.84-34.38"/>
    <path class="cls-16" d="M166.04,116.46v-.02s-.37-.2-.37-.2c-2.91-1.51-6.15-2.38-9.11-3.82-1.28-.62-2.54-1.28-3.79-1.97-1.25-.69-2.48-1.42-3.69-2.17-1.21-.76-2.41-1.55-3.59-2.38-1.18-.83-2.34-1.69-3.48-2.58-1.14-.89-2.26-1.82-3.36-2.78-1.1-.96-2.18-1.95-3.24-2.97-1.06-1.02-2.1-2.07-3.12-3.16-1.02-1.08-2.03-2.13-3.08-3.3-.78-.72-4.02-4.27-4.93-5-2.71-2.75-13.13-10.46-17.48-10.02-.44.18-.47.63-.67,1.1l.02,1.66c1.16.91,3.21,1.29,4.59,1.79,2.83,1.01,7.1,3.44,9.68,5.5,2.27,1.66,6.21,5.63,8.26,7.86h0c.97,1.18,2.94,3.27,3.79,4.12,8.59,8.57,16.92,13.94,28.01,17.18,1.6.47,3.27.79,4.86,1.32l.28-.39-.23.41c.28-.13.39-.23.66-.16Z"/>
  </g>
  <g>
    <path class="cls-13" d="M168.78,87.36h.37c.11,2.65.5,5.05,1.33,7.34,3.27,8.96,12.24,13.83,20.11,15.67,13.55,3.17,28.72-1,43.03-7.21,2.87-1.25,6.26-2.35,8.93-4.37.12-.29.3-.69.36-1,.51-2.72-2.64-6.67-3.84-8.34-9.32-12.93-23.39-22.67-39.43-21.41-11.63.91-20.51,6.36-29.85,17.01"/>
    <path class="cls-3" d="M219.71,90.59v.02s-.4-.08-.4-.08c-3-.66-5.85-1.98-8.84-2.71-1.29-.32-2.59-.61-3.91-.86-1.31-.25-2.63-.47-3.96-.65-1.33-.18-2.66-.33-4.01-.44-1.34-.11-2.69-.19-4.05-.23-1.36-.04-2.72-.05-4.08-.02-1.37.03-2.74.09-4.11.19-1.37.1-2.75.23-4.13.4-1.38.17-2.74.31-4.19.53-1,.05-5.46.66-6.54.64-3.6.35-15.71-.35-18.57-3.28-.2-.39.03-.74.18-1.19l1.01-1.18c1.38.04,3.08.99,4.37,1.47,2.64.97,7.17,1.79,10.26,1.85,2.63.17,7.84-.32,10.65-.7h0c1.4-.26,4.08-.59,5.19-.69,11.31-1.01,20.52.13,30.44,4.44,1.43.62,2.83,1.39,4.28,1.97l-.04.45.08-.43c.13.26.14.4.38.52Z"/>
  </g>
  <g>
    <path class="cls-2" d="M136.22,126.54c-2.41-2.4-.96-3.71,1.52-1.54,3.69-3.12,8.4-5.39,12.88-6.68,4.23-1.22,12.53-3.2,16.47-.48.68.47,1.18,1.21,1.27,2.1.22,2.36-1.41,4.19-2.69,5.93,4.42-.37,8.64-.44,12.98.48,3.14.67,7.57,1.71,9.29,4.86.6,1.1.88,2.52.54,3.8-.61,2.23-2.69,3.74-4.47,4.83.95.4,1.9.81,2.81,1.3,8.79,4.67,14.8,17.01,17.59,26.66.51,1.78,1.1,3.84.23,5.63-1.55,1.52-3.85,1.79-5.83,2.17-9.05,1.73-18.67.56-26.1-5.13l-.05.45c-.07.69-.13,1.39-.29,2.07-.38,1.65-1.21,3.75-2.66,4.66-1.09.69-2.31.64-3.46.24-6.86-2.34-12.91-11.8-15.89-18.37-.73,2.01-1.49,4.28-3.33,5.44-.8.51-1.7.62-2.57.34-2.87-.92-5.22-5.93-6.46-8.62-4.44-9.63-5.1-19.8-1.77-30.13Z"/>
    <path class="cls-1" d="M136.22,126.54c-2.41-2.4-9.35-9.5-9.24-12.97.02-.49.37-.59.71-.87l.84-.12c1.13,1.1,1.95,3.18,2.81,4.58,1.75,2.86,3.92,5.67,6.4,7.83,1.73,2.18,4.18,4.14,6.25,5.96,13.22,11.59,34.19,24.11,39.13,28.7-9.95-5.27-34.08-20.65-46.9-33.12Z"/>
  </g>
  <g>
    <path class="cls-2" d="M219.08,32.82c-2.37-8.79-3.23-15.6-.89-24.74.54-2.1,1.48-6.78,3.62-8.03.77-.1,1.31-.07,1.99.23,2.13.93,3.97,3.05,5.38,4.64,5.76,6.48,10.12,13.46,12.66,21.38,2.15-3.2,4.62-7.06,8.35-9.19,1.08-.61,2.57-1.22,3.86-.93.8.18,1.34.69,1.69,1.29,2.94,5.06-.98,17.75-3.29,22.94-.26.91-.62,2.08.03,2.91.2.26.42.17.76.19,1.78-.97,1.74-1.61,2.81-3.03,2.68-3.45,9.01-7.47,13.76-8.47,1.41-.3,2.98-.41,4.24.22,1.18.59,1.82,1.65,2.08,2.77,1.18,4.98-2.91,14.17-6.39,18.48-1.83,2.26-3.94,4.33-6.04,6.41,1.04,2.14,2.17,4.54.89,6.9-.88,1.63-2.73,2.65-4.67,3.25-5.46,1.7-11.54.79-17.14,1.76-.58-1.74-3.79-3.43-2.91.63-4.05,2.11-13.55,7.78-17.98,7.8-1.69,0-3.34-.49-4.44-1.55-1.97-1.89-1.59-4.56-1.42-6.94-7.02-1.31-20.1-5.28-24.84-9.82-.64-.62-1.11-1.16-.96-2.05.24-1.35,1.75-2.64,2.95-3.48,6.2-4.31,14.95-3.92,22.21-3.5-5.14-6.95-13.91-13.84-17.05-21.59-.47-1.15-.95-2.78-.08-3.94.48-.65,1.32-1,2.18-1.14,5.9-.99,14.19,3.91,18.61,6.61Z"/>
    <path class="cls-1" d="M229.23,27.93c.86,1.87,10.61,36.27,11.48,38.14.85,1.85,1.45,3.81,2.1,5.72,1.52,5.6,5.85,20.89,2.39,26.02l-1.02-.12c-1.47-2.32-1.22-10.52-1.69-13.72-.57-3.86-1.36-7.84-2.58-11.56-.88-4.06-10.78-40.26-10.66-44.49Z"/>
  </g>
  <g>
    <path class="cls-4" d="M268.39,120.58c-4.67,6.48-8.81,10.85-16.24,14.41-1.71.82-5.38,2.81-7.38,2.09-.48-.45-.75-.83-.91-1.44-.52-1.93-.07-4.33.25-6.15,1.29-7.43,3.67-14.21,7.65-20.32-3.32.37-7.25.9-10.7-.39-.99-.37-2.2-1.02-2.7-2.04-.31-.63-.26-1.27-.04-1.84,1.84-4.77,12.53-9.27,17.28-10.64.76-.34,1.74-.75,1.95-1.64.06-.28-.11-.38-.28-.61-1.61-.63-2.02-.25-3.56-.16-3.77.16-9.89-1.78-13.11-4.36-.96-.77-1.88-1.74-2.13-2.92-.24-1.11.14-2.12.75-2.92,2.74-3.57,11.15-6,15.93-6.1,2.51-.05,5.04.18,7.58.41.89-1.89,1.91-3.97,4.19-4.45,1.58-.33,3.26.33,4.7,1.27,4.08,2.66,6.74,7.19,10.39,10.34-.86,1.36-.28,4.42,1.99,1.57,3.61,1.5,12.54,4.61,14.93,7.52.91,1.11,1.46,2.48,1.33,3.8-.22,2.36-2.23,3.6-3.93,4.82,2.89,5.37,7.23,16.24,6.7,21.91-.07.77-.19,1.38-.88,1.78-1.04.6-2.72.32-3.93,0-6.24-1.69-10.68-7.69-14.3-12.73-1.94,7.28-1.88,16.93-5.44,23.33-.53.95-1.37,2.18-2.62,2.25-.7.04-1.38-.32-1.94-.8-3.84-3.35-4.98-11.56-5.53-16Z"/>
    <path class="cls-16" d="M259.64,116.62c.8-1.62,18.82-27.28,19.62-28.9.79-1.6,1.79-3.09,2.74-4.58,2.97-4.14,10.98-15.54,16.31-16.12l.47.74c-.78,2.27-6.46,6.68-8.37,8.79-2.3,2.53-4.57,5.28-6.43,8.16-2.27,2.85-21.43,29.62-24.36,31.91Z"/>
  </g>
  <g>
    <path class="cls-14" d="M57.48,141.49c7.04,4.09,11.87,7.88,16.13,15.16.98,1.67,3.33,5.24,2.75,7.39-.43.55-.79.87-1.41,1.11-1.94.75-4.44.56-6.34.44-7.74-.5-14.9-2.19-21.5-5.62.64,3.39,1.51,7.39.47,11.09-.3,1.07-.87,2.39-1.87,3.02-.62.39-1.29.41-1.89.24-5.05-1.36-10.54-11.9-12.34-16.65-.41-.74-.91-1.72-1.85-1.83-.29-.04-.38.16-.6.36-.52,1.74-.1,2.12.12,3.69.47,3.88-1.03,10.42-3.42,14.04-.71,1.07-1.64,2.14-2.83,2.53-1.12.37-2.19.09-3.06-.45-3.89-2.42-7.07-10.84-7.56-15.77-.26-2.58-.22-5.23-.2-7.87-2.01-.71-4.24-1.52-4.91-3.82-.47-1.6.07-3.4.92-5,2.41-4.52,6.84-7.77,9.79-11.9,1.46.74,4.56-.2,1.45-2.23,1.25-3.89,3.72-13.47,6.52-16.27,1.07-1.07,2.43-1.78,3.8-1.81,2.44-.04,3.88,1.9,5.27,3.52,5.29-3.58,16.1-9.29,21.97-9.38.8-.01,1.44.04,1.9.7.7,1.01.55,2.78.31,4.06-1.23,6.64-7.04,11.9-11.92,16.2,7.64,1.18,17.55.04,24.42,3,1.02.44,2.35,1.17,2.53,2.46.1.72-.21,1.46-.67,2.09-3.13,4.34-11.48,6.44-15.99,7.51Z"/>
    <path class="cls-7" d="M54.11,150.98c-1.73-.65-29.56-16.38-31.29-17.02-1.71-.64-3.32-1.51-4.93-2.32-4.49-2.6-16.86-9.6-17.89-15.04l.72-.57c2.4.55,7.39,5.92,9.71,7.65,2.79,2.09,5.8,4.12,8.91,5.72,3.11,2.03,32.18,18.81,34.77,21.57Z"/>
  </g>
  <g>
    <path class="cls-9" d="M329,53.97c3.16-1.25,2.35-3.03-.78-2.02-2.14-4.33-5.57-8.28-9.17-11.25-3.4-2.8-10.23-7.92-14.93-6.99-.81.16-1.57.64-2,1.43-1.14,2.08-.37,4.41.11,6.51-3.91-2.1-7.76-3.84-12.11-4.71-3.14-.63-7.63-1.44-10.46.76-.99.77-1.81,1.96-2,3.27-.33,2.29.99,4.5,2.19,6.21-1.03,0-2.07-.01-3.1.07-9.92.79-20.35,9.73-26.75,17.48-1.18,1.43-2.54,3.09-2.45,5.07.82,2.01,2.83,3.17,4.49,4.31,7.62,5.19,16.92,7.94,26,5.67l-.13.43c-.21.66-.44,1.33-.56,2.02-.31,1.67-.38,3.92.59,5.34.73,1.07,1.87,1.5,3.08,1.6,7.23.58,16.54-5.7,21.89-10.54-.13,2.14-.33,4.52.9,6.32.54.78,1.32,1.24,2.23,1.33,3,.3,7.15-3.37,9.36-5.34,7.9-7.08,12.55-16.15,13.61-26.96Z"/>
    <path class="cls-10" d="M329,53.97c3.16-1.25,12.36-5,13.64-8.23.18-.45-.11-.69-.31-1.08l-.72-.45c-1.48.56-3.06,2.14-4.4,3.09-2.75,1.93-5.85,3.64-8.99,4.65-2.46,1.32-5.48,2.14-8.11,2.99-16.74,5.39-40.97,8.53-47.33,10.79,11.23-.88,39.49-5.4,56.22-11.75Z"/>
  </g>
  <g>
    <path class="cls-6" d="M365.71,100.86l-.36-.02c.07-2.56-.13-4.9-.78-7.15-2.53-8.83-10.8-14.12-18.24-16.43-12.79-3.97-27.65-1.02-41.82,3.96-2.84,1-6.17,1.82-8.88,3.59-.13.27-.34.64-.42.94-.68,2.58,2.08,6.59,3.11,8.27,8.06,13.06,20.91,23.38,36.4,23.27,11.23-.08,20.13-4.7,29.83-14.28"/>
    <path class="cls-17" d="M317.02,94.25h.01s.37.09.37.09c2.84.84,5.48,2.3,8.3,3.21,1.22.4,2.45.76,3.69,1.1,1.24.33,2.49.63,3.76.9,1.26.27,2.54.5,3.82.7,1.28.2,2.57.37,3.87.5,1.3.13,2.61.23,3.92.3,1.31.07,2.64.1,3.96.1,1.33,0,2.66-.03,4-.1,1.34-.07,2.65-.11,4.06-.22.96.02,5.29-.26,6.32-.16,3.48-.09,15.06,1.42,17.61,4.43.17.39-.08.7-.25,1.13l-1.05,1.06c-1.32-.14-2.89-1.17-4.1-1.71-2.47-1.12-6.76-2.21-9.72-2.48-2.51-.34-7.55-.23-10.28-.06h0c-1.36.16-3.96.28-5.03.3-10.93.19-19.7-1.53-28.93-6.36-1.34-.7-2.62-1.53-3.97-2.18l.07-.43-.1.41c-.1-.26-.11-.39-.33-.52Z"/>
  </g>
  <g>
    <path class="cls-15" d="M416.64,134.05l-.33.16c-1.22-2.37-2.58-4.39-4.3-6.11-6.74-6.76-16.92-7.42-24.84-5.79-13.63,2.81-25.66,12.96-36.04,24.61-2.08,2.33-4.7,4.76-6.27,7.72.01.32.01.75.09,1.06.68,2.69,5.2,4.95,6.99,5.96,13.89,7.83,30.76,10.76,44.79,2.88,10.18-5.71,15.95-14.38,19.96-27.97"/>
    <path class="cls-8" d="M369.04,152.5v-.02s.39-.09.39-.09c3-.66,6.14-.66,9.16-1.25,1.31-.25,2.61-.54,3.91-.86,1.3-.32,2.59-.68,3.87-1.07,1.28-.39,2.56-.82,3.82-1.28,1.27-.46,2.53-.96,3.77-1.49,1.25-.53,2.49-1.1,3.72-1.7,1.23-.6,2.45-1.23,3.65-1.9,1.21-.67,2.4-1.37,3.58-2.1,1.18-.73,2.35-1.44,3.59-2.24.88-.47,4.68-2.89,5.67-3.32,3.12-1.82,14.41-6.28,18.24-4.82.35.27.28.68.34,1.16l-.42,1.5c-1.27.54-3.21.39-4.59.5-2.81.22-7.26,1.39-10.09,2.62-2.46.95-6.98,3.59-9.38,5.11h0c-1.16.83-3.46,2.25-4.42,2.8-9.85,5.67-18.69,8.5-29.5,8.74-1.56.04-3.15-.08-4.71.01l-.15-.42.11.42c-.23-.19-.29-.3-.56-.31Z"/>
  </g>
  <g>
    <path class="cls-14" d="M241.9,106.64c2.17-2.19,3.36-.88,1.4,1.37,2.85,3.33,4.91,7.59,6.1,11.65,1.12,3.83,2.95,11.35.5,14.93-.42.62-1.1,1.08-1.9,1.16-2.14.21-3.8-1.26-5.38-2.41.35,4,.43,7.83-.39,11.77-.6,2.84-1.53,6.87-4.37,8.44-1,.55-2.28.81-3.44.5-2.02-.54-3.4-2.43-4.39-4.04-.36.86-.73,1.73-1.17,2.55-4.2,7.98-15.37,13.47-24.11,16.04-1.61.47-3.48,1.01-5.1.23-1.38-1.4-1.63-3.49-1.98-5.28-1.61-8.2-.57-16.92,4.56-23.68l-.41-.04c-.63-.06-1.26-.11-1.88-.25-1.5-.34-3.4-1.08-4.24-2.39-.63-.99-.59-2.09-.23-3.14,2.1-6.23,10.65-11.75,16.59-14.47-1.82-.66-3.88-1.34-4.94-3-.46-.73-.56-1.54-.31-2.33.82-2.61,5.35-4.76,7.79-5.89,8.71-4.06,17.93-4.69,27.31-1.72Z"/>
    <path class="cls-7" d="M241.9,106.64c2.17-2.19,8.58-8.51,11.72-8.42.44.01.54.34.79.64l.12.76c-.99,1.03-2.87,1.78-4.14,2.57-2.59,1.6-5.12,3.58-7.08,5.83-1.97,1.58-3.74,3.8-5.38,5.69-10.46,12.02-21.73,31.08-25.87,35.57,4.74-9.04,18.59-30.96,29.85-42.63Z"/>
  </g>
</svg>