<?xml version="1.0" encoding="UTF-8"?>
<svg id="Laag_1" data-name="Laag 1" xmlns="http://www.w3.org/2000/svg" xmlns:xlink="http://www.w3.org/1999/xlink" viewBox="0 0 280.86 122.35">
  <defs>
    <style>
      .cls-1 {
        fill: #65907d;
      }

      .cls-2 {
        fill: #65a77d;
      }

      .cls-3 {
        fill: #e4ba79;
      }

      .cls-4 {
        fill: #b96e88;
      }

      .cls-5 {
        fill: url(#Naamloos_verloop_22);
        fill-rule: evenodd;
      }

      .cls-6 {
        fill: #f49d8a;
      }

      .cls-7 {
        fill: #b67e6d;
      }

      .cls-8 {
        fill: #cf746c;
      }

      .cls-9 {
        fill: #b7c6af;
      }

      .cls-10 {
        fill: #95aba7;
      }

      .cls-11 {
        fill: #f8dea7;
      }

      .cls-12 {
        fill: #dcc89a;
      }

      .cls-13 {
        fill: #fcd083;
      }

      .cls-14 {
        fill: #d99a6d;
      }

      .cls-15 {
        fill: #f67f6f;
      }

      .cls-16 {
        fill: #a05c79;
      }

      .cls-17 {
        fill: #dc867b;
      }
    </style>
    <linearGradient id="Naamloos_verloop_22" data-name="Naamloos verloop 22" x1="142.85" y1="20.53" x2="142.86" y2="127.69" gradientTransform="translate(0 17.04) scale(1 .84)" gradientUnits="userSpaceOnUse">
      <stop offset="0" stop-color="#fbb78a"/>
      <stop offset=".29" stop-color="#f8b488"/>
      <stop offset=".5" stop-color="#efaa83"/>
      <stop offset=".69" stop-color="#df9b7a"/>
      <stop offset=".86" stop-color="#ca856d"/>
      <stop offset="1" stop-color="#b26c5f"/>
    </linearGradient>
  </defs>
  <path class="cls-5" d="M22.27,122.34h23.09s4.66,1.73,4.66,1.73l9.83-1.73h43.89s16.66,2.05,16.66,2.05l3.48-2.05h14.09s2.1,1.34,2.1,1.34l6.23-1.34h19.61s11.27,2.01,11.27,2.01l-.49-1.65,4.72-.36h27.1s5.16,2.13,5.16,2.13l11.27-2.13,38.48-.02-26.38-17.31-14.44-3.02-4.3-12.7-9.62-10.2-3.04-9.51-22.72-7.13-6.08-10.98-14.58-3.12-7.46-8.91-11.53-5.13-21.36,3.34-5.56,8.1-17.63,3.12-3.39,11.59-14.79,7.05-6.27,12.84-24.93,5.88-3.82,13.02-7.03,6.81-5.56,8.29-10.66,7.98Z"/>
  <g>
    <g>
      <path class="cls-11" d="M41.25,70.75c6.16-6.9,11.47-11.42,20.54-14.5,2.09-.71,6.59-2.51,8.85-1.38.52.6.79,1.08.91,1.82.39,2.33-.39,5.07-.96,7.15-2.31,8.5-5.83,16.09-11.15,22.65,3.92.05,8.57,0,12.46,2,1.12.58,2.46,1.51,2.94,2.77.29.78.16,1.53-.16,2.16-2.66,5.31-15.65,9.03-21.34,9.94-.92.29-2.12.63-2.46,1.64-.11.31.09.46.26.75,1.82.97,2.34.59,4.14.7,4.43.36,11.37,3.51,14.85,7,1.03,1.03,2.01,2.31,2.17,3.73.16,1.33-.4,2.46-1.2,3.31-3.58,3.78-13.67,5.4-19.27,4.83-2.93-.3-5.87-.95-8.81-1.57-1.24,2.08-2.66,4.37-5.37,4.59-1.88.16-3.77-.85-5.35-2.16-4.48-3.7-7.09-9.38-11.02-13.6,1.15-1.46.81-5.13-2.15-2.12-4.05-2.27-14.14-7.2-16.62-10.96-.95-1.43-1.43-3.11-1.15-4.64.51-2.73,3-3.88,5.12-5.07-2.79-6.7-6.68-20.03-5.44-26.59.17-.89.37-1.59,1.22-1.95,1.28-.55,3.22.02,4.59.57,7.11,2.88,11.64,10.54,15.32,16.95,3.06-8.23,4.04-19.53,8.89-26.5.72-1.04,1.83-2.35,3.31-2.26.82.05,1.58.57,2.18,1.22,4.12,4.47,4.56,14.24,4.72,19.51Z"/>
      <path class="cls-12" d="M51.05,76.66c-1.11,1.77-24.95,29.18-26.06,30.95-1.1,1.75-2.43,3.35-3.7,4.96-3.92,4.41-14.52,16.59-20.81,16.49l-.47-.93c1.16-2.54,8.27-6.88,10.73-9.06,2.96-2.63,5.91-5.51,8.4-8.62,2.97-3,28.25-31.54,31.92-33.79Z"/>
    </g>
    <g>
      <path class="cls-9" d="M213.9,90.96c-8.34,3.53-14.21,7.04-19.94,14.48-1.32,1.71-4.41,5.32-4.07,7.77.39.67.75,1.07,1.4,1.42,2.04,1.1,4.83,1.24,6.93,1.37,8.62.54,16.76-.33,24.53-3.19-1.19,3.65-2.7,7.95-2.07,12.18.18,1.22.63,2.76,1.65,3.6.63.52,1.37.63,2.05.53,5.77-.79,13.31-11.66,15.96-16.66.56-.76,1.25-1.77,2.3-1.76.33,0,.4.23.61.48.33,1.99-.19,2.35-.66,4.06-1.06,4.22-.33,11.65,1.8,15.98.63,1.29,1.51,2.59,2.77,3.19,1.18.56,2.41.41,3.44-.07,4.63-2.13,9.32-10.98,10.56-16.35.65-2.81.98-5.75,1.32-8.67,2.32-.5,4.89-1.09,5.96-3.53.74-1.7.4-3.77-.32-5.65-2.02-5.32-6.46-9.53-9.14-14.51-1.72.61-5.01-.86-1.29-2.67-.83-4.47-2.22-15.39-4.92-18.87-1.03-1.33-2.43-2.31-3.94-2.53-2.69-.38-4.55,1.55-6.31,3.15-5.33-4.7-16.47-12.52-22.94-13.44-.88-.12-1.59-.16-2.2.51-.91,1.01-1,2.99-.92,4.44.42,7.5,6.11,14.12,10.89,19.56-8.6.24-19.38-2.41-27.38-.11-1.19.34-2.76.96-3.14,2.36-.21.78.03,1.65.44,2.4,2.85,5.23,11.77,8.72,16.6,10.53Z"/>
      <path class="cls-10" d="M216.29,101.92c2-.47,34.94-13.93,36.93-14.41,1.97-.47,3.88-1.2,5.77-1.87,5.33-2.25,19.97-8.23,21.86-14.1l-.72-.73c-2.72.27-8.99,5.5-11.79,7.09-3.37,1.92-6.98,3.74-10.64,5.07-3.72,1.8-38.17,16.25-41.42,18.94Z"/>
    </g>
    <g>
      <path class="cls-14" d="M226.38,65.64c3.37.26,3.12,2.19-.15,2.15-.77,4.75-2.88,9.5-5.44,13.38-2.41,3.66-7.42,10.52-12.16,11.01-.82.08-1.68-.15-2.32-.77-1.69-1.64-1.64-4.08-1.8-6.22-3.1,3.14-6.26,5.92-10.14,8.02-2.81,1.52-6.84,3.6-10.17,2.33-1.17-.45-2.3-1.34-2.86-2.53-.98-2.08-.38-4.57.26-6.55-.98.31-1.96.61-2.97.84-9.67,2.15-22.2-3.32-30.55-8.82-1.54-1.01-3.32-2.2-3.81-4.11.2-2.15,1.76-3.84,3.01-5.41,5.73-7.16,13.77-12.49,23.08-12.98l-.25-.37c-.39-.57-.8-1.14-1.12-1.76-.78-1.5-1.5-3.62-1-5.25.38-1.23,1.34-1.98,2.46-2.42,6.71-2.66,17.4.59,23.9,3.63-.74-1.99-1.64-4.2-.99-6.27.28-.9.89-1.57,1.73-1.92,2.77-1.16,7.79,1.11,10.46,2.35,9.59,4.42,16.65,11.69,20.82,21.67Z"/>
      <path class="cls-7" d="M226.38,65.64c3.37.26,13.22,1.15,15.38,3.85.3.38.1.69.02,1.11l-.55.64c-1.57-.1-3.53-1.14-5.09-1.65-3.18-1.03-6.63-1.75-9.91-1.79-2.72-.54-5.84-.44-8.59-.48-17.5-.23-41.46,3.85-48.17,3.57,10.94-2.44,39.14-6.4,56.91-5.24Z"/>
    </g>
    <g>
      <path class="cls-6" d="M194.14,118.29c2.83,1.34,3.52-.32.87-1.8,1.57-4.17,2.07-8.96,1.8-13.26-.25-4.05-1.11-11.87-4.69-14.45-.62-.45-1.42-.65-2.22-.45-2.11.54-3.2,2.52-4.31,4.17-1.05-3.95-2.3-7.64-4.45-11.12-1.56-2.51-3.84-6.04-7.1-6.56-1.15-.18-2.46.01-3.46.71-1.75,1.22-2.41,3.5-2.81,5.38-.65-.7-1.29-1.4-2-2.04-6.78-6.18-19.36-7.57-28.61-7-1.7.1-3.68.23-4.96,1.54-.83,1.82-.36,3.9-.07,5.73,1.3,8.39,5.31,16.38,12.55,21.07l-.38.18c-.58.28-1.17.55-1.71.89-1.32.84-2.88,2.21-3.22,3.76-.26,1.17.16,2.2.86,3.08,4.16,5.23,14.25,7.55,20.88,8.1-1.52,1.26-3.25,2.62-3.69,4.58-.19.85,0,1.67.51,2.34,1.69,2.21,6.77,2.69,9.49,2.94,9.74.87,18.77-1.72,26.71-7.81Z"/>
      <path class="cls-17" d="M194.14,118.29c2.83,1.34,11.15,5.17,14.13,4,.42-.16.4-.51.53-.88l-.15-.77c-1.31-.64-3.36-.71-4.85-1.02-3.03-.63-6.14-1.65-8.79-3.13-2.43-.82-4.89-2.34-7.12-3.58-14.16-7.88-31.53-22.2-37.05-25.07,7.66,7.01,28.5,23.18,43.3,30.44Z"/>
    </g>
    <g>
      <path class="cls-15" d="M159.18,14.58c2.35-2.56.81-3.83-1.62-1.51-3.9-3.02-8.8-5.11-13.43-6.23-4.37-1.05-12.92-2.71-16.81.24-.67.51-1.15,1.29-1.2,2.2-.12,2.41,1.63,4.21,3,5.92-4.52-.18-8.83-.06-13.21,1.07-3.17.82-7.65,2.09-9.26,5.37-.57,1.15-.79,2.61-.38,3.89.72,2.24,2.91,3.69,4.78,4.72-.95.45-1.9.91-2.81,1.45-8.75,5.15-14.32,18.01-16.74,27.97-.44,1.83-.95,3.97.01,5.75,1.65,1.48,4.01,1.65,6.04,1.95,9.3,1.36,19.06-.27,26.38-6.4l.07.46c.1.7.2,1.42.38,2.1.46,1.67,1.4,3.77,2.92,4.64,1.15.66,2.39.55,3.54.09,6.89-2.7,12.63-12.6,15.38-19.44.84,2.02,1.71,4.3,3.64,5.39.84.48,1.76.55,2.64.23,2.88-1.07,5.06-6.28,6.2-9.08,4.1-10.02,4.31-20.41.46-30.8Z"/>
      <path class="cls-8" d="M159.18,14.58c2.35-2.56,9.11-10.1,8.84-13.64-.04-.5-.41-.59-.76-.85l-.86-.09c-1.1,1.17-1.85,3.33-2.66,4.8-1.66,3-3.75,5.95-6.18,8.27-1.67,2.3-4.07,4.41-6.1,6.36-12.96,12.41-33.78,26.1-38.61,31,9.91-5.82,33.82-22.57,46.33-35.86Z"/>
    </g>
    <g>
      <path class="cls-4" d="M58.73,41.73l.28.25c1.82-2,3.69-3.63,5.84-4.88,8.41-4.88,18.6-2.83,25.96.87,12.66,6.36,21.82,19.53,28.96,33.72,1.43,2.85,3.36,5.92,4.13,9.25-.1.31-.21.74-.37,1.02-1.38,2.46-6.42,3.5-8.44,4.02-15.73,4.04-33.09,2.47-44.82-8.99-8.5-8.31-11.89-18.36-12.25-32.79"/>
      <path class="cls-16" d="M100.69,72.45v-.02s-.35-.19-.35-.19c-2.78-1.44-5.86-2.27-8.68-3.65-1.22-.59-2.43-1.22-3.62-1.88-1.19-.66-2.37-1.35-3.52-2.07-1.16-.72-2.3-1.48-3.42-2.27-1.12-.79-2.23-1.61-3.32-2.46-1.09-.85-2.16-1.74-3.21-2.65-1.05-.91-2.08-1.86-3.09-2.83-1.01-.97-2-1.98-2.97-3.01-.97-1.03-1.94-2.03-2.94-3.15-.75-.69-3.84-4.08-4.7-4.77-2.59-2.62-12.52-9.98-16.67-9.55-.42.18-.45.6-.64,1.05l.02,1.58c1.1.86,3.06,1.23,4.38,1.7,2.7.96,6.77,3.28,9.23,5.24,2.17,1.58,5.92,5.37,7.88,7.5h0c.93,1.12,2.81,3.12,3.61,3.93,8.19,8.17,16.14,13.29,26.71,16.39,1.53.45,3.12.76,4.63,1.26l.26-.38-.22.39c.27-.12.37-.22.63-.16Z"/>
    </g>
    <g>
      <path class="cls-13" d="M115.45,77.3l.28-.21c1.58,1.98,3.23,3.61,5.15,4.9,7.55,5.05,17.18,3.76,24.27.76,12.2-5.17,21.53-16.9,29.04-29.71,1.51-2.57,3.49-5.32,4.41-8.38-.07-.29-.15-.7-.29-.97-1.14-2.38-5.78-3.65-7.63-4.25-14.43-4.71-30.72-4.3-42.35,5.68-8.43,7.23-12.2,16.41-13.4,29.84"/>
      <path class="cls-3" d="M156.44,51.18v.02s-.34.15-.34.15c-2.68,1.18-5.61,1.76-8.32,2.88-1.17.48-2.34.99-3.49,1.53-1.15.54-2.29,1.12-3.41,1.72-1.12.61-2.23,1.24-3.33,1.91-1.1.67-2.18,1.37-3.24,2.1-1.07.73-2.12,1.49-3.15,2.28-1.04.79-2.05,1.61-3.06,2.46-1,.85-1.99,1.72-2.95,2.63-.97.91-1.93,1.78-2.93,2.76-.74.6-3.83,3.57-4.67,4.16-2.57,2.29-12.28,8.55-16.12,7.9-.38-.19-.39-.58-.53-1.02l.12-1.48c1.08-.74,2.93-.97,4.19-1.33,2.58-.73,6.52-2.65,8.93-4.34,2.12-1.35,5.85-4.65,7.8-6.52h0c.93-.99,2.81-2.74,3.61-3.44,8.13-7.13,15.86-11.43,25.9-13.68,1.45-.33,2.96-.52,4.39-.89l.22.37-.18-.37c.25.13.33.23.58.18Z"/>
    </g>
    <g>
      <path class="cls-2" d="M74.83,78.54c-2.37-2.37-.94-3.66,1.5-1.52,3.64-3.08,8.28-5.31,12.7-6.58,4.17-1.2,12.35-3.16,16.23-.48.67.46,1.17,1.2,1.25,2.07.22,2.32-1.39,4.13-2.65,5.84,4.35-.37,8.52-.44,12.79.48,3.09.66,7.46,1.69,9.16,4.78.59,1.09.87,2.48.53,3.74-.6,2.2-2.65,3.68-4.41,4.76.93.4,1.87.8,2.77,1.28,8.66,4.6,14.58,16.76,17.33,26.27.51,1.75,1.09,3.79.23,5.55-1.53,1.49-3.8,1.76-5.75,2.13-8.92,1.71-18.4.55-25.72-5.06l-.05.45c-.07.68-.13,1.37-.28,2.04-.37,1.63-1.19,3.69-2.62,4.6-1.08.68-2.28.63-3.41.24-6.76-2.31-12.72-11.62-15.66-18.1-.72,1.98-1.47,4.22-3.28,5.36-.79.5-1.68.61-2.54.33-2.83-.91-5.15-5.84-6.37-8.49-4.37-9.49-5.02-19.51-1.75-29.69Z"/>
      <path class="cls-1" d="M74.83,78.54c-2.37-2.37-9.21-9.36-9.11-12.78.01-.48.37-.58.7-.85l.83-.12c1.11,1.08,1.93,3.13,2.77,4.52,1.73,2.82,3.87,5.58,6.31,7.72,1.71,2.15,4.11,4.08,6.16,5.88,13.02,11.42,33.69,23.75,38.56,28.28-9.81-5.2-33.58-20.35-46.21-32.63Z"/>
    </g>
  </g>
</svg>