<?xml version="1.0" encoding="UTF-8"?>
<svg width="302.01pt" height="869.74pt" version="1.1" viewBox="0 0 302.01 869.74" xmlns="http://www.w3.org/2000/svg" xmlns:cc="http://creativecommons.org/ns#" xmlns:dc="http://purl.org/dc/elements/1.1/" xmlns:rdf="http://www.w3.org/1999/02/22-rdf-syntax-ns#">
<metadata>
<rdf:RDF>
<cc:Work rdf:about="">
<dc:format>image/svg+xml</dc:format>
<dc:type rdf:resource="http://purl.org/dc/dcmitype/StillImage"/>
<dc:title/>
</cc:Work>
</rdf:RDF>
</metadata>
<path d="m0 0c51.57 111.15 52.9 114.33 113.42 238.6 1.7462 3.3184 3.8299 6.391 5.173 10.025 5.4061 18.671 10.961 37.269 16.724 55.77 0.8587 2.7818 1.2315 5.7552 1.992 8.5779 14.305 47.065 28.529 94.174 42.72 141.29 7.7581 25.624 14.905 52.703 23.152 78.082 8.7886 26.492 10.945 34.34 21.532 70.719-35.01 20.373-70.235 40.183-105.2 60.686 0.7006 2.4999 1.5523 4.937 2.583 7.2575 20.731-11.956 41.462-23.912 62.261-35.674 14.313-8.1264 28.501-16.601 42.897-24.477 46.043 160.32 47.481 166.06 74.673 258.89 0-31.646-0.1475-649.97-0.13-659.44-69.57-109.32-91.53-137.19-137.46-210.06m-121.81 5.9323c1.4456 2.4322 2.866 4.896 4.032 7.571-2.4786-0.0536-5.0309 0.40812-7.4707-0.29363-1.8917-1.9621-3.0045-4.8173-4.3897-7.3063 2.6098-0.14848 5.2216-0.0977 7.8284 0.0289m-6.5463 5.5368c0.7451 1.428 0.457 2.1483-0.8716 2.164-0.7249-1.447-0.437-2.1672 0.8716-2.164m35.831-4.6936c0.9286-0.0704 1.7988 0.21 2.5376 0.91386-2.7382 0.26517-5.4891 0.5145-8.2445 0.49186l-0.4616 0.72935-0.858-0.0749-0.351-0.79144c-1.3294 0.49002-2.7311 0.54663-4.1078 0.72979-0.047-0.43335-0.1239-1.2968-0.1634-1.7333 3.8754-0.18014 7.7685-0.35707 11.649-0.26523m74.313-6.7498c7.8792-0.003957 8.6072-0.079612 14.738-0.034212 0 0 16.594 28.674 15.923 30.012-2.0792 2.0345-4.2351 4.8278-6.7776 5.5172m-101.13-23.383c-1.5994 0.96053-3.2865 1.6837-5.046 2.0366-0.507-0.84242-1.0215-1.6817-1.536-2.521 2.1386 0.16341 4.8085-1.4744 6.582 0.48433m-28.083 8.4528c0.8383 1.3682 0.5605 2.0316-0.8385 2.0028-0.8056-1.3713-0.5303-2.0442 0.8385-2.0028m36.82-10.224c-0.01 1.1606 0.1724 2.4354-0.3955 3.4617-2.0846 0.67789-4.2982 0.19806-6.4039-0.15817 2.0887-1.6171 4.3529-2.8859 6.7994-3.3036m4.3987-0.0397c1.0109 0.43257 1.4616 3.5106-0.133 2.9311-1.2703-0.27194-1.5139-3.7732 0.133-2.9311m-2.3018 4.3709c-1.4696 0.0217-1.3569-2.8273-0.1636-3.2291 1.5303-0.17331 1.9173 3.3631 0.1636 3.2291m-34.909 21.964c-3.8816 2.4791-6.236-4.4838-4.3508-8.0177 1.6998 2.4423 3.2886 5.0362 4.3508 8.0177m2.7678-3.0796c-0.5164 0.36238-1.5567 1.0903-2.0732 1.4527-1.0991-1.9127-2.1429-3.8696-3.1237-5.8738 2.7067-1.0527 4.7163 1.1975 5.1969 4.4211m2.7149-4.5849c1.3295 1.0374-0.4931 3.0915-1.5233 2.1719-1.41-1.0882 0.4629-3.1738 1.5233-2.1719m87.888-28.903c0.6235 5.1339 1.1433 19.179 1.4045 24.369-3.2638-3.2241-12.842-20.426-15.351-24.512m-37.27 23.088c-1.689 0.39741-3.8464 0.89488-4.9905-1.2204 1.6809 0.0168 3.7833-0.75275 4.9905 1.2204m-32.455 11.841c1.5336 0.88924-0.016 3.4722-1.3126 2.6214-1.6345-0.73139 0.1311-3.3517 1.3126-2.6214m93.084-29.656c6.9836 10.788 14.179 21.362 21.1 32.228-2.0689 1.8828-4.1554 3.7307-6.3723 5.338-5.6909-8.7452-11.442-17.434-17.206-26.106-0.6776-1.1085-1.4937-2.2647-1.4812-3.7446-0.6967-10.428-2.4015-17.383 3.9603-7.7156m-60.465 24.804c0.8476 0.25825 2.139 5e-3 2.5547 1.2333-1.7974 2.0858-4.2071 3.0886-6.3032 4.6456-1.6529 1.2988-3.6116 1.9454-5.5561 1.5958-1.0961-0.72372-1.5791-2.3978-2.4027-3.5192 0.7847-1.38 1.5544-2.7537 2.3115-4.1432 3.1355-0.0934 6.2708-0.0604 9.3958 0.18771m-43.152 14.987c1.1546 1.9002 2.2712 3.8478 3.262 5.8899-1.0604 0.68358-2.1209 1.3672-3.1939 2.0665-0.9288-1.5202-1.9355-2.9868-2.6374-4.6962 0.2541-1.5805 1.7498-2.1713 2.5693-3.2603m7.4841 2.9531c0.2132-1.1632 0.3987-2.3359 0.5792-3.496 0.9428 0.52411 3.0729-0.2675 2.8181 1.7874-1.9421 1.2506-3.9795 2.267-5.8915 3.5999-0.9435-1.672-1.882-3.3567-2.7424-5.0949 2.1571-0.33934 4.7791-0.31387 5.2366 3.2037m39.348-12.719c-0.9448 2.3314-2.8252 2.7979-4.7114 2.1292 1.416-1.1792 2.8955-2.6903 4.7114-2.1292m10.816 2.8096c-1.7383-0.33002-2.5504-2.3622-3.3983-4.053 1.751 0.31424 2.7849 2.1067 3.3983 4.053m-43.679 12.446c1.4152 2.5713 2.0622 5.5992 2.0221 8.7234-2.0176-1.9624-3.3016-4.7674-4.6134-7.4554 0.6472-0.31146 1.9391-0.94388 2.5913-1.268m-3.5463 2.0973c1.7141 2.9104 3.4458 5.824 5.0037 8.8731-1.2557 6e-3 -2.6306 0.61013-3.8323-0.1012-1.6473-2.1481-2.8738-4.7347-3.9895-7.3464 0.7027-0.3556 2.1154-1.0699 2.8181-1.4255m-4.5136 2.721c1.1921 1.9794 2.3918 3.9872 3.1532 6.3039-1.4445-0.01-2.9064-0.023-4.3633-0.0804-0.7124-1.4311-1.4248-2.8622-2.1372-4.2934 1.1183-0.65498 2.234-1.2878 3.3473-1.9302m111.73-11.658c-1.7489 1.6337-3.5329 3.1978-5.3671 4.6669-3.6934-5.2364-7.4297-10.413-11.133-15.624-0.2587-5.1172-0.8824-10.188-1.0505-15.311 6.1923 8.3574 11.772 17.444 17.551 26.268m-91.791 8.9874c0.5491 1.2568 1.1184 2.5263 1.3476 3.9688-0.7725-5e-3 -1.5349-4e-3 -2.3125 4e-3 -0.26-1.1138-0.5174-2.218-0.7749-3.3223 0.4356-0.16019 1.3043-0.49008 1.7398-0.65028m28.058-0.27833c0.5412 1.4813 1.0623 2.9815 1.5632 4.5006-3.4677 0.0736-6.9374-0.14684-10.407-0.20919-1.8876-2.9962-3.7777-6.0019-5.2495-9.3607 4.7637 1.4095 9.3907 3.4132 14.094 5.0693m42.423-10.722c-3.1084-1.203-5.8779-3.4741-7.3818-7.2093 0.1849-0.79328 0.5523-2.3893 0.7372-3.1826 2.5544 3.0769 4.7758 6.6084 6.6446 10.392m-34.16 8.2005c-2.1995 0.14634-3.018-2.6417-3.9938-4.5952 2.0302 0.2928 2.9651 2.6953 3.9938 4.5952m5.2434 2.0843c-3.1078 0.0713-4.6146-3.4836-6.1251-6.2892 3.1519-0.89028 4.4354 3.8532 6.1251 6.2892m-53.744 17.256c1.3732 2.062 2.6002 4.2692 3.661 6.6088-1.0932 0.74991-2.2016 1.4745-3.3175 2.2022-1.5986-2.7899-3.25-5.5579-4.589-8.5717 1.4168-0.0945 2.8312-0.16691 4.2455-0.2393m58.621-22.351c1.1001-0.2471 1.8614 2.1012 0.7959 2.7658-1.1859 0.39868-2.0549-2.2313-0.7959-2.7658m-47.494 22.714c0.8005 1.4155 0.5327 2.1169-0.811 2.1072-0.8005-1.4155-0.5327-2.1169 0.811-2.1072m44.853-7.2254c-2.4632-0.18635-3.3689-3.528-4.6338-5.6562 2.501 0.20226 3.4219 3.4111 4.6338 5.6562m27.315-17.413c0.9114 1.3589 0.6813 2.0445-0.6951 2.038-0.9139-1.3684-0.6813-2.0445 0.6951-2.038m-61.069 25.308c2.3063 3.9807 4.8569 7.7754 6.8911 11.996 0.027 1.8532-1.7232 2.9082-2.5206 4.3356-1.4092-0.0351-2.8133-0.0512-4.2249-0.0642 0.4674-1.1847 0.9297-2.3568 1.3945-3.5193-0.1649-0.68979-0.4975-2.0789-0.6624-2.7686-1.3764-0.0382-2.7784 0.1449-4.1467-0.21266-1.1598-1.7927-1.6166-4.0992-2.3104-6.1912 1.8565-1.2255 3.7155-2.4099 5.5794-3.5754m38.662-8.1672c-1.1098 0.051-2.217 0.0799-3.3293 0.1214-0.7379-1.3047-1.4807-2.5967-2.2109-3.9046 2.1533 0.44173 4.4421 1.1431 5.5402 3.7832m-45.307 17.274c0.1528 2.0116-2.1462 1.3987-1.771-0.32694-1.646 0.17934-1.7224-4.0552 0.1029-3.045 1.1097 0.0122 1.6322 2.1544 1.6681 3.372m-5.7183-0.92807c0.548 1.9841 1.0808 3.9745 1.5457 5.9932-1.425-1.1451-3.976-4.7185-1.5457-5.9932m-5.8059 3.6064c0.6776 1.1717 0.4375 1.7878-0.7301 1.8418-0.6826-1.1907-0.4425-1.8068 0.7301-1.8418m121.71-41.115c0.3689 5.44 1.0172 10.859 1.1672 16.327-3.9654-5.0916-7.3534-10.855-10.968-16.335 2.2631-2.1637 4.5965-4.2197 6.9549-6.2125 1.1898 1.875 2.921 3.5775 2.8463 6.2209m-11.391 1.4011c4.1893 6.7366 8.7717 13.088 12.89 19.875 1.016 5.2551 0.9947 10.773 1.5273 16.135-0.9173-0.74541-1.7059-1.7024-2.3887-2.7666-6.1103-9.2553-12.213-18.514-18.334-27.744 1.9986-2.0221 4.1027-3.8668 6.3045-5.4994m-55.008 30.592c-2.3848-0.46128-4.7111-1.3367-6.9059-2.6039 2.5076-0.79068 5.9534-1.3608 6.9059 2.6039m-10.592 1.8268c1.4787 3.83 3.0102 7.638 4.2999 11.578-1.2909 0.0632-2.5945 0.1422-3.8982 0.22119-2.0706-3.4362-4.116-6.904-6.1941-10.337 0.6305-0.94712 1.2461-1.9196 1.9545-2.7622 1.3157 0.25308 2.5755 0.80328 3.8379 1.2997m58.295-26.261c7.1278 10.317 13.88 21.022 20.857 31.497 1.6603 1.9742 1.4139 5.0157 1.6942 7.6063-1.9799-1.8833-3.5388-4.3316-5.1985-6.6221-6.9273-9.8108-14.074-19.404-20.772-29.458 1.1415-1.0123 2.2855-2.015 3.4194-3.0242m-43.559 25.816c-2.3333 0.40215-3.1212-2.683-4.185-4.6526 2.0503 0.36874 3.101 2.702 4.185 4.6526m2.9284-4.3788c1.2753 1.9448 2.7367 3.8648 3.0774 6.4618-3.4287 0.92121-5.1737-3.1878-6.9282-6.0287 1.2663-0.34788 2.5574-0.44271 3.8508-0.43318m-36.447 14.219c1.4927-0.28407 1.8096 3.0181 0.1541 2.8749-1.762 0.34349-1.7671-2.7935-0.1541-2.8749m-15.671 10.64c1.0679 2.621 2.1684 5.2706 2.6671 8.1811-0.4533 0.25186-1.3575 0.76507-1.8184 1.0201-1.903-2.7686-3.4734-5.8652-5.0741-8.9176 1.4118-0.1135 2.8161-0.19224 4.2254-0.28362m117.39-49.325c13.396 19.949 26.8 39.895 40.181 59.851 0.8792 0.95086 0.6052 2.3922 0.5906 3.6729-2.6049 1.853-5.1419 3.8674-7.807 5.5874-10.456-15.853-21.078-31.542-31.425-47.493-0.813-4.6759-0.8205-9.5079-1.3289-14.237-0.117-2.4479-0.7547-4.9635-0.21-7.3813m-67.604 34.928c1.1872 1.8972 2.4022 3.8039 3.204 6.0194-2.7028 0.0818-5.4153 0.0309-8.1228-0.0328-1.0799-2.9847-2.2832-5.897-3.3908-8.8596 2.8248 0.69954 5.5608 1.8258 8.3096 2.873m-38.976 14.323c0.1979 0.59184 0.5835 1.7692 0.7814 2.361-0.4733 0.14429-1.4124 0.42973-1.8857 0.57403-0.1777-0.61076-0.5381-1.8196-0.7134-2.4209 0.4532-0.12537 1.3646-0.38874 1.8177-0.51411m51.781-20.474c0.8659 1.441 0.6107 2.0949-0.7656 1.9619-0.8281-1.4251-0.5729-2.079 0.7656-1.9619m23.715-5.023c1.07 1.2612 0.2944 3.2168 0.287 4.7473-2.2197-1.457-3.4633-4.2998-4.8057-6.8171 1.6177 0.2222 3.6464-0.0637 4.5187 2.0698m-29.741 17.622c-2.3981-3e-3 -3.2155-3.5497-4.5662-5.4947 2.4129 0.21785 3.4726 3.2215 4.5662 5.4947m-33.771 8.7865c0.9987 1.7544 1.9622 3.534 2.8703 5.3577-2.8115 0.40097-5.6231 0.99167-8.464 0.93088-0.2309-0.46227-0.6773-1.3931-0.903-1.868 2.0209-1.7785 4.2751-3.0853 6.4967-4.4206m-5.0032 11.648c-1.9995 0.96903-3.3279-0.82728-4.3339-2.7366 2.149-1.579 3.4114 0.50809 4.3339 2.7366m-4.8964-1.9127c0.9775 0.91 1.0039 1.6785 0.069 2.2992-0.9724-0.92263-0.9964-1.6816-0.069-2.2992m78.852-23.354c-1.2632-1.6444-2.4583-3.3486-3.6081-5.1034 0.1748-0.73638 0.5344-2.2028 0.7093-2.9392 1.5845 2.1005 4.9444 4.9264 2.8988 8.0426m-64.67 20.645c0.5038 1.2124 1.0027 2.4374 1.494 3.6656-2.8115 0.40097-5.6451 0.52676-8.4614 0.8455-0.6651-1.1243-1.31-2.2674-1.9675-3.3948 2.9626-0.5587 5.9501-0.89599 8.9349-1.1163m-16.9 10.972c-2.3392 0.95238-2.2651-2.9971-2.9217-4.757 1.5891 0.87673 2.2905 2.8707 2.9217 4.757m32.215-16.566c1.0927-0.37044 2.0981 1.9816 0.829 2.5097-1.1432 0.4968-2.2589-2.0832-0.829-2.5097m16.103-2.3192c0.6475 1.0578 1.28 2.1219 1.9023 3.2113-2.9767-0.0675-5.9038-1.3143-8.5307-3.0127 2.1998-0.30445 4.414-0.23572 6.6284-0.19861m-42.69 15.658 0.4122 1.9142c0.5899-0.62467 1.1596-1.262 1.7192-1.9058 1.2763-0.3099 2.1532 0.50498 2.6391 1.9672 0.03 1.578-0.3879 1.8047-1.2643 0.67359l-1.1683-1.1571c-0.3079 0.5811-0.6208 1.1748-0.9262 1.7654-0.8554-0.12861-1.7108-0.25722-2.5712-0.37319-0.1677-0.54117-0.5058-1.633-0.6659-2.1773 0.4557-0.17912 1.3672-0.53737 1.8254-0.70699m9.4918 0.0109c-0.3017 1.4001-1.751 1.3712-2.6151 1.9731-0.1651-0.59492-0.4879-1.7879-0.6505-2.3733 1.0641 0.15759 2.4165-0.56322 3.2656 0.40022m68.36-29.199c1.1632 1.233 2.0162 2.8479 2.8391 4.4437-0.7625 1e-3 -1.5174-6e-4 -2.2874 4e-3 -0.7908-1.2194-1.905-3.1575-0.5517-4.4475m-28.797 18.852c-2.4836-0.0409-3.465-3.2562-4.4704-5.5767 2.2892 0.4484 3.1323 3.5843 4.4704 5.5767m83.667 15.978c-2.1415 1.6391-4.3131 3.2275-6.5047 4.7716-7.0844-10.757-14.328-21.352-21.208-32.289-0.9428-5.3909-1.1177-10.954-1.474-16.441 9.9775 14.388 19.559 29.214 29.186 43.958m-85.328-10.862c3.1369 0.70664 4.4365 4.7797 6.138 7.6743-4.756 0.0515-9.5021 0.1409-14.258-0.029-1.526-4.0736-3.1604-8.0812-4.6109-12.186 4.3137 1.1965 8.4854 3.0631 12.731 4.541m41.659-22.592c1.0491 0.10063 1.9929 1.6462 1.6838 2.9546-0.9496 0.59532-2.7722-2.1224-1.6838-2.9546m-82.797 38.922 0.4174 1.8383c0.6325-0.58978 1.255-1.1859 1.8674-1.7884 1.3997-0.38233 2.2458 0.8246 2.7166 2.3247-0.5062 0.21062-1.5235 0.6445-2.0371 0.85826l-0.7365-2.1269c-0.2203 2.504-1.1468 4.3959-3.2213 5.0169-0.5368-1.1145-1.0534-2.2478-1.5397-3.3938 0.7691-1.0258 1.6637-1.8616 2.5332-2.7291m79.414-28.899c0.8005 1.3839 0.5428 2.0916-0.791 2.1199-0.8181-1.4187-0.5502-2.1201 0.791-2.1199m-28.751 20.107c-2.5759 1.072-3.4415-3.74-4.8829-5.6789 2.3922 0.52138 3.4317 3.6072 4.8829 5.6789m34.286-9.7909c-1.9493-2.2121-4.2533-4.4346-4.9728-7.7694 2.2972 1.7513 3.9383 4.7026 4.9728 7.7694m-33.68 6.8103c0.9506 0.36285 1.9501 1.6745 1.7164 3.0147-1.1647 1.4012-3.0715-2.1769-1.7164-3.0147m-34.794 17.977c-0.056-1.3568-0.081-2.7261-0.1093-4.0733 2.0628 0.38458 1.4925 3.0237 0.1093 4.0733m-5.8007-1.273c0.8205 1.4282 0.5628 2.1359-0.7684 2.1421-0.8181-1.4187-0.5628-2.1359 0.7684-2.1421m-2.9749 1.8805c1.4706 2.5904 3.8117 5.2399 2.7468 8.7379-1.3478-2.2201-3.1941-4.2644-3.7862-6.9885 0.2623-0.43575 0.7847-1.3167 1.0394-1.7493m91.39-37.041c5.2262 8.2539 10.704 16.255 15.988 24.443 1.3202 2.1789 3.2827 3.9958 3.6052 6.8742-0.8648-0.54605-1.7269-1.1459-2.3545-2.0961-3.3747-4.6949-6.6862-9.4686-10.104-14.104-1.9262-2.4745-2.6279-5.9326-3.9721-8.8706-3.3145 1.9587-3.5627-3.4684-3.1633-6.247m-7.0382 4.7197c1.0283 0.59389 2.2591 2.0516 2.0327 3.61-1.2548 1.0594-3.2873-2.6139-2.0327-3.61m-91.494 37.695c1.1888 0.91685 0.07 3.6684-1.1537 2.3973-1.1435-0.93571-0.057-3.6526 1.1537-2.3973m8.8211 4.019c-0.8221 1.1111-1.4072 3.5984-2.9785 2.6616-1.2453-1.7993-2.2209-3.8477-3.2545-5.8298 0.7993-1.0384 1.6011-2.0673 2.3979-3.0836 1.2977 2.0619 2.5551 4.1616 3.8351 6.2518m16.939 2.1892c-3.2888-0.0429-6.6846 0.68547-9.9042-0.20795-0.6484-2.1108-0.4331-4.6022 0.025-6.7419 0.9514-1.7337 2.1465-3.2107 3.2561-4.7575 2.3242 3.7942 4.7139 7.5506 6.6223 11.707m-22.495 0.74432c-0.9487 0.0261-1.8949 0.0617-2.8486 0.10046-0.3929-1.4272-0.1995-2.856 0.2205-4.2211 1.307 0.88867 2.1074 2.3991 2.6281 4.1206m48.961-19.153c0.65 1.0989 1.295 2.2105 1.9198 3.341-3.1828-0.3083-6.2733-1.6346-9.1923-3.2325 2.4187-0.33237 4.8544-0.25044 7.2725-0.10847m-3.3015 8.0208c-2.4535 1.632-4.9622 3.15-7.546 4.4781-1.4474-2.916-2.8092-5.8888-3.9467-8.997 3.8731 1.3061 7.8473 2.3912 11.493 4.5189m8.3926-5.178c-1.7918 1.757-2.4608-1.6726-3.3949-2.9588 1.6664-0.32475 2.4206 1.7105 3.3949 2.9588m0.6744-3.1669c1.0675-0.37051 2.2013 1.9281 0.9472 2.5448-1.0953 0.45582-2.2968-2.0042-0.9472-2.5448m47.496-5.9128c-2.9226 0.64735-4.4499-2.6357-5.7869-5.2922 2.7353-0.0533 4.5128 2.5884 5.7869 5.2922m-95.94 37.27c-1.2558 0.0696-2.5167 0.15187-3.7801 0.25626-0.4283-1.2122-2.3033-2.6336-0.7641-3.7271 2.0343-0.67802 4.9066 0.17027 4.5442 3.4708m53.5-12.836c-4.1723 0.1035-8.3519 0.0204-12.527 0.11442-1.5148 9e-3 -3.0878 0.1473-4.5386-0.55516 3.904-2.3304 7.663-5.2114 11.772-6.9215 2.6961 0.94272 3.6815 4.8411 5.293 7.3623m8.0961-10.185c0.7984 1.153 0.5987 1.7312-0.6117 1.7188-0.7858-1.1688-0.5836-1.7375 0.6117-1.7188m-4.5535 10.491c-2.7105 0.27472-3.5343-3.9648-5.0056-6.1124 2.5711 0.43644 3.6303 3.7879 5.0056 6.1124m40.178-21.976c0.9075 0.61256 0.4156 2.9451-0.6784 2.5787-0.8621-0.63143-0.408-2.9483 0.6784-2.5787m-35.616 21.984c-2.7776 1.2612-4.0759-2.0118-5.3631-4.3836 2.2819 0.32504 4.3482 1.6773 5.3631 4.3836m39.224-18.408c-0.1707-1.8251 2.026-1.7595 2.0409-0.0171 0.6903 1.0611 1.3932 2.1064 2.0911 3.1643-0.4399-0.26989-1.3324-0.8255-1.7824-1.1017 0.9762 1.7322-1.4435 4.3193-2.5133 2.8683-1.1655-1.3057-2.2199-2.8579-2.8537-4.6588 0.3755-1.9787 2.3989-2.157 3.0174-0.25499m-76.276 32.079c-1.7081 2.9019-3.3911 5.8355-5.2374 8.5948-1.1923-1.9161-2.3543-3.8765-3.1938-6.0763 2.6243-1.4924 5.4412-3.7813 8.4312-2.5184m-6.6674 10.58c-0.192 0.51181-0.5761 1.5354-0.7681 2.0472-1.6167-2.4769-3.1023-5.0926-4.5526-7.7336 0.3702-0.21728 1.1158-0.66448 1.4836-0.89125 1.5218 1.9264 2.8243 4.1654 3.8371 6.5776m-6.3233-5.0058c1.6258 3.0525 3.6094 5.8086 4.8246 9.1794-1.2308 0.16455-2.4693 0.42711-3.7148 0.34497-1.6926-2.1609-2.9012-4.8392-4.3746-7.2177 1.0757-0.81636 2.1665-1.5758 3.2648-2.3067m-1.6705 9.3752c-1.5252 0.19228-5.8737-6.7877-7.4088-6.7283 0.1189-1.9983 2.0787 2.2152 3.4949 0.87785 1.9365 0.76374 2.6461 3.9341 3.9139 5.8504m16.018-13.555c2.1063 4.6854-1.4055 8.9173-3.5875 12.28-0.6928-1.0706-1.3757-2.1348-2.0634-3.1864 1.6959-3.2024 3.3092-6.5599 5.6509-9.0934m104-41.108c0.8659 1.5042 2.3358 2.8202 2.0432 4.9224-0.1363 5.0498-0.2953 10.109-0.6202 15.143-3.3472-4.5272-6.3693-9.4109-9.472-14.187 2.5928-2.1534 5.2782-4.1137 8.049-5.8777m-70.807 34.385c0.7528 1.3616 1.4727 2.758 2.1575 4.1796-3.2519-1.1433-6.6301-1.9707-9.6289-3.9672 2.4891-0.2563 4.9801-0.18689 7.4714-0.21234m5.0253 11.15c3.2651 0.68482 4.4938 5.0929 6.3816 7.9626-6.0754 0.51621-11.476 3.5365-17.551 4.0532l-2.9202-8.1907c-3.909-5.7366-4.8533-5.507-8.0139-11.934 7.455 2.3016 14.712 5.5072 22.104 8.1091m67.147-21.201c-0.1832 4.49-0.2079 9.0088-0.5169 13.498-0.8331 0.0833-1.1275-1.4796-1.7382-1.9523-5.2014-8.0324-10.665-15.819-15.7-24.015 2.1968-1.5883 4.4011-3.1798 6.6455-4.6511 3.7278 5.7488 7.5085 11.444 11.309 17.12m-14.969-5.4636c1.9553 3.0944 4.1879 5.9365 5.8081 9.3494-2.4972-2.5423-4.3491-5.88-6.5867-8.7411-1.4635-2.2141-3.514-4.047-4.0706-6.9861 2.0359 1.5546 3.3302 4.1445 4.8492 6.3777m-50.507 21.397c-2.6671-0.16473-3.6657-3.6678-5.0133-5.9828 2.6522-0.0187 3.5168 3.8667 5.0133 5.9828m-46.469 12.038c1.3281 0.33216 0.783 2.9713-0.5246 2.3672-1.4314-0.24704-0.7452-2.9554 0.5246-2.3672m89.233-36.765c4.6829 6.4152 9.6353 12.676 13.852 19.549 0.8212 1.0488 1.6449 2.107 2.4938 3.1337-3.1798-0.58342-6.7937-0.26982-9.5201-2.759-3.7432-5.5528-7.2243-11.383-10.907-16.993 0.8718-0.69987 1.7511-1.4029 2.6203-2.0806l0.7386 0.79872c0.1844-0.4138 0.5455-1.2383 0.7223-1.6489m-41.135 18.951c2.344 2.3744 4.113 5.5568 5.9302 8.5718-1.6953-0.51649-3.4309-0.93188-5.0299-1.815-1.5971-2.0847-3.0479-4.4094-3.9748-7.0681 0.7673 0.081 2.3071 0.23024 3.0745 0.3112m7.3116 0.581c1.2178 1.6948 2.3726 3.4686 3.4366 5.3433-1.6893-1.0983-2.9243-3.0494-3.4366-5.3433m62.984-25.452c7.6598 11.191 15.204 22.515 22.818 33.757-0.5912 4.7546-4.0985 7.573-6.2532 11.23-5.9123-8.7268-11.739-17.542-17.609-26.297 0.4225-6.2223-0.03-12.586 1.0435-18.69m-121.96 54.364c-0.6267 1.6618-1.3816 3.2506-2.2244 4.76-0.6948-1.3963-3.0725-3.1984-1.5676-4.8991 1.1166-1.1388 2.61-0.27498 3.792 0.13905m9.7221-0.86452c0.2934 0.66797 0.8827 1.9818 1.176 2.6498-0.3098 0.25537-0.9323 0.78826-1.2497 1.0468-0.5546-0.99117-1.1142-1.9697-1.6663-2.9514 0.4357-0.19182 1.3044-0.55333 1.74-0.74515m82.235-21.075c1.2998 2.3243 4.3743 4.2262 3.2318 7.5248-3.6681-5.3628-7.2277-10.855-10.578-16.54 3.2032 1.6903 4.8092 6.1626 7.3463 9.0149m-38.99 5.333c0.4905 0.17514 1.4687 0.51592 1.9667 0.68792 1.1823 1.9098 2.3494 3.8259 3.4862 5.7861-0.3776 0.0623-1.1402 0.19008-1.5177 0.25239-1.353-2.2075-2.6781-4.437-3.9352-6.7264m-44.269 20.034c-1.1892 0.92676-2.406 1.7807-3.6729 2.5397 0.1875-2.406 2.1275-5.573 3.6729-2.5397m56.353-13.496c-1.6204-0.042-3.3449 0.41229-4.909-0.24301-1.0674-1.315-1.8626-2.9329-2.7308-4.4466 2.6858 0.99962 6.3598 0.9771 7.6398 4.6896m-41.86 9.9618c0.6091 1.5795-2.1189 3.2835-3.0435 2.3831 0.1535-1.6124 1.824-2.9396 3.0435-2.3831m1.9426 3.2683c2.1701 4.1954 4.8668 7.9399 6.8504 12.287-3.486 0.54476-7.0063 0.45065-10.516 0.39452-0.5494-1.0354-1.114-2.0646-1.6761-3.0842 0.049-2.0427 0.082-4.0791 0.085-6.103 1.6906-1.3145 3.4413-2.496 5.2572-3.4939m-11.019 12.834c-2.0391 0.56416-3.6908-0.45503-4.6333-2.7911 1.0254-0.75324 2.0532-1.497 3.066-2.2345 1.4451 1.1262 1.7541 3.0306 1.5673 5.0256m-5.9553-0.61874c0.2717 1.6356-0.094 1.9351-1.0759 0.91123-0.3523 0.0308-1.0596 0.11438-1.4169 0.15776-1.5821-2.0594 2.9732-4.0815 2.4928-1.069m103.67-34.693c-0.1775 2.4756-0.3123 4.9545-0.4596 7.4492-3.5551-3.598-6.6079-8.1213-8.9026-13.076 3.4284 0.92239 7.3985 1.4192 9.3622 5.6268m11.104-9.1716c4.6643 7.0761 9.3866 14.086 14.079 21.14-1.5517 2.6367-3.2641 5.1085-5.0972 7.4409-3.7728-5.9513-7.9765-11.502-11.492-17.687-0.197-4.3739 0.2478-8.7621 0.3477-13.123 0.8396 0.54599 1.5984 1.2626 2.1631 2.2284m-57.587 38.364c3.5269 0.69179 4.9742 5.2617 6.8765 8.473-6.3466 0.21829-12.703 0.3986-19.057 0.33541-3.2222-5.6748-6.9458-10.899-9.8604-16.838 7.4399 2.2447 14.667 5.4628 22.041 8.0299m-4.947-11.33c0.7807 1.2447 1.5562 2.5021 2.299 3.7941-3.5202-0.0941-6.8338-1.9491-10.133-3.3044 2.5854-0.65451 5.2197-0.51833 7.8342-0.48971m6.8906 5.9811c-2.7326-0.15856-3.7333-3.9242-5.169-6.2552 2.6845 0.32604 3.6955 3.9082 5.169 6.2552m3.882-5.9766c2.4788 3.0767 4.7534 6.4597 6.8163 9.9939-2.1029-0.5681-4.1752-1.2753-6.2248-2.0867-3.1189-0.86155-4.2723-5.143-6.1854-7.8862 1.8623-0.0903 3.7398-0.34491 5.5939-0.0209m42.901-5.823c-2.5551-2.6026-1.4338-6.7772-1.1339-10.252 2.9105 2.1702 1.6097 6.9041 1.1339 10.252m-13.86-3.0385c2.9677 4.2954 6.1394 8.3795 9.0516 12.751 0.8212 1.0171 0.9473 2.4816 1.2093 3.8262-0.418 0.19503-1.2565 0.57559-1.6821 0.77376-2.9444-4.6527-6.1081-9.0877-8.8508-13.93-0.9044-1.0142 0.1269-2.3176 0.272-3.4209m-86.772 38.785c0.2546 1.2845 0.2802 2.6222-0.1646 3.8607-0.6073-1.064-1.2096-2.1091-1.8069-3.1668 0.491-0.17271 1.4805-0.52128 1.9715-0.69399m9.3885 0.0328c0.9362 1.5487 1.8799 3.0942 2.8261 4.6492-1.0005 1.0063-2.094 1.8511-3.225 2.6167-1.2548-2.2167-2.8746-4.292-3.2703-7.0663 1.2256-0.0887 2.4436-0.14257 3.6692-0.19962m3.7308 3.7882c-0.7177-1.2288-1.4254-2.4512-2.1054-3.6956 1.9013-0.89654 3.8472 1.7804 2.1054 3.6956m94.821-40.913c1.8232 2.3067 3.7144 4.585 5.1773 7.2734 1.5147 1.6766 2.4574 3.8862 2.1941 6.4818-1.1953 1.6035-2.388 3.2164-3.5959 4.8041-1.8659-2.3732-3.6133-4.901-5.3305-7.4414-0.073-3.172-0.063-6.3469 0.2565-9.4925-1.0075-0.9923 0.6668-3.1954 1.2985-1.6254m-45.292 27.349c-3.0554 0.33396-4.0266-4.4973-5.6812-6.9268 2.845 0.71225 4.0169 4.3644 5.6812 6.9268m-56.773 16.547c1.1731-0.31964 1.8411 2.1518 0.7304 2.772-1.2161 0.44287-1.8586-2.2182-0.7304-2.772m65.706-16.967c-2.4413 0.21531-4.9458 0.73088-7.3707 0.14934-1.0521-1.4478-1.8824-3.1037-2.7505-4.7123 3.39 1.3176 7.315 1.6435 10.121 4.563m-44.675 20.371c-1.0316 1.4932-2.0279 3.0244-3.0243 4.5557-1.4283-2.2076-2.7559-4.5099-4.0356-6.8532 1.2063-2.1663 2.5131-4.3324 4.558-5.2887 1.0102 2.4343 1.8971 4.941 2.5019 7.5862m108.45-51.577c0.8461 6.0104 0.1492 12.305-0.3434 18.356-2.1016-2.9493-4.0696-6.0279-6.0905-9.0529 2.0156-3.23 4.1369-6.3776 6.4339-9.3033m-121.04 51.824c1.037 1.4224-1.6171 4.2018-2.4067 2.2551-0.126-1.4961 1.3554-2.6498 2.4067-2.2551m6.6476 3.5646c0.4866 1.0195 2.6032 4.0257 0.4341 4.033-1.3097-2.4572-4.0588-4.8736-3.3566-8.1575 1.1254 1.1855 2.092 2.5951 2.9225 4.1245m-10.966-0.45092c0.5047 0.70644 1.0119 1.4224 1.5166 2.1288-0.7924 1.4147-1.6149 2.8104-2.4676 4.1871-0.7303-1.2762-1.453-2.5556-2.1657-3.8286 1.0432-0.84491 2.0761-1.6645 3.1167-2.4873m88.554-35.777c0.7402 1.3458 1.483 2.7011 2.1828 4.0848-1.6164 0.57785-2.214-1.7859-3.1459-2.9361 0.2421-0.29034 0.7211-0.85836 0.9631-1.1487m-77.696 41.866c-0.805 1.4305-2.3977 2.9571-3.7645 1.6192-1.0245-1.4066-1.8196-3.0245-2.6803-4.573 0.7141-1.2663 1.4333-2.5452 2.1448-3.7894 1.6274 2.0405 2.9221 4.4408 4.3 6.7432m43.46-20.593c1.302 0.99618 1.9759 2.8857 2.8895 4.3806-3.8035-0.78735-7.4573-2.406-11.088-3.9708 2.6959-0.58466 5.4691-0.68531 8.1989-0.40975m5.4724 11.701c3.7105 0.72071 5.1144 5.6985 7.2885 8.923-6.4099 0.48692-12.847 0.33183-19.261 0.61003-3.4683-5.8778-7.1736-11.541-10.37-17.659 7.5532 2.1975 14.876 5.5234 22.343 8.1255m65.147-29.302c0.3386 3.9569-0.239 7.9684-0.2905 11.94-4.5068-4.7925-8.0656-10.854-12.141-16.205 1.569-2.4437 3.1908-4.8146 4.8451-7.1569 2.586 3.7379 5.1972 7.4759 7.5866 11.422m-121.67 37.412c0.449 0.90869 0.893 1.83 1.3369 2.7513-0.9862-0.11629-2.3414 0.81639-3.0644-0.33648 0.56-0.83345 1.135-1.6416 1.7275-2.4149m153.32-15.843c-0.8779 4.6211-4.4903 7.1356-6.6199 10.792-6.188-7.8641-11.38-16.912-17.271-25.142-0.7578-1.3806-2.1727-2.5826-1.9533-4.4542 0.2182-5.9793 0.439-11.949 0.7604-17.919 8.6351 11.934 16.61 24.606 25.083 36.722m-94.893 2.2726c-2.7952-0.33264-3.9192-3.9942-5.2464-6.5811 2.7777 0.26619 3.7177 4.215 5.2464 6.5811m6.4265-6.1822c2.6967 3.7445 5.5143 7.4071 7.8606 11.54-3.1644-0.74781-6.1869-2.1341-9.2854-3.2043-3.5218-0.70443-4.8556-5.448-6.8336-8.5646 2.7301 0.0858 5.6329-0.79559 8.2584 0.22918m42.395-18.938c1.1402 1.4322 2.2375 2.9243 3.2567 4.5017 1.7553 2.335 3.5055 4.6825 5.054 7.251-0.9663 0.0545-1.9327 0.10906-2.9041 0.17622l-0.1152-0.34181c-3.3697-1.463-7.4989-1.5776-10.126-4.8349 1.0896-1.6227 2.1189-3.2835 3.216-4.8778 0.537-0.63429 1.0791-1.2496 1.6185-1.8744m-90.27 37.249c0.343 1.1424 0.6709 2.2912 1.0012 3.4494-1.0696 0.0448-2.129 0.0643-3.191 0.10594 0.41-1.4663 1.2522-2.5963 2.1898-3.5553m-3.5132 13.039c1.3241 1.3346 2.0784 3.3382 2.9714 5.105-1.0304 0.76589-2.0708 1.5254-3.1163 2.2976-1.4483-2.3468-2.821-4.7567-4.0702-7.2707 1.4018-0.0882 2.8138-0.32823 4.2151-0.13186m-6.0693 1.4934c1.5513 2.4514 3.0194 5.0007 4.2154 7.758-1.3142 0.45211-2.6535 0.77767-4.025 0.82171-0.8631-1.5896-1.7716-3.1604-2.6952-4.6932 0.8023-1.3451 1.6247-2.646 2.5048-3.8866m110.23-34.736c-1.1585 2.2518-1.4738 5.9541-3.8555 6.6818l0.3376 1.3448c-1.4457 0.81228-1.0279-2.4059-1.215-3.4657-2.209-3.4524-4.728-6.5545-6.9395-9.9847 3.9358 1.4486 8.8053 1.2551 11.672 5.4238m-100.53 33.262c0.5721 1.026 1.1443 2.052 1.7038 3.0938-2.0054 1.4876-2.647-1.7427-3.6763-3.2947 0.6617 0.0617 1.3158 0.12659 1.9725 0.20095m80.072-34.248c1.1799 1.837 2.3118 3.7151 3.3429 5.6878-2.0894 0.53241-5.2566-3.248-3.3429-5.6878m-29.778 23.463c-0.3524 0.094-1.0446 0.26621-1.3996 0.35071-1.7077-2.1862-3.0222-4.7889-4.4174-7.2842 2.918 0.60806 4.1553 4.3173 5.817 6.9335m65.819-21.154c3.8383 5.9135 7.8404 11.654 11.679 17.567-1.2005 1.7742-2.4991 3.4628-3.9559 4.9328-4.6525-6.6175-9.5242-12.986-14.144-19.638 0.2549-3.6771 0.2934-7.38 0.5231-11.057 2.2888 2.3236 3.9699 5.4268 5.8981 8.1954m-54.641 20.979c-3.0734 0.61536-6.1986 0.52539-9.3013 0.55249-1.0064-1.7512-2.0177-3.5215-2.9988-5.3043 4.1778 1.1899 8.3553 2.6328 12.3 4.7518m23.083-16.358c2.6757 4.3326 5.6916 8.3341 8.2009 12.831-1.5224-0.0512-2.2971-1.8461-3.2388-3.066-2.1112-3.2402-4.6282-6.0483-6.3991-9.6197 0.3598-0.0339 1.0796-0.10168 1.437-0.14506m-68.934 29.498c3.6587 6.4728 7.6802 12.636 11.082 19.343-2.1543 0.1591-4.3134 0.20434-6.4699 0.22746-2.6443-6.7264-5.2532-13.478-7.7942-20.258 1.1698-1.4138 2.4957-1.2176 3.1822 0.68778m-46.79 34.23c-0.2503 0.70457-0.7507 2.1137-1.001 2.8183-0.9095-0.84342-2.0736-1.4756-2.4211-2.9532-1.2295-3.8389-2.386-7.7187-3.4442-11.639 2.8029 3.3843 4.6253 7.8191 6.8663 11.774m132.76-68.183c0.8336 1.2227 1.6645 2.4676 2.4804 3.7187-0.2011 3.0859-0.3696 6.1687-0.6411 9.2418-1.8193-1.6552-3.2174-3.8754-4.6736-5.9978 0.8065-2.4108 1.6608-4.7994 2.8343-6.9626m-99.888 42.326c0.03 1.5148 0.045 3.0359 0.036 4.5569-1.5021-0.10175-2.0532-1.7159-2.4232-3.279 0.602-0.32422 1.7906-0.96638 2.3875-1.278m-4.4564 3.1607c0.7805 1.3712 0.4749 2.0567-0.9066 2.0627-0.7603-1.3901-0.4547-2.0756 0.9066-2.0627m2.8334 4.8358c0.7244 1.8264-2.0566 2.12-2.8986 3.0918-0.5169-0.97526-1.0439-1.9252-1.5582-2.891 1.4773-0.15129 2.9725-0.45748 4.4568-0.20082m103.5-34.434c-2.6679-1.281-4.0438-4.8167-5.6273-7.5813 2.5443 1.4167 4.2075 4.6748 5.6273 7.5813m-51.397 14.52c1.4454 0.9997 2.1418 3.0063 3.0653 4.634-3.748-0.95797-7.5382-2.1406-10.982-4.2678 2.6226-0.38563 5.2752-0.59409 7.917-0.36618m5.9699 12.19c3.8764 0.84129 5.1513 6.2203 7.572 9.4582-6.4529 0.57852-12.92 0.40438-19.377 0.8058-3.6441-6.1628-7.5326-12.108-10.92-18.504 7.7043 2.103 15.122 5.6316 22.725 8.2403m-2.1497-12.42c0.8388 1.0836 1.7154 2.1198 2.6248 3.1214-0.1296-0.77824-0.3939-2.3537-0.5261-3.1414 3.4799 0.16358 7.0444-0.65611 10.473 0.10817 3.1916 4.2865 6.3226 8.693 9.1285 13.393-3.1821-0.7194-6.2019-2.191-9.3079-3.2897-2.8039-1.1928-6.4373-1.303-7.6438-5.3727-0.5524 0.83031-1.1174 1.6764-1.6749 2.5194-1.1884-1.2014-2.6209-2.3434-3.0229-4.3145l-0.7049 0.15636-0.5851-0.78885 0.1776-0.91663c-0.1679-0.38305-0.514-1.1555-0.6845-1.548 0.4403 0.0169 1.3135 0.0539 1.7462 0.0739m-46.28 18.764c0.7981 1.3744 0.5026 2.0346-0.8989 1.9963-0.7755-1.3838-0.4749-2.0567 0.8989-1.9963m-8.3257 4.1915c1.0983 0.89133-0.4819 2.4338-1.3011 1.7107-1.2468-0.85059 0.482-2.497 1.3011-1.7107m114.09-35.818c1.6513-0.35008 1.7455 3.7927 0.6195 4.5141l-0.3416-0.37399c-2.066 0.017-4.2505 0.22031-6.1712-0.89757-0.8765-2.7217-0.1317-5.9075-0.2153-8.8012 0.054-0.97069 0.1113-1.9319 0.1732-2.8741 2.208 2.4626 4.7758 4.9861 5.9354 8.4327m-103.86 34.718c0.8686 1.3556 0.6108 2.0633-0.7506 2.1137-0.8359-1.3587-0.5856-2.0633 0.7506-2.1137m-38.924 27.659c1.4696 3.2228 2.3346 6.8237 3.3155 10.324-2.96-4.3302-5.4737-9.162-7.7333-14.11 1.5888 1.0032 3.2278 2.0698 4.4178 3.7867m41.866-16.432c1.175 1.7864 2.2717 3.6581 3.2096 5.659-1.0053 0.79756-2.0256 1.6014-3.036 2.4116-1.5538-2.4293-3.0018-4.9659-4.3313-7.5939 1.3868-0.17681 2.7735-0.322 4.1577-0.47669m94.697-40.239c2.2845 3.4526 5.2292 6.3249 6.9769 10.285-0.8545 0.89281-1.964 0.7857-2.5307-0.47429-1.6972-2.4961-3.4774-4.9576-4.8167-7.7817 0.091-0.51206 0.2791-1.5172 0.3705-2.0293m28.218 5.6482c-2.1767-3.1708-2.0675-4.1636-4.0779-7.4985m-13.776 3.7416c-0.1679 2.735-1.372 5.1638-2.7692 7.2095-2.1824-2.8104-4.2361-5.769-6.2874-8.7182 2.9483 0.56387 6.6299-1.1473 9.0566 1.5087m-110.43 41.383c1.3251 2.1979 2.6025 4.4368 3.7085 6.8208-0.9523 0.64907-1.9346 1.2158-2.9469 1.7003-1.387-1.2873-2.6146-3.115-3.0265-5.2506 0.2289-1.549 1.4254-2.3207 2.2649-3.2705m60.086-14.407c-0.3274 0.1573-0.9897 0.47505-1.3146 0.64184-1.8584-2.3447-3.3538-5.0933-4.7712-7.8638 3.1248 0.37457 4.142 4.7442 6.0858 7.2219m12.018 0.14994c-3.3523 0.32057-6.7167 0.27745-10.079 0.40194-1.1846-1.9825-2.3415-3.9871-3.3699-6.1084 4.4508 2.0033 9.3036 2.828 13.449 5.7065m-49.429 12.606c-0.8349 2.9389-2.7132 5.1952-4.6185 7.0942-0.238-0.68048-0.7115-2.032-0.947-2.7029 1.7841-1.5957 3.5833-3.1977 5.5655-4.3913m105.19-25.073c-4.1692-5.1016-5.2451-6.1531-8.9832-11.75 1.2001-1.5212 2.3752-3.0742 3.5377-4.6113m-111.08 51.409c0.2319 1.3572-0.2292 1.7703-1.3733 1.2457-0.2143-1.354 0.2443-1.7766 1.3733-1.2457m-39.512 16.042c1.0166 1.6627 2.3882 3.1777 2.8025 5.2911-0.2526 0.66345-1.5311 2.3331-1.8358 0.85875-0.4649-1.9554-1.9411-4.1221-0.9667-6.1499m155.44-41.572c-2.7022-0.266-5.4881-0.11795-8.1187-1.0668-2.5941-3.3869-5.226-6.7897-7.4344-10.59 1.3011-1.6791 2.5796-3.3804 3.853-5.0691 3.995 5.4585 8.3352 10.605 11.7 16.726m-118.09 33.657c-1.0731 0.76261-2.2063 1.2658-3.3868 1.4937-0.8613-1.169-1.5638-2.4989-2.3344-3.7373 0.4687-0.38463 1.3859-1.1666 1.8444-1.5576 2.0875-0.88976 3.1198 1.9462 3.8768 3.8012m17.646-10.651c1.1802 4.7653-0.086 9.6954-1.3888 14.198-2.0488-1.2858-3.9414-4.2377-3.7506-7.1719 1.5138-2.5577 3.2236-4.9442 5.1394-7.0265m34.206-10.474c2.2829-0.30741 2.9944 3.2519 4.197 4.9847-3.9614-1.164-7.8948-2.5715-11.694-4.4246 2.4769-0.4935 4.9933-0.58213 7.4971-0.56012m-49.132 17.707c0.8536 1.2986 0.5758 1.962-0.8234 1.9965-0.8711-1.3335-0.5932-1.9969 0.8234-1.9965m-40.875 23.752c-1.9695-0.50768-2.3599-3.5476-3.3409-5.3936 1.4548 1.4171 2.418 3.4181 3.3409 5.3936m140.2-64.378c2.5117 2.9788 4.8192 6.2322 6.8696 9.7189-1.4641-0.24397-3.4557 0.50056-4.3308-1.4844-1.2344-2.3305-3.5338-4.3126-3.8012-7.1088 0.32-0.28065 0.9525-0.8388 1.2624-1.1258m-54.327 31.204c4.4889 1.7978 9.0941 3.2101 13.507 5.2924 2.2105 2.5037 3.7175 5.8689 5.4743 8.8774-6.4553 0.50578-12.937 0.33793-19.4 0.84686-3.5606-6.5136-7.8695-12.337-11.176-19.062 3.9695 0.81306 7.731 2.7134 11.594 4.0448m12.904-1.546c-2.9083-0.38035-3.9817-4.2631-5.563-6.7969 3.0025-0.31195 3.9941 4.3738 5.563 6.7969m-93.354 30.222c0.5569 1.1588 1.1162 2.327 1.6554 3.5142-1.0426 0.46544-2.1201 0.79797-3.2175 0.99131-1.4113-1.8566 0.7272-3.1573 1.5621-4.5055m104.51-37.341c3.274 4.663 6.4269 9.5344 9.1238 14.743-5.9161-1.5199-11.495-4.5917-17.396-6.2443-1.6968-2.7175-3.3735-5.4538-4.9695-8.2659 4.4063-0.0745 8.8384-0.55995 13.242-0.23282m-107.81 54.44c2.6198 6.252 6.0607 12.025 7.8065 18.81-1.592-0.53837-3.1688-1.1463-4.7203-1.849-2.555-9.0283-5.5432-17.855-8.0681-26.896 2.2629 2.7663 3.3288 6.6206 4.9819 9.9356m6.653-11.017c0.2834 0.62999 0.8551 1.8774 1.1385 2.5074-1.6989 0.20133-3.4002 0.32993-5.1112 0.29406 1.2875-1.0309 2.6226-1.9446 3.9727-2.8014m140.12-54.117c1.8305 2.4933 3.5147 5.1949 5.6176 7.3536-1.0552-2.7-2.8134-4.7915-4.3902-6.99 3.1323 0.3398 3.4358-0.88121 5.7252 2.7168-0.7936 2.1737 2.0576 3.8832 1.1786 6.0187-0.4124-0.16546-1.2373-0.49638-1.6497-0.66184 1.5569 2.091 0.7755 4.5335-0.5686 6.3674-3.0872-5.0673-6.6431-9.6867-9.5338-14.931 1.2104 0.0125 2.4131 0.0597 3.6209 0.12597m-102.73 45.89c1.002 1.3212 1.7367 2.901 2.527 4.4366-1.4472 0.20196-2.917 0.35011-4.3816 0.39075-0.8681-1.6402-1.7387-3.2899-2.5967-4.9238 1.467 0.0321 3.066-0.67546 4.4513 0.0964m-34.393 13.807c0.9435 1.7036 1.8719 3.4136 2.7625 5.1709-1.6487 3.446-1.771 7.5946-3.2259 11.139-1.7861-5.1242-3.4263-10.33-4.9832-15.571 1.8122-0.28012 3.6269-0.51911 5.4466-0.73913m96.916-25.931c-0.4176 5e-3 -1.2455 0.0127-1.6582 5e-3 -1.9011-2.4428-3.4441-5.3085-4.8261-8.2307 3.2723 0.93466 4.5187 5.2827 6.4843 8.2254m12.512-0.42436c-3.4707 0.4436-6.9632 0.32743-10.441 0.61607-1.406-1.9957-2.6457-4.1555-3.8073-6.3688 4.7859 1.748 9.7461 3.0441 14.249 5.7527m35.664-27.535c-0.09 2.7446-1.1935 10.346-1.457 13.099-1.1628 1.7585 1.0148-1.5071 0.6545-2.7792 0.7154-2.0569 0.5442-3.6674 1.33-5.6798m-104.04 52.256c0.6646 1.3456 0.3012 2.0341-1.0803 2.0718-0.6848-1.3899-0.3214-2.0784 1.0803-2.0718m57.605-19.463c1.0216 1.6185 2.0507 3.2654 2.6566 5.2149-3.8957-1.3916-7.8772-2.5683-11.558-4.7341 2.9598-0.37847 5.9317-0.39324 8.9012-0.48075m-88.862 34.736c0.8684 1.4189 0.6459 2.133-0.6778 2.136-0.8533-1.4251-0.6307-2.1393 0.6778-2.136m82.885-26.339c4.6899 1.9564 9.5191 3.423 14.131 5.6544 2.4819 2.7384 4.2023 6.4362 6.1246 9.7866-6.3775 0.61033-12.784 0.60078-19.171 0.95178-3.9325-6.8118-8.3311-13.198-11.992-20.249 3.7457 0.75875 7.2734 2.5668 10.908 3.8566m-71.896 30.762c-0.2027-0.67407-0.5906-2.019-0.7909-2.6836 0.6024 0.9818 1.1997 1.9762 1.7845 2.9865-1.0282 0.93348-1.6516 2.1621-1.3976 3.8261-0.6813 1.2-1.438 2.3365-2.2349 3.4477 2.2132 2.3867-0.6683 5.7031 0.01 8.6046-1.2749-2.2294-3.1498-3.6824-4.7474-5.4825-1.4983-2.5683-1.2211-5.9702-0.3084-8.7413 0.4601 0.25096 1.3853 0.77186 1.848 1.0323 0.8491-0.75368 1.6908-1.5042 2.5249-2.2516-0.4727-0.2668-1.4255-0.79726-1.8982-1.0641-0.569-1.396-1.2489-2.7037-1.9565-3.9893 2.8303 0.37068 4.2616 5.4845 7.1724 4.3153m85.522-32.176c-3.0697-0.1341-4.0542-4.5701-5.7437-7.1009 3.1055-0.20734 4.0238 4.7091 5.7437 7.1009m11.482-7.6116c3.3614 5.1217 6.7253 10.253 9.7464 15.706-5.3805-1.2688-10.492-3.8397-15.764-5.649-3.8815-0.82865-5.2648-6.1099-7.5922-9.4393 4.5277-0.50423 9.0697-0.41392 13.61-0.6177m-109.94 41.033c0.4795 0.76962 0.9513 1.5424 1.4207 2.3373-0.1118 0.65748-0.3228 1.9883-0.4345 2.6458-2.1482-0.48599-1.7465-3.1287-0.9862-4.983m40.842-3.839c0.13 0.55688 0.39 1.6706 0.5275 2.2244-1.0274 0.5224-2.0475 1.0733-3.0675 1.6241-0.3424-1.4587-0.6874-2.8952-1.0198-4.3475 1.2162-0.50611 2.4182-0.0478 3.5598 0.49898m7.0776-4.1883c0.6497 1.3203-1.1217 2.8686-2.0974 2.4108-0.9691-1.3875 1.0595-3.264 2.0974-2.4108m61.136-8.2918c-0.4077 0.0116-1.218 0.0539-1.6181 0.0624-2.0289-2.7689-3.7604-5.8722-5.4843-8.947 3.6024 0.69198 4.8903 5.8339 7.1024 8.8846m13.401-0.70993c-3.7153 0.69283-7.4893 0.39887-11.23 0.90189-1.5843-2.227-3.04-4.6023-4.322-7.1132 5.2312 1.8471 10.5 3.6785 15.552 6.2113m-78.824 26.735c0.8106 1.3902 0.5202 2.0694-0.8537 2.0091-0.8081-1.4124-0.5226-2.0789 0.8537-2.0091m67.56-16.106c1.4224 1.2305 2.1816 3.2847 3.1376 5.0358-3.9539-1.1672-7.9429-2.404-11.649-4.5383 2.819-0.43573 5.6681-0.75755 8.5111-0.49752m-107.65 56.85c1.8296 4.7163 4.4197 9.0108 5.4861 14.171-2.0015-0.9157-4.5718-1.8897-5.3147-4.7092-2.183-7.2344-4.4314-14.431-6.516-21.706 2.765 3.4632 4.5396 7.9391 6.3446 12.244m102.33-47.778c-2.9046 0.46082-5.8387 0.42825-8.7581 0.70563-0.8857-1.6434-1.6832-3.3657-2.3699-5.1446 3.7525 1.2616 7.5958 2.3589 11.128 4.439m13.463-2.0948c-3.2309-0.17245-4.3209-4.6909-6.0302-7.4242 3.1931 0.0933 4.1493 4.8992 6.0302 7.4242m8.4898-7.7993c2.0388 2.8701 4.07 5.7433 6.0231 8.7017-3.8782 0.36037-7.7714 0.56892-11.659 0.60672-1.699-2.9483-3.5391-5.7641-5.1776-8.7692 3.594-0.38954 7.2126-0.43117 10.814-0.53925m-60.581 28.212c-1.6664 0.35638-3.5473 1.0759-5.0297-0.38245 1.6537-0.2141 3.56-1.1233 5.0297 0.38245m-1.2538 10.939c1.971 2.7403 3.5237 5.8969 5.0613 9.0282-0.76 0.074-2.2777 0.23153-3.0352 0.31503-1.3412-3.213-2.6321-6.4576-3.7566-9.8029 0.4326 0.11492 1.2978 0.34474 1.7305 0.45966m5.7258-0.69733c-0.096 1.5461-0.2011 3.1175-0.3244 4.6857-0.9766-1.4476-1.9028-2.9583-2.7786-4.5005 1.0344-0.0828 2.0662-0.1435 3.103-0.18521m36.081-13.382c0.7253 1.194 0.4904 1.7658-0.7022 1.7249-0.7203-1.2066-0.4854-1.7784 0.7022-1.7249m-96.201 54.444c1.4271 4.6521 3.0681 9.2257 4.2433 14.004-0.3732 0.49239-1.1145 1.4645-1.4877 1.9569-2.8379-6.8249-6.5471-13.171-8.2062-20.676 1.9862 1.1117 4.7634 1.6625 5.4506 4.7158m124.86-54.49c-1.6992 0.35946-3.4886 0.59852-5.1178-0.30362 1.6787-0.18241 3.5948-0.95875 5.1178 0.30362m-3.9446 10.511c2.1469 7.6742-5.3266 2.3744-8.9921 0.7082 2.9704-0.65672 5.9925-0.60812 8.9921-0.7082m-4.7841 9.9335c-2.9646 0.23298-5.939 0.26988-8.9013 0.54399-1.0816-1.8147-2.1558-3.6641-3.1821-5.5229 4.1023 1.2213 8.3834 2.3893 12.083 4.9789m-109.01 39.726c0.9404 0.483 1.6627 1.9521 1.4745 3.2418-1.1575 1.5878-2.8168-2.5463-1.4745-3.2418m61.418-21.124c1.2657 1.6538-1.9373 2.9867-2.6243 1.4292-0.3899-1.7339 1.7648-2.1144 2.6243-1.4292m-55.305 32.422c-0.7313 0.94687-1.4701 1.8969-2.2164 2.85-0.9244-2.6808-1.9217-5.3522-2.4859-8.1933 0.2494-0.19861 0.7382-0.60217 0.9801-0.79763 1.6912 1.424 2.4268 4.1834 3.7222 6.1409m-8.1875-0.5642c0.3883 2.7458 3.2293 5.9246 1.7405 8.5773-0.7884-2.7373-4.3161-6.0728-1.7405-8.5773m9.9514 3.7909c0.5492 1.1935 1.0933 2.3997 1.6324 3.6185-1.5277 0.18279-3.073 0.33075-4.6076 0.074 0.9533-1.2815 1.9542-2.5092 2.9752-3.6925m-9.7958 7.7107c2.2204 4.2272 3.9545 8.8357 5.9959 13.211 2.3439 5.7137 5.5037 10.993 6.7469 17.333-1.8455-0.9912-3.6328-2.1435-5.3898-3.3717-2.7888-9.1839-5.6305-18.346-8.3061-27.577 0.2365 0.10178 0.7168 0.30219 0.9531 0.40397m115.63-45.064c-1.3438-0.01-2.8393 0.5179-4.0254-0.54757m-98.621 44.59c-1.7593 0.19487-3.5741 0.49711-5.2866-0.21232 1.6988-0.16972 3.9231-1.6536 5.2866 0.21232m2.0459 3.1515c5.8802 11.563 12.204 22.773 18.119 34.311-3.2674 3.9195-6.1657 8.349-9.7368 11.847-4.7221-15.153-9.5878-30.246-14.149-45.487 1.9254-0.2324 3.8458-0.45217 5.7661-0.67193m36.569 14.014c0.5168 0.94364 1.0287 1.8999 1.5279 2.872-1.0972 0.0669-2.202 0.10522-3.3043 0.18471 0.5829-1.0326 1.1759-2.0589 1.7764-3.0567m-37.044 19.808c1.982 5.327 3.4503 10.963 5.1781 16.438-0.3936 0.63781-1.1732 1.9103-1.5592 2.5449-3.0484-7.3377-7.0665-14.124-9.0091-22.101 1.8229 0.93739 3.734 1.7327 5.3902 3.1187m72.153-29.657c1.3865 1.6036 2.9042 3.0367 4.4622 4.4003-2.2676 0.20624-4.4881 0.90909-6.4257 2.4633-0.5856-2.0633-0.8891-4.2334-0.4504-6.3858 0.6066-0.1155 1.8073-0.36235 2.4139-0.47785m6.9398 1.8418c0.925 0.67903 0.5813 3.1922-0.6262 3.0311-1.1013-0.61621-0.5688-3.2396 0.6262-3.0311m10.594 1.6801c1.0918 0.19877 1.965 1.7947 1.7892 3.1636-1.0789 1.218-2.9406-2.2209-1.7892-3.1636m-66.806 34.774c-3.7412 4.4116-7.0756 9.3175-10.769 13.783-0.8191-2.3769-1.5955-4.7505-2.402-7.1116 3.16-4.4542 6.6164-8.5471 9.9773-12.748 1.1494 1.9445 2.2484 3.9521 3.1938 6.0763m66.33-31.142c0.7426 1.4186 0.4445 2.1641-0.8918 2.2146-0.7199-1.428-0.4218-2.1735 0.8918-2.2146m-64.639 34.157c2.4213 4.5439 5.117 8.8892 7.1577 13.739-6.1385 0.68998-12.29 1.3957-18.45 1.7473 3.1369-5.7824 7.5125-10.363 11.292-15.486m-18.251 8.1641c0.8514 2.69 1.7052 5.3896 2.3727 8.1772-2.3463-0.98296-2.8163-4.4848-4.0356-6.8216 0.4132-0.34051 1.2472-1.0247 1.6629-1.3557m47.156-9.2056c-1.1687 0.65485-2.3449 1.3129-3.516 1.9898-2.4274-2.1817-1.1235-5.6949-0.2836-8.5199 2.1657 0.58407 2.9274 4.2384 3.7996 6.5301m-47.213 21.175c3.406 7.1046 6.3637 14.543 9.7093 21.705 1.1888 2.5075 2.1912 5.1347 2.9594 7.8909-1.8337-0.43778-3.5357-1.4255-5.1772-2.5016-2.6248-9.4839-6.1687-18.543-8.577-28.128 0.2688 0.25681 0.8142 0.76729 1.0855 1.0336m3.6662-1.4835c0.8056 1.3713 0.5302 2.0758-0.8263 2.1135-0.8029-1.3934-0.5276-2.0979 0.8263-2.1135m89.99-33.965c0.6197 1.238 1.2342 2.4886 1.8437 3.7519-3.3679 0.57984-6.7779 0.84018-10.18 0.87601-1.3518 0.30971-1.6054-1.6705-2.2555-2.6746 3.2171-2.3606 7.0359-1.706 10.592-1.9533m-64.294 35.625c4.9078 9.0816 9.8105 18.176 14.693 27.289-6.3518 8.3106-12.779 16.558-19.289 24.681-5.2633-16.666-10.416-33.388-15.372-50.192 6.6346-0.90695 13.318-1.0864 19.968-1.7783m23.281-12.459c0.5244 0.97212 1.0412 1.979 1.5555 2.9764-0.8606-0.0211-1.7237-0.0517-2.5792-0.0538-0.1552-0.52533-0.4731-1.5728-0.6258-2.0887 0.413-0.21401 1.2339-0.6294 1.6495-0.83392m41.051-7.5921c-0.4667 0.74198-0.9385 1.4966-1.4102 2.2512-0.5222-0.70964-1.0496-1.4066-1.5669-2.0973 0.989-0.064 1.9805-0.11842 2.9771-0.1539m-32.828 22.32c0.896 1.4284 1.3789 3.1973-0.203 4.2559-0.695-1.3014-1.385-2.6155-2.0774-3.9074 0.5738-0.0808 1.709-0.25823 2.2804-0.34852m2.7072 4.9936c0.6549 1.2128 1.3022 2.4603 1.9545 3.6952-0.469 0.60599-0.9354 1.2215-1.407 1.8496-0.7151-1.3141-1.4227-2.6314-2.1302-3.9486 0.5268-0.54577 1.056-1.082 1.5827-1.5962m-47.948 31.488c1.5997 5.2439 4.2182 13.36 5.828 18.611-0.3999 0.16315-1.2368 0.51674-1.8524 0.80288-1.6168-2.382-2.4222-5.4704-3.709-8.1268-2.2308-5.5712-5.2448-10.743-6.4355-16.884 2.298 1.2453 5.3741 2.1668 6.1689 5.5967m52.001-23.999c1.1233 2.5769 4.4326 5.5608 2.2035 8.5531-1.2898-2.318-2.5443-4.6612-3.7837-7.0107 0.3931-0.38482 1.187-1.1576 1.5802-1.5424m29.402-3.8926c0.6721 1.5006 0.3714 2.2683-0.9019 2.3031-1.1184-0.96727-1.2174-1.9478-0.2924-2.9543-0.4061-2.5277 3.0834-0.48252 1.1943 0.65123m-51.397 19.134c0.5768 1.298 1.1433 2.6212 1.71 3.9444-6.8276 8.4137-13.256 17.388-20.405 25.377-0.4129-1.5031-0.8207-2.9872-1.221-4.4745 6.7013-8.1927 12.835-17.171 19.916-24.847m3.8557 7.6022c4.9709 8.9711 9.8359 18.049 14.608 27.188-11.457 1.5022-22.988 2.1187-34.499 2.6847-0.3755-1.2342-0.7561-2.4558-1.1342-3.6679 7.0619-8.6693 13.765-17.811 21.025-26.204m-27.184 22.584c0.8285 2.8576 1.7702 5.6997 2.1353 8.7395-1.7277-2.2622-2.7322-5.1518-3.747-7.953 0.4005-0.19785 1.2113-0.58834 1.6117-0.78657m1.4275 15.597c2.1156 5.261 4.6896 10.226 6.7572 15.528-1.0803 0.51278-2.1606 1.0256-3.2359 1.5573-2.153-7.0572-4.3891-14.08-6.2953-21.25 1.6502 0.34561 1.9863 2.6391 2.774 4.1653m12.168 12.233c-1.763-5.4498-3.4906-10.925-4.9842-16.497 10.668-0.80525 25.372-0.6495 36.032-1.42m11.816 22.296c-10.092 12.153-19.825 24.778-30.035 36.769-3.4172-11.187-7.1166-22.236-10.338-33.505 10.875-6.032 21.63-12.393 32.51-18.406 2.6141 5.0535 5.4979 9.8894 7.8625 15.142m-44.713 6.1031c0.5306 1.886 1.0661 3.7911 1.6091 5.6929-2.2497 0.0513-3.8121-1.7108-4.6688-4.1984 1.0199-0.51925 2.0348-1.0259 3.0597-1.4945m5.4402 17.719c-1.8517-1.8419-2.9647-4.5389-4.3249-6.9013 3.0672-0.98195 3.3349 4.3849 4.3249 6.9013m41.411-18.575c-9.8739 12.536-20.111 25.702-29.967 38.273-0.3259-0.823-0.9851-2.4659-1.3109-3.2889 3.4451-4.931 7.4453-9.187 11.061-13.915 6.6959-7.9271 12.25-16.023 19.189-23.599m-34.818 38.951c-0.3956 0.37533-1.1794 1.1228-1.5751 1.4982-3.0819-6.8287-6.3376-13.522-9.2835-20.439m66.043 24.34c0 57.321-0.053 117.09-0.011 158.17-0.4434-1.3324-47.55-155.83-47.974-157.15 8.3537-10.798 16.622-21.696 24.983-32.497 2.0146-2.5659 5.3352-6.5692 5.3352-6.5692m-33.954 44.93c-1.0902-1.2107-3.5949-7.4392-4.2694-9.0126 0.6193-0.49459 1.0886-0.57744 1.5893-1.2143 1.0026 2.9318 1.9653 7.1007 2.6801 10.227m-4.0219 0.48336c-1.9591-0.72269-2.0552-3.6322-2.6963-5.6198 1.5607 1.2466 2.1384 3.5028 2.6963 5.6198m1.4121 2.7831c3.7131 7.1243 6.6224 14.889 10.043 22.24 1.7408 3.5524 43.046 136.62 44.212 140.51 0 7.5338-0.021 24.36 0 28.745-3.0882-10.829-52.998-180.76-55.849-191.67 0.3975 0.0453 1.1926 0.13577 1.5901 0.18103"/>
<path d="m141.4 13.838-8.2542-13.613-1.7244 0.022882 10.966 18.009"/>
<path d="m300.59 637.73-58.285 13.805-0.9211 2.9321 59.315-11.761z"/>
<path d="m301.9 671.98-34.272 66.734-0.1324 6.9613 34.417-64.65z"/>
<path d="m301.95 686.14-30.79 59.354-0.7333 6.4202 31.581-59.176z"/>
<path d="m301.86 736.78-29.115 12.073-3.1396 5.9788 32.282-11.921z"/>
<path d="m258.07 703.81 12.55 5.8102 2.0917 6.9722-14.616-6.8759 21.233 35.171-10.104-29.689 5.8102 6.7398 9.8432 36.943-23.875-36.968-4.3283-17.871z"/>
<path d="m301.07 816.85-12.251-1.8101-2.6964-8.8165 14.695 3.3271-26.412-46.744 15.328 45.894-6.9109-10.123-16.515-56.065 30.718 48.846 3.9352 22.743z"/>
<path d="m123.07 255.1c62.178 193.77 121.03 388.16 178.79 583.26l0.028-5.1927-176.49-579.46z"/>
<path d="m120.92 244.57c63.672 193.29 121.7 388.32 180.96 582.96l-0.012-3.7402-178.64-580.63z"/>
</svg>
