<svg width="123" height="110" xmlns="http://www.w3.org/2000/svg" xmlns:xlink="http://www.w3.org/1999/xlink" overflow="hidden"><defs><clipPath id="clip0"><rect x="524" y="381" width="123" height="110"/></clipPath></defs><g clip-path="url(#clip0)" transform="translate(-524 -381)"><path d="M583.748 401.987C585.15 401.987 586.531 402.067 587.892 402.227L587.892 390.416C587.242 390.175 586.671 389.795 586.191 389.314 585.31 388.434 584.769 387.232 584.769 385.891 584.769 384.56 585.31 383.349 586.191 382.468 587.072 381.587 588.273 381.046 589.614 381.046 590.945 381.046 592.156 381.587 593.037 382.468 593.918 383.349 594.459 384.55 594.459 385.891 594.459 387.222 593.918 388.434 593.037 389.314 592.567 389.785 591.976 390.175 591.336 390.416L591.336 402.798C594.559 403.498 597.612 404.639 600.435 406.151L600.435 401.586C600.435 400.635 601.205 399.865 602.156 399.865L614.208 399.865C614.448 399.254 614.819 398.704 615.279 398.243 616.16 397.362 617.361 396.822 618.702 396.822 620.034 396.822 621.245 397.362 622.126 398.243 623.007 399.124 623.547 400.325 623.547 401.667 623.547 402.998 623.007 404.209 622.126 405.09 621.245 405.971 620.044 406.511 618.702 406.511L618.702 406.511C617.361 406.511 616.15 405.971 615.289 405.09 614.789 404.589 614.398 403.979 614.158 403.298L603.898 403.298 603.898 408.263C611.065 413.228 616.31 420.765 618.292 429.544L640.153 429.544 640.153 411.896C639.623 411.656 639.132 411.316 638.732 410.906 637.851 410.025 637.311 408.823 637.311 407.482 637.311 406.151 637.851 404.94 638.732 404.059 639.613 403.178 640.814 402.637 642.155 402.637 643.487 402.637 644.698 403.178 645.579 404.059 646.459 404.94 647 406.141 647 407.482 647 408.813 646.459 410.025 645.579 410.906 645.028 411.456 644.347 411.866 643.597 412.107L643.597 431.275C643.597 432.226 642.826 432.997 641.875 432.997L618.903 432.997C619.083 434.438 619.173 435.91 619.173 437.411 619.173 439.413 619.003 441.375 618.682 443.287L637.611 443.287C637.851 442.636 638.231 442.066 638.712 441.585 639.593 440.705 640.794 440.164 642.135 440.164 643.467 440.164 644.678 440.705 645.559 441.585 646.439 442.466 646.98 443.667 646.98 445.009 646.98 446.34 646.439 447.551 645.559 448.432 644.678 449.313 643.477 449.854 642.135 449.854 640.804 449.854 639.593 449.313 638.712 448.432 638.241 447.962 637.851 447.381 637.611 446.73L617.932 446.73C615.709 454.878 610.665 461.855 603.898 466.54L603.898 468.692 614.158 468.692C614.398 468.011 614.789 467.401 615.289 466.9 616.15 466.019 617.371 465.479 618.702 465.479L618.702 465.479C620.044 465.479 621.245 466.019 622.126 466.9 623.007 467.781 623.547 468.992 623.547 470.323 623.547 471.665 623.007 472.866 622.126 473.747 621.245 474.628 620.034 475.168 618.702 475.168 617.361 475.168 616.16 474.628 615.279 473.747 614.829 473.296 614.458 472.746 614.208 472.125L602.166 472.125C601.215 472.125 600.445 471.354 600.445 470.404L600.445 468.652C597.622 470.163 594.559 471.304 591.346 472.005L591.346 481.574C591.996 481.815 592.577 482.205 593.047 482.676 593.928 483.556 594.469 484.768 594.469 486.099 594.469 487.44 593.928 488.641 593.047 489.522 592.167 490.403 590.955 490.944 589.624 490.944 588.283 490.944 587.082 490.403 586.201 489.522 585.32 488.641 584.779 487.43 584.779 486.099 584.779 484.758 585.32 483.556 586.201 482.676 586.681 482.195 587.252 481.815 587.902 481.574L587.902 472.586C586.541 472.746 585.16 472.826 583.758 472.826 581.666 472.826 579.614 472.646 577.622 472.295L577.622 485.839C577.622 486.79 576.852 487.56 575.901 487.56L556.722 487.56C556.482 488.321 556.071 489.002 555.521 489.542 554.64 490.423 553.429 490.964 552.097 490.964 550.756 490.964 549.555 490.423 548.674 489.542 547.793 488.661 547.253 487.45 547.253 486.119 547.253 484.778 547.793 483.576 548.674 482.696 549.555 481.815 550.766 481.274 552.097 481.274 553.439 481.274 554.64 481.815 555.521 482.696 555.931 483.106 556.261 483.586 556.512 484.117L574.169 484.117 574.169 471.515C570.876 470.594 567.773 469.202 564.94 467.421 564.63 467.701 564.229 467.871 563.779 467.871L553.309 467.871C553.068 468.502 552.688 469.062 552.218 469.523 551.337 470.404 550.125 470.944 548.794 470.944 547.463 470.944 546.252 470.404 545.371 469.523 544.49 468.652 543.949 467.441 543.949 466.099 543.949 464.758 544.49 463.557 545.371 462.676 546.252 461.795 547.463 461.255 548.794 461.255 550.125 461.255 551.337 461.795 552.218 462.676 552.708 463.167 553.098 463.767 553.339 464.428L560.856 464.428C554.33 458.892 549.835 451.045 548.644 442.136L530.847 442.136 530.847 459.793C531.377 460.033 531.868 460.374 532.268 460.784 533.149 461.665 533.689 462.866 533.689 464.208 533.689 465.539 533.149 466.75 532.268 467.631 531.387 468.512 530.186 469.052 528.845 469.052 527.513 469.052 526.302 468.512 525.421 467.631 524.541 466.76 524 465.549 524 464.208 524 462.876 524.541 461.665 525.421 460.784 525.972 460.234 526.653 459.823 527.403 459.583L527.403 440.424C527.403 439.473 528.174 438.703 529.125 438.703L548.344 438.703C548.324 438.272 548.324 437.842 548.324 437.411 548.324 434.298 548.724 431.285 549.475 428.413L533.379 428.413C533.139 429.063 532.759 429.634 532.278 430.114 531.397 430.995 530.196 431.536 528.855 431.536 527.523 431.536 526.312 430.995 525.431 430.114 524.551 429.233 524.01 428.032 524.01 426.691 524.01 425.36 524.551 424.148 525.431 423.268 526.312 422.387 527.513 421.846 528.855 421.846 530.186 421.846 531.397 422.387 532.278 423.268 532.749 423.738 533.139 424.319 533.379 424.969L550.566 424.969C552.888 418.773 556.902 413.408 562.037 409.424L562.037 407.582 553.329 407.582C553.088 408.243 552.698 408.844 552.208 409.334 551.327 410.215 550.115 410.755 548.784 410.755 547.453 410.755 546.242 410.215 545.361 409.334 544.48 408.453 543.939 407.252 543.939 405.911 543.939 404.569 544.48 403.358 545.361 402.487 546.242 401.606 547.453 401.066 548.784 401.066 550.115 401.066 551.327 401.606 552.208 402.487 552.678 402.958 553.048 403.518 553.299 404.139L563.769 404.139C564.72 404.139 565.49 404.91 565.49 405.861L565.49 407.062C568.173 405.45 571.086 404.179 574.159 403.308L574.159 387.883 556.512 387.883C556.271 388.414 555.931 388.904 555.521 389.304 554.64 390.185 553.439 390.726 552.097 390.726 550.766 390.726 549.555 390.185 548.674 389.304 547.793 388.424 547.253 387.222 547.253 385.881 547.253 384.55 547.793 383.339 548.674 382.458 549.555 381.577 550.756 381.036 552.097 381.036 553.429 381.036 554.64 381.577 555.521 382.458 556.071 383.008 556.482 383.689 556.722 384.44L575.891 384.44C576.842 384.44 577.612 385.21 577.612 386.161L577.612 402.517C579.604 402.167 581.656 401.987 583.748 401.987L583.748 401.987ZM569.494 433.868 572.327 433.868 572.327 433.528 572.327 427.892C572.327 424.669 573.648 421.746 575.771 419.624L575.771 419.624C577.893 417.502 580.825 416.181 584.049 416.181 587.272 416.181 590.195 417.502 592.317 419.624L592.317 419.624C594.439 421.746 595.76 424.679 595.76 427.892L595.76 433.528 595.76 433.868 598.012 433.868C598.513 433.868 598.923 434.278 598.923 434.779L598.923 454.058C598.923 454.558 598.513 454.969 598.012 454.969L569.494 454.969C568.994 454.969 568.583 454.558 568.583 454.058L568.583 434.779C568.583 434.278 568.994 433.868 569.494 433.868L569.494 433.868 569.494 433.868ZM576.872 433.868 591.196 433.868 591.196 433.528 591.196 427.832C591.196 425.86 590.385 424.068 589.094 422.767L589.094 422.767C587.792 421.466 586 420.665 584.039 420.665 582.067 420.665 580.275 421.476 578.974 422.767 577.672 424.068 576.872 425.86 576.872 427.832L576.872 433.528 576.872 433.868 576.872 433.868 576.872 433.868ZM584.099 444.418 585.54 451.095 581.576 451.105 582.737 444.338C581.656 443.988 580.865 442.977 580.865 441.776 580.865 440.294 582.067 439.093 583.548 439.093 585.03 439.093 586.231 440.294 586.231 441.776 586.251 443.087 585.32 444.168 584.099 444.418L584.099 444.418 584.099 444.418Z" fill="#FFFFFF" fill-rule="evenodd"/></g></svg>