<?xml version="1.0" encoding="UTF-8"?>
<svg width="50" height="700" version="1.1" viewBox="0 0 40 560" xmlns="http://www.w3.org/2000/svg" xmlns:cc="http://creativecommons.org/ns#" xmlns:dc="http://purl.org/dc/elements/1.1/" xmlns:rdf="http://www.w3.org/1999/02/22-rdf-syntax-ns#">
<metadata>
<rdf:RDF>
<cc:Work rdf:about="">
<dc:format>image/svg+xml</dc:format>
<dc:type rdf:resource="http://purl.org/dc/dcmitype/StillImage"/>
<dc:title/>
</cc:Work>
</rdf:RDF>
</metadata>
<defs>
<linearGradient id="a" x1="18.782" x2="18.716" y1="130.38" y2="126.74" gradientTransform="matrix(.86949 .021743 -.02489 .97026 2.9925 346.22)" gradientUnits="userSpaceOnUse">
<stop offset="0"/>
<stop stop-opacity="0" offset="1"/>
</linearGradient>
<linearGradient id="b" x1="20" x2="19.673" y1="243.25" y2="58.254" gradientTransform="matrix(.90161 0 0 .3179 1.5715 4.8719)" gradientUnits="userSpaceOnUse">
<stop offset="0"/>
<stop stop-opacity="0" offset="1"/>
</linearGradient>
</defs>
<path d="m35.871 479.3c-0.7524 0.10212-1.5107 0.15283-2.262 0.2672-0.43073 0.065-0.87924 0.091-1.3004-0.0488-0.72046-0.1852-1.0588-1.1323-1.8412-1.1564-0.78308-0.0533-1.7258-0.0198-2.2362 0.7292-1.2904 2.1416-2.9213 3.6575-4.069 5.5986-0.45226 0.56644-0.83946 1.1872-1.2592 1.7809-0.2419 0.36257-0.69862 0.3713-1.0692 0.45664-2.1143 0.31098-4.225 0.65326-6.3378 0.96289-0.81421 0.20274-1.2372-0.70796-1.7506-1.1948-0.28336-0.24045-0.40239-0.588-0.70483-0.80847-0.9357-1.1432-1.947-2.2095-2.9094-3.3256-0.38521-0.4139-0.75004-0.89079-1.2581-1.1328-1.0252-0.29976-2.2597 0.01-2.8463 1.0271-0.26636 0.35882-0.53181 0.79513-0.98211 0.89082-1.0491 0.0445-2.238 0.25361-2.93 0.34776-0.57754-0.0691-1.117 0.1798-1.6237 0.44743-0.22898 0.8168-0.16424 1.672-0.1959 2.5122-0.039482 1.946-0.15041 3.8935-0.039958 5.8371 0.048083 2.9692-0.12778 5.9373-0.10859 8.9072-0.038249 2.6183-0.076541 5.2384-0.11347 7.8582-8.141e-4 1.3259-0.12623 2.6659 0.12043 3.9778 0.56714 0.47427 1.0984 0.99716 1.6805 1.4485 0.2361 0.20117 0.55684 0.0873 0.82997 0.0836 1.2221-0.11099 2.4412-0.32925 3.67-0.3047 0.39699-0.0448 0.79409-0.0943 1.1907-0.12365 1.5367-0.15206 3.074-0.44368 4.6181-0.37548 0.3114 0.47544 0.57409 0.99173 0.67337 1.5704 0.09465 0.64675 0.53767 1.1163 0.94964 1.5572-0.31268 0.47555-0.3827 1.0654-0.41457 1.6315-0.04531 1.0337-0.07476 2.0676-0.01742 3.1007 0.05326 1.1352-0.12061 2.2801 0.03391 3.4086 0.2358 1.0576 0.50207 2.1099 0.75963 3.1635 0.79964-0.0289 1.498 0.39992 2.2495 0.61235 0.06355 0.2819 0.12567 0.56388 0.18625 0.84885l1.0944 0.0274c-0.03233 1.2601-0.0531 2.5219-0.06384 3.7826-0.2436-0.0212-0.48897-0.0297-0.73429-0.0405-0.52123 0.72119-0.39898 1.7559 0.01685 2.4974 0.2159 0.42529 0.51702 0.79527 0.70356 1.2384 0.0896 0.39404 0.03274 0.80773 0.02525 1.2134-0.24289 0.23243-0.59487 0.4374-0.60791 0.83355-0.09076 0.83575-0.06333 1.679-0.06155 2.5202-0.46616 0.15099-0.88914 0.47663-1.0412 0.99629-0.53409 1.2786-0.29901 2.7019-0.3814 4.0551-0.06898 1.6185-0.1209 3.4188 0.79714 4.7986 0.29914 0.5031 0.78981 0.80501 1.2048 1.184-0.06914 0.55436-0.31222 1.0766-0.30654 1.6436 0.03315 0.67784 0.27211 1.3311 0.22128 2.0177-0.03182 0.62194-0.10718 2.6513-0.01931 3.2809 0.64478 0.0151 3.2573 0.0854 3.8105 0.0963 0.18166-0.66151 0.57166-1.3122 0.59996-2.021 0.15171-0.78938-0.65492-1.3887-0.4208-2.1807 0.17774-0.95905-0.0533-1.919-0.02144-2.8801 0.80516-0.92007 1.2694-2.1802 1.2483-3.4402 0.0054-0.82858 0.06851-1.6572 0.02186-2.4841-0.06266-0.93547-0.02636-1.9027-0.3561-2.7877-0.17456-0.57292-0.5381-1.0994-0.50763-1.7243 0.01307-1.2421 0.17066-2.4851 0.03627-3.7214-0.06294-0.58702-0.05642-1.1786-0.03841-1.7668 0.25783-0.0832 0.51412-0.16213 0.77189-0.24249 0.0054-0.45516 0.01701-0.90879-0.0041-1.3616-0.56006-0.69404-1.3464-1.07-2.1191-1.4177-0.038-1.5591 0.09587-3.1187 0.0015-4.6764 0.62212-0.0357 1.2452-0.0527 1.8679-0.0535 0.11988 0.11368 0.24113 0.23053 0.36086 0.3498 0.42863-0.0394 0.85865-0.0764 1.2873-0.1153 0.19438-1.2141 0.38445-2.4285 0.52704-3.6502 0.20033-1.3333 0.11643-2.683 0.1408-4.0237 0.02928-1.4259-0.24089-2.8299-0.43899-4.2306 0.34322-0.25788 0.73383-0.50512 0.90525-0.9361 0.3725-0.89231 0.61632-1.8371 0.92164-2.7575 0.33859-1.0913 1.4544-1.6179 2.4442-1.7403 2.8512-0.25865 5.7022-0.51415 8.5532-0.76361 0.53762-0.0646 1.1533-0.13215 1.5281-0.60453 0.41413-0.54433 0.24117-1.2921 0.26192-1.9313-0.09828-8.7837-0.18063-17.568-0.27312-26.352-0.01757-0.60941 0.04454-1.2274-0.0571-1.8278-0.51509-0.69444-1.0236-1.5965-1.9362-1.6669m-9.2588 14.738c0.41559 0.35595 0.40818 0.98302 0.46709 1.502 0.01561 0.46187 0.15448 0.96106-0.03916 1.4055-0.19443 0.59619-0.74108 1.0688-1.3444 1.0476-0.39968-0.47007-0.58595-1.0928-0.58426-1.7216 0.01192-0.74942-0.08637-1.5325 0.20336-2.2394 0.41029-0.1694 0.91511-0.30695 1.2972 6e-3m-15.68 1.9622c0.27641 0.60028 0.0928 1.2818 0.15151 1.9215 9e-3 0.44004 0.17846 0.92765-0.09161 1.3205-0.13324 0.35131-0.49142 0.46026-0.77732 0.62344-0.33557-0.15298-0.799-0.22142-0.93698-0.64313-0.22829-0.73061-0.11989-1.5209-0.11346-2.2783-0.01357-0.37049 0.19356-0.67509 0.36019-0.97617 0.46753-0.1478 0.96379-0.23291 1.4076 0.0353m7.5952 23.344 0.04733 0.0675c0.22379 0.0615 0.44758 0.12304 0.6713 0.18724 0.09736 0.42827 0.21196 0.86034 0.18749 1.3073-0.03217 1.2152-0.06335 2.4304-0.09452 3.6455-1.2339 0.11945-2.4707 0.24021-3.7087 0.2371-0.0022-0.0781-0.0055-0.23712-0.0078-0.31616-0.08835-0.77977-0.20585-1.6052 0.02312-2.3661 0.22076-1.1719 0.99877-2.2165 2.0622-2.6158 0.27685-0.0361 0.54968-0.0841 0.81999-0.14692m-1.423 16.5c0.02056 0.43577-0.01085 0.87492-0.1086 1.303-0.19778-0.45572-0.50934-0.92498-0.38022-1.4531 0.16348 0.0473 0.32543 0.0978 0.48879 0.14935m-0.50924 8.0808c-0.0735 1.005 0.10876 2.3494 1.1202 2.7371 0.65265 0.23791 1.4206 0.0914 1.9751-0.34858 0.30923-0.34086 0.54217-0.74864 0.81462-1.1198 0.46018 0.30743 0.40624 0.94581 0.40048 1.4522-0.0582 1.4221-0.04851 2.8473-0.12976 4.2688-0.07478 0.43654-0.1631 1.0647-0.64568 1.1798-0.22304 0.0783-0.3303-0.18954-0.45982-0.3214-0.67126-0.13213-1.391-0.23458-2.0541-8e-3 -0.01357 0.122-0.03977 0.36612-0.05438 0.48797-0.60279-0.0978-0.79444-0.79264-1.1209-1.2454-0.37836-0.45557-0.23756-1.1012-0.33896-1.6535-0.19879-0.92351-0.10214-1.8754-0.10555-2.8125 0.02688-0.88383-0.04397-1.7778 0.13007-2.6486 0.11694 3e-3 0.35189 0.0239 0.46867 0.0327m3.3448 10.459c0.06479 0.51435 0.1397 1.0304 0.15086 1.5527-0.16184 0.39568-0.71589 0.31205-1.0425 0.26053-0.05789-0.27885-0.11769-0.59315 0.049-0.83982 0.2606-0.47221 0.44129-0.98346 0.5804-1.5067 0.1349 0.14785 0.26516 0.3071 0.26225 0.53329m-2.076-0.5082c0.14831 0.69459 0.20697 1.4489-0.02436 2.1339-0.09623 0.20217-0.31717 0.19968-0.40714-0.0102-0.11748-0.71386-0.02219-1.4426 0.07256-2.1527 0.08952 2e-3 0.26959 0.0218 0.35907 0.0253z" fill="url(#a)"/>
<path d="m2.3714 489.54c0.01083-7.4817 0.20989-16.362 0.01624-23.826 0.02258-6.9106 0.12821-13.819 0.09503-20.736-0.05773-1.1228-0.09611-2.2704-0.08389-3.4186 0.05323-5.4466 0.07755-10.902 0.10982-16.35 0.01349-2.0242 0.06223-4.0716-0.06315-6.0606-0.02524-6.188 0.06856-12.375 0.09013-18.558 0.06856-3.1075-0.14327-6.1837-0.07756-9.2915 0.03607-6.1818 0.11801-12.376 0.08563-18.558-0.16625-2.7323-0.03065-5.5261-0.03965-8.286 1.83e-4 -5.9116 0.16968-11.844-0.01441-17.737 0.0092-4.6684 0.06672-9.3368 0.08205-14.005-9.12e-4 -3.0322 0.10468-6.087-0.04598-9.0968-0.13516-3.3252-0.04057-6.6984-0.08838-10.048 0.04506-13.144 0-26.28 0.05231-39.423-0.0092-7.1986-0.04598-14.406 0.04874-21.6 0.12154-52.122 0.05865-162.68 0.09013-229.44 3.0021-4.114 5.4592-5.9178 11.042-8.7106 0.0118 56.036-0.0949 104.68-0.0995 160.72-0.0352 53.804-0.0316 107.62-0.0739 161.42-0.0135 5.7402-0.15959 11.495-0.0297 17.228 0.15039 4.1152 0.0144 8.2562 0.0352 12.385 0.055 12.042-0.0352 24.086 0.0172 36.129-0.0721 8.3888 0.0135 16.784-0.0189 25.172-0.0776 7.4913 0.0712 15-0.046 22.481-0.0478 3.8267-0.083 7.6545-0.0748 11.482 0.18106 9.2914-0.1356 18.608 0.0622 27.896l0.92486 0.0951c0.0172-7.667 0.10467-15.327 0.12163-22.994-0.2107-6.1795 0.0406-12.399-0.0352-18.604-0.0731-1.0693-0.0954-2.1717-0.083-3.2652 0.0387-5.6672 0.0776-11.334 0.10738-17.002 9e-3 -2.1997 0.0766-4.4312-0.0649-6.5973-0.0361-6.1504 0.10846-12.305 0.0613-18.451-0.26957-3.7936-9e-3 -7.7405-0.0676-11.6-0.14263-7.1198 0-14.254-9e-3 -21.376-0.19411-9.9827 0.16004-19.99-0.0442-29.968-0.0307-4.9733 0.12171-9.9495 0-14.916-0.0442-5.8231 0.0316-11.65 0.0469-17.473-0.10666-5.8514-0.0451-11.718-0.0144-17.578 0.0622-3.8419-0.0922-7.684-0.0424-11.527 0-4.5385 0.0559-9.0642 0.0532-13.597-0.17545-8.393 0.10459-16.81-0.0532-25.201-0.0162-2.1421 0-4.2856 0.0153-6.43 0.028-6.6095 0.10044-13.209 0.13326-19.812-0.18257-5.2791-0.0252-10.595-0.0234-15.893-0.0568-0.88693-0.12352-1.7917-0.12748-2.7119-0.0271-5.8593 0.12387-11.718 9e-3 -17.575-0.0271-5.6575 0.0306-11.317 0.0487-16.975-0.17348-6.9742-0.0839-10.158-0.13533-18.023-0.018-9.6797 0.21845-19.361 0.0776-29.036-0.0271-6.9379 0.11665-13.88 0-20.817 0.0766-6.4705-0.33162 4.5775 9e-3 -52.515-0.18249-8.6797 0.13398-25.225 0.1448-25.803 3.7046-2.1019 7.2268-3.2854 10.838-4.2897 0.0667-3.0728 0.14533 3.3325 0.16534 4.402-0.0523 6.7491-0.096 13.499-0.13541 20.25-0.0108 2.1505-0.0604 4.3076 0.0172 6.4445 0.0559 0.9527 0.11982 1.8955 0.11892 2.8641-0.24515 113.45-0.49336 226.9-0.73851 340.36-0.0487 17.128-0.0523 34.261-0.12721 51.381-0.0559 4.9532-0.0703 9.9053-0.11208 14.855 0.13479 10.945-0.0415 21.902-0.0731 32.846 0.0325 2.554 0.16101 4.776 0.12761 7.34l0.67214 3e-3c0.0496-12.404 0.0846-24.396 0.10983-36.802 2.5e-4 -1.7241 0.0288-3.4458 0.064-5.1607 0.0181-15.218-0.28608-5.2504 0.11045-65.422-0.0486-10.225 0.0252-20.453 0.0595-30.68-0.0397-4.5366-0.0271-9.0837 0.0117-13.623 0.0135-22.725 0.0587-2.5942 0.0424-33.44 0.11765-63.298 0.25326-126.59 0.36785-189.89 0.0505-6.4919-0.0469-13.016 0.10576-19.498-0.0977-4.4696 0.0587-15.28 0-21.446 9e-3 -5.6975 0.0523-11.391 0.0875-17.086-0.10323-9.2888 0-18.589 0.0514-27.878-0.10134-10.399-0.0352-9.2523 0.0198-19.658 2.6587-0.5204 4.8202-2.7586 10.373-2.7771-0.15419 98.126-0.29186 196.25-0.44055 294.38-0.037 18.662-0.0288 37.328-0.0971 55.992-0.0406 6.3344 0.0226 12.669-0.0172 19.003-0.0577 13.323-7.3e-4 26.641-0.0839 39.961 0.0424 8.9433-9e-3 17.888-0.0379 26.834 0.0478 9.1299-0.0162 18.264-0.0387 27.398 0.0487 7.0988 0.24013 12.453 0.23114 19.552l0.7756-0.0231c0.14661-161.94 0.24082-322.01 0.3905-483.95-0.0297-4.3062-32.116 5.64-35.342 16.001-0.03699 58.883-0.1081 117.77-0.15237 176.65-0.09927 96.514-0.16554 194.54-0.27526 291.05" fill="url(#b)"/>
</svg>
