<?xml version="1.0" encoding="UTF-8"?>
<svg width="50" height="700" version="1.1" viewBox="0 0 40 560" xmlns="http://www.w3.org/2000/svg" xmlns:cc="http://creativecommons.org/ns#" xmlns:dc="http://purl.org/dc/elements/1.1/" xmlns:rdf="http://www.w3.org/1999/02/22-rdf-syntax-ns#">
<metadata>
<rdf:RDF>
<cc:Work rdf:about="">
<dc:format>image/svg+xml</dc:format>
<dc:type rdf:resource="http://purl.org/dc/dcmitype/StillImage"/>
<dc:title/>
</cc:Work>
</rdf:RDF>
</metadata>
<defs>
<linearGradient id="a" x1="20" x2="19.673" y1="243.25" y2="58.254" gradientTransform="matrix(.90161 0 0 .31789 2.487 3.901)" gradientUnits="userSpaceOnUse">
<stop offset="0"/>
<stop stop-opacity="0" offset="1"/>
</linearGradient>
<linearGradient id="b" x1="21.875" x2="23.73" y1="134.88" y2="119.55" gradientTransform="matrix(.89655 0 0 .98937 .00066059 344)" gradientUnits="userSpaceOnUse">
<stop offset="0"/>
<stop stop-opacity="0" offset="1"/>
</linearGradient>
</defs>
<path d="m3.3035 479.84c0.77535 0.10014 1.328 0.14783 2.1022 0.26047 0.44386 0.0639 0.90611 0.0882 1.3404-0.0566 1.2542-0.8859 3.1304-1.9119 4.2032-0.45707 1.08 1.348 2.3704 3.4969 3.3497 4.9282 0.60946 1.0994 1.3406 1.4574 2.1315 2.5668 0.2488 0.36835 0.71954 0.37484 1.1014 0.45989 2.1788 0.30587 4.3538 0.64369 6.5311 0.94819 0.83892 0.2024 1.5051-0.95706 2.0349-1.456 1.4761-1.6549 2.6491-3.2667 3.5027-4.0054 0.39765-0.42398 0.77437-0.91208 1.2984-1.1615 1.0572-0.31102 2.3291-2e-3 2.9322 1.0321 0.27401 0.3644 0.54698 0.80781 1.011 0.90299 0.66334 0.14754 1.6905 0.16129 2.3635 0.1564 0.32318 0.19911 0.3189-0.0534 0.65522 0.0112 0.59538-0.0736 1.151 0.34901 1.6729 0.61919 0.23482 0.83149 0.16685 1.7036 0.19826 2.5601 0.03786 1.9837 0.14936 3.9685 0.03269 5.9505-0.05388 3.0272 0.12306 6.0522 0.09895 9.08 0.03561 2.6691 0.07127 5.34 0.10552 8.0106-0.0011 1.3517 0.12622 2.7171-0.12992 4.0559-0.58524 0.48648-1.1335 1.0224-1.7342 1.4855-0.24364 0.20634-0.57407 0.092-0.85559 0.0896-1.2595-0.10671-2.5157-0.32278-3.7823-0.29128-0.40912-0.0436-0.81834-0.092-1.2271-0.11978-1.5836-0.14692-3.1678-0.43611-4.7594-0.35843-0.32165 0.48633-0.59316 1.014-0.69633 1.6046-0.0985 0.65985-0.55581 1.1409-0.98107 1.5925 0.32159 0.48317 0.39291 1.0841 0.42493 1.6611 0.04519 1.0536 0.07404 2.1075 0.01344 3.161-0.05655 1.1576 0.121 2.3239-0.03992 3.4752-0.24458 1.0794-0.52056 2.1536-0.78757 3.2291-0.82416-0.0253-1.5446 0.41559-2.3195 0.63612-0.06591 0.28772-0.13035 0.57552-0.19321 0.86636-0.3765 0.0113-0.7515 0.0225-1.128 0.0336 0.03149 1.2845 0.05107 2.5708 0.06028 3.8559 0.25111-0.0229 0.50403-0.0328 0.7569-0.0451 0.53619 0.73248 0.40868 1.788-0.021 2.5461-0.22315 0.4347-0.53405 0.81347-0.72697 1.2662-0.09292 0.40219-0.03491 0.82363-0.02779 1.2372 0.25001 0.23566 0.6125 0.44277 0.62537 0.84656 0.09234 0.85154 0.06283 1.7114 0.05974 2.569 0.48026 0.15147 0.91575 0.48124 1.0717 1.0102 0.54863 1.3006 0.30426 2.7529 0.38721 4.132 0.06874 1.6497 0.11964 3.4847-0.8286 4.8962-0.30906 0.51447-0.81523 0.82484-1.2435 1.2134 0.07045 0.56478 0.32024 1.0959 0.31356 1.674-0.03514 0.69122-0.28241 1.3585-0.23101 2.0581 0.0319 0.63388 0.28338 0.783 0.19191 1.4253-0.96173-9.9e-4 -4.0189 4e-3 -4.7135 2e-3 -0.15522-0.80394 0.67068-1.4403 0.43052-2.2465-0.18181-0.97677 0.05773-1.9566 0.02629-2.9362-0.82855-0.93373-1.3052-2.216-1.2816-3.5006-0.0043-0.84468-0.0682-1.6891-0.01891-2.5323 0.06594-0.95401 0.02994-1.9399 0.37109-2.8438 0.18075-0.58498 0.55623-1.1236 0.52573-1.7605-0.01166-1.2662-0.17228-2.5326-0.03196-3.7937 0.06572-0.59877 0.05987-1.2018 0.04217-1.8014-0.26563-0.0835-0.52967-0.16258-0.79524-0.24314-0.0049-0.464-0.01625-0.92638 0.0062-1.3881 0.57827-0.71051 1.3893-1.0979 2.1862-1.4565 0.04143-1.5896-0.09428-3.1789 0.0053-4.7674-0.64117-0.0331-1.2834-0.0472-1.9251-0.0447-0.12373 0.11653-0.24887 0.23629-0.37245 0.35852-0.44174-0.0379-0.88491-0.0733-1.3266-0.11076-0.19858-1.2368-0.39272-2.4737-0.53791-3.7185-0.20454-1.3582-0.11611-2.7346-0.13927-4.1013-0.0281-1.4535 0.25241-2.8862 0.45864-4.3152-0.35338-0.26108-0.75564-0.51107-0.93168-0.94953-0.38264-0.90773-0.63258-1.8696-0.94593-2.8063-0.3474-1.1108-1.4967-1.6417-2.5167-1.7613-2.9383-0.24865-5.8766-0.4941-8.8147-0.73336-0.55404-0.063-1.1886-0.12864-1.5741-0.60824-0.42605-0.55276-0.2467-1.316-0.26715-1.9675 0.11409-8.9552 0.21176-17.911 0.31988-26.866 0.018994-0.62136-0.044119-1.2511 0.061514-1.8636 0.53216-0.708 1.1148-1.2868 2.0556-1.3638m9.4636 14.632c-0.42887 0.36507-0.42215 1.0043-0.48362 1.5337-0.01676 0.47094-0.16063 0.98058 0.03835 1.4326 0.19954 0.60677 0.76228 1.0857 1.3842 1.0608 0.41263-0.48133 0.60554-1.1172 0.60471-1.7582-0.01119-0.76394 0.09125-1.5628-0.20634-2.2819-0.42265-0.17052-0.94277-0.30809-1.337 0.0126m16.159 1.918c-0.28578 0.61342-0.09752 1.3072-0.15896 1.9597-0.0099 0.44866-0.18529 0.94666 0.0925 1.3457 0.13682 0.35744 0.50585 0.46663 0.80028 0.63148 0.3461-0.15773 0.82386-0.22995 0.96669-0.66059 0.23636-0.74603 0.12578-1.5512 0.12026-2.3232 0.01452-0.37777-0.19853-0.6872-0.36983-0.99326-0.48167-0.14822-0.99305-0.23237-1.4509 0.0433m-7.8625 23.839-0.04889 0.0692c-0.23075 0.0639-0.46151 0.1278-0.69219 0.19442-0.10097 0.43711-0.21973 0.8782-0.19515 1.3338 0.03144 1.2386 0.0618 2.4773 0.09216 3.716 1.2716 0.11526 2.5463 0.23184 3.8223 0.22214 0.0023-0.0797 6e-3 -0.24176 0.0084-0.32235 0.0922-0.79541 0.21451-1.6376-0.02038-2.412-0.22583-1.1935-1.0262-2.2544-2.1217-2.6559-0.2853-0.0354-0.56644-0.0829-0.84496-0.14544m1.4426 16.814c-0.02182 0.44438 0.0099 0.8919 0.11004 1.3278 0.20452-0.46562 0.52633-0.94567 0.39401-1.4834-0.16857 0.049-0.33556 0.10146-0.50402 0.15482m0.51311 8.2354c0.07429 1.0242-0.11552 2.3957-1.1586 2.7963-0.67304 0.24599-1.4644 0.10072-2.0353-0.34496-0.31823-0.34586-0.55773-0.76033-0.838-1.1373-0.47476 0.31585-0.4201 0.96637-0.41489 1.4826 0.05792 1.4495 0.04585 2.9025 0.12753 4.3512 0.07644 0.44465 0.16656 1.0846 0.66379 1.1993 0.22978 0.0787 0.34072-0.19497 0.47442-0.33008 0.69206-0.13824 1.434-0.24649 2.1172-0.0193 0.01381 0.1243 0.04046 0.37304 0.05534 0.49718 0.62145-0.10287 0.82-0.81227 1.1571-1.2755 0.39064-0.46644 0.24646-1.1239 0.35178-1.6875 0.20624-0.94252 0.10801-1.9124 0.11288-2.8678-0.02639-0.9009 0.04791-1.8126-0.1302-2.6995-0.12054 4e-3 -0.36273 0.0262-0.48311 0.0358m-3.4627 10.68c-0.06754 0.52472-0.14549 1.0512-0.15776 1.5837 0.16624 0.40254 0.73742 0.31434 1.0741 0.26012 0.06008-0.28459 0.12217-0.60533-0.04928-0.85592-0.26791-0.48002-0.45342-1.0003-0.59603-1.533-0.13926 0.15142-0.27375 0.31447-0.27108 0.54503m2.1404-0.52982c-0.15388 0.7089-0.21544 1.4782 0.022 2.1753 0.09889 0.20561 0.32662 0.2019 0.41966-0.0126 0.12212-0.72836 0.02498-1.4707-0.07165-2.1942-0.09227 3e-3 -0.2779 0.0238-0.37013 0.0277z" fill="url(#b)"/>
<path d="m3.2868 488.57c0.01083-7.4816 0.20989-16.362 0.01624-23.826 0.02258-6.9106 0.12821-13.819 0.09503-20.736-0.05773-1.1228-0.09611-2.2704-0.08389-3.4186 0.05323-5.4466 0.07755-10.902 0.10982-16.35 0.01349-2.0242 0.06223-4.0716-0.06315-6.0606-0.02524-6.1879 0.06856-12.374 0.09013-18.558 0.06856-3.1075-0.14327-6.1837-0.07756-9.2915 0.03607-6.1817 0.11801-12.376 0.08563-18.558-0.16625-2.7323-0.03065-5.5261-0.03965-8.2859 1.83e-4 -5.9116 0.16968-11.844-0.01441-17.737 0.0092-4.6684 0.06672-9.3368 0.08205-14.005-9.11e-4 -3.0322 0.10468-6.0869-0.04598-9.0967-0.13516-3.3252-0.04057-6.6984-0.08838-10.048 0.04506-13.143 0-26.28 0.05231-39.422-0.0092-7.1986-0.04598-14.406 0.04874-21.6 0.12154-52.122 0.05865-162.68 0.09013-229.44 3.0021-4.114 5.4591-5.9178 11.042-8.7106 0.01175 56.036-0.09494 104.68-0.09954 160.72-0.03515 53.803-0.03157 107.62-0.07388 161.42-0.01349 5.7402-0.15959 11.495-0.02974 17.228 0.15039 4.1152 0.01441 8.2562 0.03515 12.385 0.05498 12.042-0.03515 24.086 0.01716 36.129-0.07214 8.3888 0.01349 16.784-0.01891 25.172-0.07756 7.4912 0.07122 15-0.04598 22.481-0.04782 3.8267-0.08297 7.6544-0.0748 11.482 0.18106 9.2914-0.1356 18.608 0.06223 27.896l0.92486 0.0951c0.01716-7.667 0.10467-15.327 0.12163-22.994-0.2107-6.1795 0.04057-12.399-0.03515-18.604-0.07306-1.0693-0.09539-2.1717-0.08297-3.2652 0.03873-5.6672 0.07755-11.334 0.10738-17.002 0.0092-2.1997 0.07664-4.4312-0.06489-6.5973-0.03607-6.1503 0.10846-12.305 0.06131-18.451-0.26958-3.7936-0.0092-7.7405-0.06764-11.6-0.14264-7.1198 0-14.254-0.0092-21.376-0.19412-9.9827 0.16004-19.99-0.04415-29.968-0.03066-4.9733 0.12171-9.9494 0-14.916-0.04415-5.8231 0.03157-11.65 0.0469-17.473-0.10666-5.8514-0.04506-11.718-0.01441-17.578 0.06223-3.8418-0.09215-7.6839-0.0424-11.527 0-4.5385 0.05589-9.0641 0.05323-13.597-0.17546-8.3929 0.10458-16.81-0.05323-25.201-0.01624-2.1421 0-4.2856 0.01533-6.43 0.02799-6.6095 0.10044-13.209 0.13326-19.812-0.18257-5.2791-0.02524-10.595-0.0234-15.893-0.05681-0.88693-0.12352-1.7917-0.12748-2.7119-0.02708-5.8593 0.12388-11.718 0.0092-17.575-0.02708-5.6575 0.03065-11.317 0.04873-16.975-0.17347-6.9742-0.08389-10.158-0.13533-18.023-0.01799-9.6797 0.21846-19.36 0.07755-29.036-0.02708-6.9379 0.11665-13.88 0-20.817 0.07664-6.4705-0.33161 4.5775 0.0092-52.514-0.18249-8.6797 0.13398-25.225 0.1448-25.803 3.7046-2.1019 7.2268-3.2854 10.838-4.2897 0.06672-3.0728 0.14534 3.3325 0.16534 4.402-0.05232 6.749-0.09601 13.499-0.13541 20.25-0.01083 2.1505-0.06039 4.3076 0.01716 6.4445 0.05589 0.9527 0.11982 1.8955 0.11892 2.8641-0.24515 113.45-0.49336 226.9-0.7385 340.35-0.04874 17.128-0.05232 34.261-0.12722 51.381-0.05589 4.9532-0.0703 9.9053-0.11207 14.855 0.13479 10.945-0.04148 21.902-0.07306 32.846 0.03249 2.554 0.16101 4.776 0.1276 7.34l0.67215 3e-3c0.04956-12.404 0.08462-24.396 0.10982-36.802 2.57e-4 -1.7241 0.02882-3.4458 0.06397-5.1607 0.01808-15.218-0.28608-5.2504 0.11045-65.422-0.04864-10.225 0.02524-20.453 0.05947-30.68-0.03965-4.5366-0.02708-9.0837 0.01175-13.623 0.01349-22.725 0.05865-2.5942 0.0424-33.44 0.11765-63.297 0.25326-126.59 0.36785-189.89 0.05048-6.4919-0.0469-13.016 0.10577-19.498-0.09774-4.4695 0.05865-15.28 0-21.446 0.0092-5.6974 0.05232-11.391 0.08747-17.086-0.10324-9.2887 0-18.589 0.0514-27.878-0.10134-10.399-0.03515-9.2525 0.01982-19.658 2.6586-0.5204 4.8202-2.7586 10.373-2.7771-0.15419 98.126-0.29186 196.25-0.44055 294.38-0.03699 18.662-0.02882 37.328-0.0971 55.992-0.04057 6.3344 0.02258 12.669-0.01716 19.003-0.05773 13.323-7.34e-4 26.641-0.08389 39.961 0.0424 8.9433-0.0092 17.888-0.03791 26.834 0.04782 9.1299-0.01624 18.264-0.03873 27.398 0.04874 7.0988 0.24013 12.452 0.23114 19.552l0.7756-0.0231c0.14661-161.94 0.24082-322.01 0.3905-483.95-0.0297-4.3062-32.116 5.64-35.342 16.001-0.03699 58.883-0.1081 117.77-0.15237 176.64-0.09927 96.514-0.16554 194.54-0.27526 291.05" fill="url(#a)"/>
</svg>
