<?xml version="1.0" encoding="UTF-8"?>
<svg width="489.66" height="932.46" version="1.1" viewBox="0 0 391.72 745.97" xmlns="http://www.w3.org/2000/svg" xmlns:cc="http://creativecommons.org/ns#" xmlns:dc="http://purl.org/dc/elements/1.1/" xmlns:rdf="http://www.w3.org/1999/02/22-rdf-syntax-ns#">
<metadata>
<rdf:RDF>
<cc:Work rdf:about="">
<dc:format>image/svg+xml</dc:format>
<dc:type rdf:resource="http://purl.org/dc/dcmitype/StillImage"/>
<dc:title/>
</cc:Work>
</rdf:RDF>
</metadata>
<defs>
<linearGradient id="a" x1="18.862" x2="19.673" y1="1523.2" y2="58.254" gradientTransform="matrix(.98235 0 0 .48109 171.1 11.903)" gradientUnits="userSpaceOnUse">
<stop offset="0"/>
<stop stop-opacity="0" offset="1"/>
</linearGradient>
<linearGradient id="c" x1="21.138" x2="19.673" y1="1522" y2="58.254" gradientTransform="matrix(.98235 0 0 .47979 349.68 13.012)" gradientUnits="userSpaceOnUse">
<stop offset="0"/>
<stop stop-opacity="0" offset="1"/>
</linearGradient>
<linearGradient id="b" x1="21.163" x2="19.673" y1="1522.5" y2="58.254" gradientTransform="matrix(.98235 0 0 .48239 4.852 11.201)" gradientUnits="userSpaceOnUse">
<stop offset="0"/>
<stop stop-opacity="0" offset="1"/>
</linearGradient>
</defs>
<path d="m171.18 745.98 0.81833-0.0149c0.0122-11.322 0.19981-25.34-0.0117-36.636 0.0242-10.458 0.13973-20.913 0.10358-31.38-0.0632-1.6994-0.1048-3.4362-0.091-5.1738 0.0584-8.2427 0.0845-16.498 0.11959-24.743 0.0145-3.0634 0.0674-6.1618-0.0689-9.1719-0.0272-9.3646 0.0747-18.727 0.0981-28.084 0.0746-4.7028-0.15606-9.3583-0.0847-14.061 0.0396-9.355 0.12855-18.729 0.0932-28.085-0.18116-4.1349-0.0338-8.363-0.0435-12.54 1.7e-4 -8.9463 0.18481-17.925-0.0159-26.842 9e-3 -7.0649 0.0723-14.13 0.0889-21.194-9.8e-4 -4.5891 0.11402-9.2118-0.0503-13.767-0.1472-5.0322-0.0443-10.137-0.0968-15.206 0.0496-19.891 9.9e-4 -39.771 0.0574-59.661-8e-3 -10.894-0.0499-21.802 0.0531-32.688 0.13244-78.88 0.0642-246.2 0.0982-347.22 3.2709-6.2259 5.948-8.9558 12.031-13.182 0.013 84.803-0.10345 158.42-0.10844 243.22-0.0383 81.424-0.0343 162.86-0.0807 244.29-0.0151 8.687-0.17396 17.396-0.0323 26.073 0.16391 6.2277 0.016 12.494 0.0378 18.743 0.0601 18.224-0.0381 36.451 0.0187 54.676-0.0781 12.696 0.0151 25.4-0.0204 38.094-0.0841 11.337 0.078 22.7-0.0502 34.022-0.0526 5.7913-0.0903 11.584-0.0818 17.376 0.19725 14.061-0.0953 29.103 0.12018 43.159l0.90292-0.0132c0.0186-11.603 0.16641-23.981 0.1849-35.584-0.22953-9.3517 0.0438-18.764-0.0386-28.154-0.0798-1.6183-0.10393-3.2866-0.0906-4.9413 0.0427-8.5765 0.0843-17.152 0.11698-25.73 9e-3 -3.329 0.0833-6.706-0.0712-9.9841-0.0388-9.3077 0.11821-18.622 0.0663-27.923-0.29369-5.741-5e-3 -11.714-0.0733-17.555-0.15533-10.775 9.8e-4 -21.571-7e-3 -32.349-0.21147-15.108 0.17445-30.252-0.0484-45.353-0.0333-7.5262 0.13262-15.057 3e-3 -22.573-0.0479-8.8125 0.0347-17.631 0.0506-26.443-0.11621-8.8554-0.0495-17.734-0.0155-26.601 0.0673-5.8141-0.10038-11.629-0.0462-17.444-4e-3 -6.8685 0.0608-13.717 0.0581-20.577-0.19116-12.701 0.11397-25.44-0.0577-38.138-0.0177-3.2418 2e-3 -6.4857 0.0172-9.731 0.03-10.003 0.10941-19.99 0.14525-29.983-0.19898-7.9892-0.0272-16.034-0.0254-24.052-0.0616-1.3421-0.1346-2.7114-0.13889-4.104-0.0296-8.8671 0.13488-17.733 6e-3 -26.598-0.0297-8.5618 0.0338-17.126 0.0532-25.689-0.18899-10.554-0.0916-15.372-0.14748-27.275-0.0196-14.649 0.2381-29.299 0.0847-43.942-0.0295-10.5 0.12712-21.006 9.9e-4 -31.503 0.0837-9.7922-0.3614 6.9274 0.0101-79.474-0.19884-13.136 0.14598-38.175 0.15778-39.049 4.0364-3.1809 7.874-4.972 11.809-6.4919 0.0725-4.6502 0.15834 5.0432 0.18014 6.6618-0.057 10.214-0.10459 20.429-0.14746 30.645-0.012 3.2544-0.066 6.5189 0.0186 9.7528 0.0611 1.4418 0.13055 2.8686 0.12956 4.3345-0.2671 171.69-0.53745 343.39-0.80456 515.08-0.0528 25.921-0.0566 51.849-0.13862 77.757-0.0612 7.4958-0.0767 14.99-0.12217 22.481 0.14691 16.563-0.0457 33.145-0.0799 49.708 0.0357 3.8652-0.17585 6.9546-0.21205 10.835l0.88443-7e-3c0.0536-18.772 0.29193-36.634 0.31943-55.41 2.6e-4 -2.6093 0.0314-5.2148 0.0694-7.8101 0.0192-23.03-0.31169-7.9457 0.12028-99.007-0.0529-15.474 0.0279-30.952 0.0647-46.43-0.0431-6.8654-0.0292-13.747 0.0125-20.617 0.0152-34.391 0.0637-3.9257 0.0467-50.607 0.12816-95.792 0.27587-191.57 0.40078-287.37 0.055-9.8246-0.0509-19.698 0.11521-29.507-0.10647-6.764 0.0635-23.124 5e-3 -32.455 5e-3 -8.6223 0.0573-17.239 0.0949-25.857-0.11242-14.057 2e-3 -28.131 0.0561-42.19-0.11034-15.738-0.0382-14.002 0.0211-29.749 2.8967-0.78755 5.2518-4.1748 11.302-4.2028-0.16464 148.5-0.31464 297-0.47603 445.49-0.0402 28.242-0.0314 56.491-0.10584 84.736-0.0444 9.5862 0.0243 19.172-0.0184 28.759-0.0624 20.162-8e-4 40.317-0.091 60.475 0.0465 13.534-8e-3 27.07-0.0415 40.61 0.0517 13.817-0.0175 27.641-0.0425 41.463 0.0527 10.743-0.0878 18.929-0.097 29.672l1.0312 3e-3c0.1598-245.08 0.42537-487.43 0.58844-732.51-0.0321-6.5168-34.992 8.5354-38.507 24.215-0.0401 89.112-0.11779 178.23-0.16603 267.33" fill="url(#a)"/>
<path d="m350.56 745.98c0.0118-11.292 0.22869-26.162 0.0177-37.427 0.0246-10.43 0.13969-20.856 0.10354-31.296-0.0629-1.6947-0.10472-3.4267-0.0914-5.1596 0.058-8.2204 0.0845-16.454 0.11965-24.676 0.0147-3.0551 0.0678-6.1451-0.0688-9.1471-0.0275-9.3392 0.0747-18.676 0.0982-28.008 0.0747-4.69-0.1561-9.3329-0.0845-14.023 0.0393-9.3299 0.12858-18.678 0.0933-28.009-0.18114-4.1238-0.0334-8.3404-0.0432-12.506 2e-4 -8.9222 0.18488-17.876-0.0157-26.77 0.01-7.0459 0.0727-14.092 0.0894-21.137-9.9e-4 -4.5764 0.11405-9.1868-0.0501-13.729-0.14726-5.0186-0.0442-10.11-0.0963-15.165 0.0491-19.837 0-39.663 0.057-59.499-0.01-10.865-0.0501-21.743 0.0531-32.6 0.13242-78.666 0.0639-245.53 0.0982-346.28 3.2709-6.2091 5.948-8.9315 12.031-13.147 0.0128 84.573-0.10344 157.99-0.10845 242.56-0.0383 81.204-0.0344 162.42-0.0805 243.62-0.0147 8.6636-0.17388 17.349-0.0324 26.002 0.16386 6.2109 0.0157 12.461 0.0383 18.692 0.0599 18.175-0.0383 36.353 0.0187 54.528-0.0786 12.661 0.0147 25.331-0.0206 37.991-0.0845 11.306 0.0776 22.639-0.0501 33.93-0.0521 5.7756-0.0904 11.553-0.0815 17.329 0.19727 14.023-0.23505 29.9-0.0195 43.918l1.0252 4e-3c0.0187-11.572 0.18389-24.808 0.20237-36.38-0.22957-9.3265 0.0442-18.714-0.0383-28.078-0.0796-1.6139-0.10393-3.2777-0.0904-4.928 0.0422-8.5533 0.0845-17.106 0.117-25.66 0.01-3.3199 0.0835-6.6878-0.0707-9.9571-0.0393-9.2825 0.11817-18.571 0.0668-27.848-0.29372-5.7256-0.01-11.682-0.0737-17.508-0.15541-10.746 0-21.513-0.01-32.262-0.2115-15.067 0.17437-30.171-0.0481-45.23-0.0334-7.506 0.13261-15.016 0-22.512-0.0481-8.7886 0.0344-17.584 0.0511-26.372-0.11621-8.8313-0.0491-17.686-0.0157-26.529 0.0678-5.7984-0.1004-11.597-0.0462-17.397 0-6.8498 0.0609-13.68 0.058-20.521-0.19117-12.667 0.11395-25.371-0.058-38.035-0.0177-3.2329 0-6.4681 0.0167-9.7045 0.0305-9.9755 0.10943-19.936 0.14519-29.902-0.19892-7.9676-0.0275-15.991-0.0255-23.987-0.0619-1.3386-0.13458-2.7042-0.1389-4.093-0.0295-8.8432 0.13497-17.685 0.01-26.525-0.0295-8.5387 0.0334-17.08 0.0531-25.62-0.18901-10.526-0.0914-15.331-0.14745-27.201-0.0196-14.609 0.23802-29.22 0.0845-43.823-0.0295-10.471 0.1271-20.949 0-31.418 0.0835-9.7657-0.36131 6.9087 0.01-79.258-0.19883-13.1 0.14598-38.072 0.15777-38.943 4.0364-3.1723 7.874-4.9586 11.809-6.4744 0.0727-4.6377 0.15835 5.0296 0.18015 6.6438-0.057 10.186-0.10461 20.374-0.14754 30.562-0.0118 3.2456-0.0658 6.5013 0.0187 9.7265 0.0609 1.4379 0.13055 2.8608 0.12957 4.3227-0.2671 171.23-0.53754 342.46-0.80464 513.69-0.0531 25.851-0.057 51.709-0.13861 77.547-0.0609 7.4757-0.0766 14.95-0.12211 22.42 0.14686 16.518-0.0452 33.055-0.0796 49.573 0.0354 3.8547 0.0357 7.802-6.6e-4 11.672l0.92441 4e-3c0.054-18.721 0.0398-37.413 0.0673-56.138 2.8e-4 -2.6022 0.0314-5.2006 0.0697-7.7889 0.0197-22.968-0.3117-7.9243 0.12034-98.74-0.053-15.432 0.0275-30.869 0.0648-46.304-0.0432-6.8469-0.0295-13.71 0.0128-20.561 0.0147-34.298 0.0639-3.9153 0.0462-50.47 0.12819-95.533 0.27594-191.06 0.40079-286.59 0.055-9.798-0.0511-19.644 0.11524-29.427-0.10649-6.7457 0.0639-23.062 0-32.367 0.01-8.599 0.057-17.193 0.0953-25.787-0.11248-14.019 0-28.055 0.056-42.076-0.11042-15.695-0.0383-13.964 0.0216-29.669 2.8968-0.78542 5.2518-4.1635 11.302-4.1914-0.168 148.1-0.318 296.2-0.48 444.29-0.0403 28.166-0.0314 56.338-0.1058 84.507-0.0442 9.5603 0.0246 19.121-0.0187 28.681-0.0629 20.108-8e-4 40.208-0.0914 60.311 0.0462 13.498-0.01 26.997-0.0413 40.5 0.0521 13.779-0.0177 27.566-0.0422 41.35 0.0531 10.714 0.24418 19.755 0.23438 30.469l0.8276 2e-5c0.15974-244.42 0.29731-486.99 0.46039-731.4-0.0324-6.4992-34.992 8.5123-38.507 24.149-0.0403 88.871-0.11778 177.74-0.16602 266.6-0.10815 145.67-0.23274 294.99-0.35229 440.65" fill="url(#c)"/>
<path d="m4.9195 745.98 0.68462-0.0165c0.01218-11.353 0.34798-24.119 0.13653-35.446 0.02417-10.487 0.13973-20.969 0.10358-31.465-0.06316-1.704-0.10479-3.4455-0.09096-5.1877 0.05845-8.2652 0.08448-16.543 0.1196-24.81 0.01454-3.0716 0.06739-6.1784-0.06886-9.1967-0.02721-9.3901 0.07466-18.778 0.09814-28.161 0.07466-4.7155-0.15606-9.3835-0.08468-14.1 0.03959-9.3804 0.12855-18.779 0.09323-28.161-0.18116-4.146-0.03379-8.3857-0.04352-12.574 1.57e-4 -8.9704 0.18481-17.974-0.01591-26.915 0.0088-7.084 0.0723-14.168 0.0889-21.252-9.82e-4 -4.6015 0.11402-9.2368-0.0503-13.804-0.14721-5.0458-0.0443-10.165-0.09676-15.247 0.04961-19.945 9.82e-4 -39.878 0.05737-59.822-0.0079-10.923-0.0499-21.861 0.05305-32.777 0.13244-79.094 0.06425-246.86 0.09824-348.16 3.2709-6.2428 5.948-8.98 12.031-13.218 0.01297 85.033-0.10345 158.85-0.10844 243.88-0.03831 81.645-0.03428 163.3-0.08075 244.95-0.01513 8.7104-0.17396 17.443-0.03232 26.143 0.16392 6.2446 0.01601 12.528 0.03782 18.794 0.06012 18.274-0.03812 36.55 0.01867 54.824-0.0781 12.73 0.01513 25.469-0.02043 38.198-0.08409 11.368 0.078 22.762-0.0502 34.115-0.05256 5.8069-0.09028 11.615-0.08183 17.423 0.19726 14.099-0.08085 27.884 0.13463 41.978l0.89144 0.0135c0.01857-11.634 0.16343-22.774 0.18191-34.409-0.22952-9.3772 0.04381-18.815-0.03861-28.23-0.07977-1.6226-0.10393-3.2955-0.09067-4.9548 0.04273-8.5997 0.08428-17.199 0.11699-25.8 0.0088-3.338 0.0833-6.7241-0.07122-10.011-0.0388-9.333 0.11822-18.672 0.06631-27.999-0.29369-5.7566-0.0049-11.746-0.07328-17.603-0.15534-10.804 9.82e-4 -21.63-0.0079-32.437-0.21147-15.148 0.17446-30.334-0.04843-45.476-0.0333-7.5467 0.13263-15.098 0.0029-22.634-0.04794-8.8365 0.03468-17.679 0.05059-26.515-0.11621-8.8793-0.04951-17.782-0.01552-26.673 0.06729-5.8299-0.10039-11.66-0.04617-17.491-0.0039-6.8871 0.06081-13.754 0.05806-20.632-0.19116-12.736 0.11396-25.509-0.05766-38.242-0.01768-3.2505 2e-3 -6.5032 0.01719-9.7572 0.02996-10.03 0.10942-20.044 0.14524-30.064-0.19896-8.0108-0.02721-16.077-0.02535-24.118-0.06169-1.3457-0.13459-2.7188-0.13889-4.1151-0.02957-8.8912 0.13489-17.781 0.0059-26.67-0.02967-8.5852 0.03379-17.173 0.05324-25.759-0.18898-10.583-0.09155-15.414-0.14748-27.349-0.01965-14.689 0.23809-29.379 0.08468-44.061-0.02947-10.528 0.12712-21.062 9.82e-4 -31.589 0.0837-9.8188-0.3614 6.9462 0.01012-79.689-0.19885-13.171 0.14599-38.278 0.15778-39.155 4.0364-3.1895 7.874-4.9855 11.809-6.5095 0.0725-4.6629 0.15834 5.0569 0.18013 6.6799-0.05698 10.241-0.10458 20.485-0.14745 30.728-0.01198 3.2632-0.06601 6.5366 0.01857 9.7793 0.0611 1.4457 0.13054 2.8763 0.12955 4.3462-0.2671 172.16-0.53746 344.32-0.80457 516.48-0.05275 25.991-0.05658 51.99-0.13863 77.968-0.0613 7.5163-0.07672 15.031-0.12217 22.542 0.14691 16.608-0.04568 33.235-0.07986 49.842 0.03566 3.8757 0.09022 5.6748 0.05407 9.5656l0.85675 6e-3c0.05364-18.823 0.05354-35.448 0.08104-54.274 2.65e-4 -2.6164 0.03144-5.2291 0.06935-7.8313 0.01916-23.093-0.31169-7.9672 0.12027-99.276-0.05295-15.516 0.0279-31.036 0.06474-46.555-0.04312-6.884-0.02917-13.784 0.01248-20.673 0.01523-34.484 0.06376-3.9364 0.04666-50.744 0.12818-96.052 0.27588-192.09 0.40079-288.14 0.05501-9.8512-0.05089-19.751 0.11521-29.587-0.10647-6.7824 0.06346-23.187 0.0049-32.543 0.0049-8.6457 0.05727-17.286 0.0949-25.927-0.11236-14.095 2e-3 -28.208 0.05615-42.305-0.11034-15.781-0.03821-14.04 0.02112-29.83 2.8968-0.78968 5.2518-4.1861 11.302-4.2142-0.1645 148.9-0.3145 297.8-0.4759 446.7-0.04018 28.319-0.03144 56.644-0.10584 84.966-0.0444 9.6121 0.02426 19.224-0.01837 28.837-0.06238 20.217-7.86e-4 40.426-0.09096 60.639 0.04646 13.571-0.0079 27.144-0.04146 40.72 0.05167 13.854-0.01749 27.716-0.04254 41.575 0.05265 10.772-0.21569 17.686-0.22493 28.458l1.0486 0.0149c0.1598-245.74 0.53578-487.47 0.69888-733.22-0.0321-6.5345-34.992 8.5586-38.507 24.28-0.04008 89.353-0.11778 178.71-0.16602 268.05" fill="url(#b)"/>
</svg>
