<?xml version="1.0" encoding="utf-8"?>
<!-- Generator: Adobe Illustrator 16.0.0, SVG Export Plug-In . SVG Version: 6.00 Build 0)  -->
<!DOCTYPE svg PUBLIC "-//W3C//DTD SVG 1.1//EN" "http://www.w3.org/Graphics/SVG/1.1/DTD/svg11.dtd">
<svg version="1.1" id="Outline_Version" xmlns="http://www.w3.org/2000/svg" xmlns:xlink="http://www.w3.org/1999/xlink" x="0px"
	 y="0px" width="24px" height="24px" viewBox="0 0 24 24" enable-background="new 0 0 24 24" xml:space="preserve">
<g>
	<path fill="#FFFFFF" d="M22.5,2h-21C0.673,2,0,2.673,0,3.5v13C0,17.327,0.673,18,1.5,18H3v3.5c0,0.202,0.122,0.385,0.309,0.462
		C3.371,21.988,3.436,22,3.5,22c0.13,0,0.258-0.051,0.354-0.146L7.707,18H22.5c0.827,0,1.5-0.673,1.5-1.5v-13
		C24,2.673,23.327,2,22.5,2z M23,16.5c0,0.275-0.225,0.5-0.5,0.5h-15c-0.133,0-0.26,0.053-0.354,0.146L4,20.293V17.5
		C4,17.225,3.776,17,3.5,17h-2C1.224,17,1,16.775,1,16.5v-13C1,3.224,1.224,3,1.5,3h21C22.775,3,23,3.224,23,3.5V16.5z"/>
	<circle fill="#FFFFFF" cx="8.5" cy="10" r="1"/>
	<circle fill="#FFFFFF" cx="16.5" cy="10" r="1"/>
	<circle fill="#FFFFFF" cx="12.5" cy="10" r="1"/>
</g>
</svg>
