<?xml version="1.0" encoding="utf-8"?>
<!-- Generator: Adobe Illustrator 16.0.0, SVG Export Plug-In . SVG Version: 6.00 Build 0)  -->
<!DOCTYPE svg PUBLIC "-//W3C//DTD SVG 1.1//EN" "http://www.w3.org/Graphics/SVG/1.1/DTD/svg11.dtd">
<svg version="1.1" id="Outline_Version" xmlns="http://www.w3.org/2000/svg" xmlns:xlink="http://www.w3.org/1999/xlink" x="0px"
	 y="0px" width="24px" height="24px" viewBox="0 0 24 24" enable-background="new 0 0 24 24" xml:space="preserve">
<g>
	<path fill="#FFFFFF" d="M13,12H6c-1.103,0-2,0.896-2,2s0.897,2,2,2s2-0.896,2-2c0-0.366-0.105-0.705-0.278-1h3.557
		C11.105,13.295,11,13.634,11,14c0,1.104,0.897,2,2,2c1.104,0,2-0.896,2-2S14.104,12,13,12z M7,14c0,0.551-0.448,1-1,1s-1-0.449-1-1
		s0.448-1,1-1S7,13.449,7,14z M13,15c-0.552,0-1-0.449-1-1s0.448-1,1-1s1,0.449,1,1S13.552,15,13,15z"/>
	<path fill="#FFFFFF" d="M23.535,10.441c-0.291-0.19-0.655-0.226-0.973-0.092L18,12.25V10.5C18,9.673,17.327,9,16.5,9H16V6.5
		C16,6.224,16.225,6,16.5,6h1.592c0.207,0.581,0.758,1,1.408,1h3C23.327,7,24,6.327,24,5.5S23.327,4,22.5,4h-3
		c-0.65,0-1.201,0.419-1.408,1H16.5C15.673,5,15,5.673,15,6.5V9h-3V7.5C12,6.673,11.327,6,10.5,6h-10C0.224,6,0,6.224,0,6.5
		S0.224,7,0.5,7h10C10.775,7,11,7.224,11,7.5V9H2.5C1.673,9,1,9.673,1,10.5v8C1,19.327,1.673,20,2.5,20h14
		c0.827,0,1.5-0.673,1.5-1.5v-1.75l4.564,1.902c0.127,0.053,0.261,0.078,0.395,0.078c0.202,0,0.404-0.06,0.584-0.176
		C23.829,18.357,24,18.036,24,17.691v-6.384C24,10.962,23.828,10.64,23.535,10.441z M19.5,5h3C22.775,5,23,5.224,23,5.5
		S22.775,6,22.5,6h-3C19.225,6,19,5.776,19,5.5S19.225,5,19.5,5z M16.5,19h-14C2.225,19,2,18.775,2,18.5v-8
		C2,10.224,2.225,10,2.5,10h14c0.275,0,0.5,0.224,0.5,0.5v2.497v0.001v3.004c0,0,0,0,0,0.001V18.5C17,18.775,16.775,19,16.5,19z
		 M22.947,17.729L18,15.667v-2.331l5-2.029L22.947,17.729z"/>
</g>
</svg>
