<?xml version="1.0" encoding="utf-8"?>
<!-- Generator: Adobe Illustrator 16.0.0, SVG Export Plug-In . SVG Version: 6.00 Build 0)  -->
<!DOCTYPE svg PUBLIC "-//W3C//DTD SVG 1.1//EN" "http://www.w3.org/Graphics/SVG/1.1/DTD/svg11.dtd">
<svg version="1.1" id="Outline_Version" xmlns="http://www.w3.org/2000/svg" xmlns:xlink="http://www.w3.org/1999/xlink" x="0px"
	 y="0px" width="24px" height="24px" viewBox="0 0 24 24" enable-background="new 0 0 24 24" xml:space="preserve">
<g>
	<path fill="#FFFFFF" d="M22,3H2C0.897,3,0,3.937,0,5.088v14.824C0,21.062,0.897,22,2,22h9.5v1H5c-0.276,0-0.5,0.225-0.5,0.5
		S4.724,24,5,24h14c0.275,0,0.5-0.225,0.5-0.5S19.275,23,19,23h-6.5v-1H22c1.104,0,2-0.938,2-2.088V5.088C24,3.937,23.104,3,22,3z
		 M2,4h20c0.551,0,1,0.488,1,1.088V17H1V5.088C1,4.488,1.449,4,2,4z M22,21H2c-0.551,0-1-0.488-1-1.088V18h22v1.912
		C23,20.512,22.551,21,22,21z"/>
	<circle fill="#FFFFFF" cx="12" cy="19.5" r="1"/>
</g>
</svg>
