<?xml version="1.0" encoding="utf-8"?>
<!-- Generator: Adobe Illustrator 16.0.0, SVG Export Plug-In . SVG Version: 6.00 Build 0)  -->
<!DOCTYPE svg PUBLIC "-//W3C//DTD SVG 1.1//EN" "http://www.w3.org/Graphics/SVG/1.1/DTD/svg11.dtd">
<svg version="1.1" id="Outline_Version" xmlns="http://www.w3.org/2000/svg" xmlns:xlink="http://www.w3.org/1999/xlink" x="0px"
	 y="0px" width="24px" height="24px" viewBox="0 0 24 24" enable-background="new 0 0 24 24" xml:space="preserve">
<g>
	<path fill="#FFFFFF" d="M22,4H2C0.897,4,0,4.897,0,6v12c0,1.104,0.897,2,2,2h20c1.104,0,2-0.896,2-2V6C24,4.897,23.104,4,22,4z
		 M23,18c0,0.551-0.449,1-1,1H2c-0.551,0-1-0.449-1-1V6c0-0.551,0.449-1,1-1h20c0.551,0,1,0.449,1,1V18z"/>
	<path fill="#FFFFFF" d="M20.92,8.229c-0.15-0.232-0.46-0.298-0.691-0.148L12,13.404L3.771,8.08C3.54,7.931,3.23,7.997,3.08,8.229
		S2.997,8.77,3.229,8.92l8.5,5.5c0.083,0.053,0.177,0.08,0.271,0.08s0.189-0.027,0.271-0.08l8.5-5.5
		C21.003,8.77,21.07,8.46,20.92,8.229z"/>
	<path fill="#FFFFFF" d="M6.752,13.566l-3.5,2c-0.24,0.137-0.323,0.441-0.186,0.682C3.158,16.41,3.327,16.5,3.5,16.5
		c0.084,0,0.169-0.021,0.248-0.066l3.5-2c0.24-0.137,0.323-0.441,0.186-0.682C7.296,13.512,6.992,13.427,6.752,13.566z"/>
	<path fill="#FFFFFF" d="M20.748,15.566l-3.5-2c-0.241-0.14-0.546-0.055-0.682,0.186c-0.137,0.24-0.055,0.545,0.186,0.682l3.5,2
		C20.33,16.479,20.416,16.5,20.5,16.5c0.174,0,0.342-0.09,0.436-0.252C21.07,16.008,20.988,15.703,20.748,15.566z"/>
</g>
</svg>
