<?xml version="1.0" encoding="utf-8"?>
<!-- Generator: Adobe Illustrator 16.0.0, SVG Export Plug-In . SVG Version: 6.00 Build 0)  -->
<!DOCTYPE svg PUBLIC "-//W3C//DTD SVG 1.1//EN" "http://www.w3.org/Graphics/SVG/1.1/DTD/svg11.dtd">
<svg version="1.1" id="Outline_Version" xmlns="http://www.w3.org/2000/svg" xmlns:xlink="http://www.w3.org/1999/xlink" x="0px"
	 y="0px" width="24px" height="24px" viewBox="0 0 24 24" enable-background="new 0 0 24 24" xml:space="preserve">
<g>
	<path fill="#FFFFFF" d="M10.501,17.484c4.687,0,8.5-3.812,8.5-8.5s-3.813-8.5-8.5-8.5c-4.687,0-8.5,3.813-8.5,8.5
		S5.814,17.484,10.501,17.484z M10.501,1.485c4.136,0,7.5,3.364,7.5,7.5c0,4.135-3.364,7.5-7.5,7.5s-7.5-3.364-7.5-7.5
		C3.001,4.85,6.365,1.485,10.501,1.485z"/>
	<path fill="#FFFFFF" d="M18.633,17.117c4.364-4.365,4.469-11.386,0.336-15.892l0.371-0.372c0.195-0.195,0.195-0.512,0-0.707
		s-0.512-0.195-0.707,0L17.219,1.56c-0.195,0.195-0.195,0.512,0,0.707c0.098,0.098,0.227,0.146,0.354,0.146s0.256-0.049,0.354-0.146
		l0.337-0.335c3.74,4.116,3.637,10.503-0.337,14.478c-3.975,3.975-10.361,4.076-14.478,0.334l0.335-0.334
		c0.195-0.195,0.195-0.512,0-0.707c-0.195-0.195-0.512-0.195-0.707,0l-0.703,0.701c-0.001,0.002-0.003,0.002-0.004,0.004
		s-0.002,0.003-0.003,0.004l-0.704,0.704c-0.195,0.194-0.195,0.512,0,0.707c0.098,0.098,0.226,0.146,0.354,0.146
		s0.256-0.049,0.354-0.146l0.372-0.372c1.929,1.77,4.313,2.768,6.76,2.98v0.604c-1.909,0.181-3.719,0.876-5.282,2.047
		c-0.172,0.129-0.242,0.354-0.175,0.56c0.068,0.203,0.26,0.342,0.475,0.342h11.963c0.216,0,0.406-0.139,0.476-0.342
		c0.067-0.205-0.003-0.43-0.175-0.56c-1.562-1.17-3.372-1.866-5.281-2.047v-0.604C14.104,20.207,16.646,19.104,18.633,17.117z
		 M6.271,22.984c2.617-1.315,5.845-1.315,8.459,0H6.271z"/>
</g>
</svg>
